<?xml version="1.0" encoding="UTF-8"?>
<svg xmlns="http://www.w3.org/2000/svg" xmlns:xlink="http://www.w3.org/1999/xlink" width="360pt" height="219pt" viewBox="0 0 360 219">
<defs>
<g>
<g id="glyph-0-0">
<path d="M 0.328125 0 L 0.328125 -7.46875 L 6.265625 -7.46875 L 6.265625 0 Z M 5.328125 -0.9375 L 5.328125 -6.53125 L 1.265625 -6.53125 L 1.265625 -0.9375 Z M 5.328125 -0.9375 "/>
</g>
<g id="glyph-0-1">
<path d="M 1 -5.15625 L 1 -5.859375 C 1.65625 -5.921875 2.113281 -6.023438 2.375 -6.171875 C 2.632812 -6.328125 2.832031 -6.6875 2.96875 -7.25 L 3.6875 -7.25 L 3.6875 0 L 2.703125 0 L 2.703125 -5.15625 Z M 1 -5.15625 "/>
</g>
<g id="glyph-0-2">
<path d="M 2.8125 -7.28125 C 3.757812 -7.28125 4.441406 -6.890625 4.859375 -6.109375 C 5.179688 -5.515625 5.34375 -4.691406 5.34375 -3.640625 C 5.34375 -2.660156 5.195312 -1.84375 4.90625 -1.1875 C 4.476562 -0.257812 3.78125 0.203125 2.8125 0.203125 C 1.9375 0.203125 1.285156 -0.175781 0.859375 -0.9375 C 0.503906 -1.570312 0.328125 -2.421875 0.328125 -3.484375 C 0.328125 -4.316406 0.429688 -5.03125 0.640625 -5.625 C 1.046875 -6.726562 1.769531 -7.28125 2.8125 -7.28125 Z M 2.8125 -0.640625 C 3.28125 -0.640625 3.65625 -0.847656 3.9375 -1.265625 C 4.21875 -1.679688 4.359375 -2.460938 4.359375 -3.609375 C 4.359375 -4.441406 4.253906 -5.125 4.046875 -5.65625 C 3.847656 -6.1875 3.457031 -6.453125 2.875 -6.453125 C 2.332031 -6.453125 1.9375 -6.195312 1.6875 -5.6875 C 1.4375 -5.1875 1.3125 -4.441406 1.3125 -3.453125 C 1.3125 -2.710938 1.394531 -2.117188 1.5625 -1.671875 C 1.800781 -0.984375 2.21875 -0.640625 2.8125 -0.640625 Z M 2.8125 -0.640625 "/>
</g>
<g id="glyph-0-3">
</g>
<g id="glyph-0-4">
<path d="M 7.09375 -3.53125 C 7.582031 -3.53125 8 -3.359375 8.34375 -3.015625 C 8.6875 -2.671875 8.859375 -2.253906 8.859375 -1.765625 C 8.859375 -1.273438 8.6875 -0.859375 8.34375 -0.515625 C 8 -0.171875 7.582031 0 7.09375 0 C 6.601562 0 6.179688 -0.171875 5.828125 -0.515625 C 5.484375 -0.859375 5.3125 -1.273438 5.3125 -1.765625 C 5.3125 -2.253906 5.484375 -2.671875 5.828125 -3.015625 C 6.179688 -3.359375 6.601562 -3.53125 7.09375 -3.53125 Z M 6.359375 -7.25 L 6.921875 -7.25 L 2.84375 0.1875 L 2.28125 0.1875 Z M 2.109375 -4.234375 C 2.398438 -4.234375 2.644531 -4.335938 2.84375 -4.546875 C 3.050781 -4.753906 3.15625 -5 3.15625 -5.28125 C 3.15625 -5.570312 3.050781 -5.816406 2.84375 -6.015625 C 2.644531 -6.222656 2.398438 -6.328125 2.109375 -6.328125 C 1.816406 -6.328125 1.566406 -6.222656 1.359375 -6.015625 C 1.160156 -5.816406 1.0625 -5.570312 1.0625 -5.28125 C 1.0625 -5 1.160156 -4.753906 1.359375 -4.546875 C 1.566406 -4.335938 1.816406 -4.234375 2.109375 -4.234375 Z M 2.109375 -7.0625 C 2.597656 -7.0625 3.015625 -6.882812 3.359375 -6.53125 C 3.703125 -6.1875 3.875 -5.769531 3.875 -5.28125 C 3.875 -4.789062 3.703125 -4.375 3.359375 -4.03125 C 3.015625 -3.6875 2.597656 -3.515625 2.109375 -3.515625 C 1.617188 -3.515625 1.195312 -3.6875 0.84375 -4.03125 C 0.5 -4.375 0.328125 -4.789062 0.328125 -5.28125 C 0.328125 -5.769531 0.5 -6.1875 0.84375 -6.53125 C 1.195312 -6.882812 1.617188 -7.0625 2.109375 -7.0625 Z M 7.09375 -0.71875 C 7.382812 -0.71875 7.628906 -0.820312 7.828125 -1.03125 C 8.035156 -1.238281 8.140625 -1.484375 8.140625 -1.765625 C 8.140625 -2.054688 8.035156 -2.300781 7.828125 -2.5 C 7.628906 -2.707031 7.382812 -2.8125 7.09375 -2.8125 C 6.800781 -2.8125 6.550781 -2.707031 6.34375 -2.5 C 6.144531 -2.300781 6.046875 -2.054688 6.046875 -1.765625 C 6.046875 -1.484375 6.144531 -1.238281 6.34375 -1.03125 C 6.550781 -0.820312 6.800781 -0.71875 7.09375 -0.71875 Z M 7.09375 -0.71875 "/>
</g>
<g id="glyph-0-5">
<path d="M 0.328125 0 C 0.359375 -0.625 0.484375 -1.164062 0.703125 -1.625 C 0.929688 -2.09375 1.375 -2.519531 2.03125 -2.90625 L 3.015625 -3.46875 C 3.441406 -3.71875 3.742188 -3.929688 3.921875 -4.109375 C 4.203125 -4.390625 4.34375 -4.710938 4.34375 -5.078125 C 4.34375 -5.503906 4.210938 -5.84375 3.953125 -6.09375 C 3.703125 -6.34375 3.367188 -6.46875 2.953125 -6.46875 C 2.316406 -6.46875 1.878906 -6.226562 1.640625 -5.75 C 1.515625 -5.5 1.445312 -5.144531 1.4375 -4.6875 L 0.5 -4.6875 C 0.507812 -5.320312 0.628906 -5.84375 0.859375 -6.25 C 1.253906 -6.945312 1.953125 -7.296875 2.953125 -7.296875 C 3.785156 -7.296875 4.394531 -7.070312 4.78125 -6.625 C 5.164062 -6.175781 5.359375 -5.675781 5.359375 -5.125 C 5.359375 -4.539062 5.148438 -4.039062 4.734375 -3.625 C 4.503906 -3.382812 4.082031 -3.09375 3.46875 -2.75 L 2.765625 -2.375 C 2.429688 -2.1875 2.171875 -2.007812 1.984375 -1.84375 C 1.648438 -1.550781 1.4375 -1.222656 1.34375 -0.859375 L 5.3125 -0.859375 L 5.3125 0 Z M 0.328125 0 "/>
</g>
<g id="glyph-0-6">
<path d="M 2.703125 0.203125 C 1.835938 0.203125 1.210938 -0.03125 0.828125 -0.5 C 0.441406 -0.976562 0.25 -1.554688 0.25 -2.234375 L 1.203125 -2.234375 C 1.242188 -1.765625 1.332031 -1.421875 1.46875 -1.203125 C 1.707031 -0.828125 2.132812 -0.640625 2.75 -0.640625 C 3.226562 -0.640625 3.613281 -0.765625 3.90625 -1.015625 C 4.195312 -1.273438 4.34375 -1.609375 4.34375 -2.015625 C 4.34375 -2.515625 4.191406 -2.863281 3.890625 -3.0625 C 3.585938 -3.269531 3.160156 -3.375 2.609375 -3.375 C 2.546875 -3.375 2.484375 -3.367188 2.421875 -3.359375 C 2.359375 -3.359375 2.296875 -3.359375 2.234375 -3.359375 L 2.234375 -4.171875 C 2.328125 -4.160156 2.40625 -4.148438 2.46875 -4.140625 C 2.539062 -4.140625 2.613281 -4.140625 2.6875 -4.140625 C 3.03125 -4.140625 3.3125 -4.191406 3.53125 -4.296875 C 3.914062 -4.492188 4.109375 -4.832031 4.109375 -5.3125 C 4.109375 -5.675781 3.976562 -5.957031 3.71875 -6.15625 C 3.457031 -6.351562 3.15625 -6.453125 2.8125 -6.453125 C 2.207031 -6.453125 1.789062 -6.25 1.5625 -5.84375 C 1.425781 -5.625 1.351562 -5.304688 1.34375 -4.890625 L 0.4375 -4.890625 C 0.4375 -5.429688 0.539062 -5.890625 0.75 -6.265625 C 1.125 -6.941406 1.78125 -7.28125 2.71875 -7.28125 C 3.46875 -7.28125 4.046875 -7.113281 4.453125 -6.78125 C 4.859375 -6.457031 5.0625 -5.984375 5.0625 -5.359375 C 5.0625 -4.910156 4.9375 -4.546875 4.6875 -4.265625 C 4.539062 -4.097656 4.347656 -3.960938 4.109375 -3.859375 C 4.492188 -3.753906 4.789062 -3.550781 5 -3.25 C 5.21875 -2.957031 5.328125 -2.59375 5.328125 -2.15625 C 5.328125 -1.457031 5.097656 -0.890625 4.640625 -0.453125 C 4.191406 -0.015625 3.546875 0.203125 2.703125 0.203125 Z M 2.703125 0.203125 "/>
</g>
<g id="glyph-0-7">
<path d="M 3.4375 -2.578125 L 3.4375 -5.875 L 1.109375 -2.578125 Z M 3.453125 0 L 3.453125 -1.78125 L 0.265625 -1.78125 L 0.265625 -2.671875 L 3.59375 -7.296875 L 4.375 -7.296875 L 4.375 -2.578125 L 5.4375 -2.578125 L 5.4375 -1.78125 L 4.375 -1.78125 L 4.375 0 Z M 3.453125 0 "/>
</g>
<g id="glyph-0-8">
<path d="M 1.28125 -1.859375 C 1.34375 -1.335938 1.585938 -0.972656 2.015625 -0.765625 C 2.234375 -0.671875 2.484375 -0.625 2.765625 -0.625 C 3.304688 -0.625 3.707031 -0.796875 3.96875 -1.140625 C 4.226562 -1.484375 4.359375 -1.863281 4.359375 -2.28125 C 4.359375 -2.789062 4.203125 -3.179688 3.890625 -3.453125 C 3.585938 -3.734375 3.21875 -3.875 2.78125 -3.875 C 2.46875 -3.875 2.195312 -3.8125 1.96875 -3.6875 C 1.738281 -3.570312 1.546875 -3.40625 1.390625 -3.1875 L 0.59375 -3.234375 L 1.15625 -7.15625 L 4.9375 -7.15625 L 4.9375 -6.265625 L 1.84375 -6.265625 L 1.53125 -4.25 C 1.695312 -4.375 1.859375 -4.46875 2.015625 -4.53125 C 2.285156 -4.644531 2.597656 -4.703125 2.953125 -4.703125 C 3.617188 -4.703125 4.179688 -4.488281 4.640625 -4.0625 C 5.109375 -3.632812 5.34375 -3.085938 5.34375 -2.421875 C 5.34375 -1.734375 5.128906 -1.125 4.703125 -0.59375 C 4.273438 -0.0703125 3.597656 0.1875 2.671875 0.1875 C 2.078125 0.1875 1.550781 0.0195312 1.09375 -0.3125 C 0.644531 -0.644531 0.390625 -1.160156 0.328125 -1.859375 Z M 1.28125 -1.859375 "/>
</g>
<g id="glyph-0-9">
<path d="M 5.4375 -7.15625 L 5.4375 -6.359375 C 5.207031 -6.128906 4.894531 -5.734375 4.5 -5.171875 C 4.113281 -4.609375 3.773438 -4.003906 3.484375 -3.359375 C 3.179688 -2.722656 2.957031 -2.144531 2.8125 -1.625 C 2.707031 -1.289062 2.578125 -0.75 2.421875 0 L 1.421875 0 C 1.648438 -1.382812 2.15625 -2.765625 2.9375 -4.140625 C 3.40625 -4.953125 3.894531 -5.648438 4.40625 -6.234375 L 0.375 -6.234375 L 0.375 -7.15625 Z M 5.4375 -7.15625 "/>
</g>
<g id="glyph-0-10">
<path d="M 1.375 -1.765625 C 1.40625 -1.253906 1.601562 -0.90625 1.96875 -0.71875 C 2.15625 -0.613281 2.363281 -0.5625 2.59375 -0.5625 C 3.03125 -0.5625 3.398438 -0.742188 3.703125 -1.109375 C 4.015625 -1.472656 4.238281 -2.210938 4.375 -3.328125 C 4.164062 -3.003906 3.910156 -2.773438 3.609375 -2.640625 C 3.316406 -2.515625 2.992188 -2.453125 2.640625 -2.453125 C 1.941406 -2.453125 1.390625 -2.671875 0.984375 -3.109375 C 0.578125 -3.546875 0.375 -4.109375 0.375 -4.796875 C 0.375 -5.453125 0.570312 -6.03125 0.96875 -6.53125 C 1.375 -7.03125 1.972656 -7.28125 2.765625 -7.28125 C 3.816406 -7.28125 4.546875 -6.804688 4.953125 -5.859375 C 5.179688 -5.328125 5.296875 -4.664062 5.296875 -3.875 C 5.296875 -2.988281 5.160156 -2.203125 4.890625 -1.515625 C 4.441406 -0.367188 3.6875 0.203125 2.625 0.203125 C 1.914062 0.203125 1.375 0.0117188 1 -0.359375 C 0.632812 -0.734375 0.453125 -1.203125 0.453125 -1.765625 Z M 2.765625 -3.25 C 3.128906 -3.25 3.460938 -3.367188 3.765625 -3.609375 C 4.066406 -3.847656 4.21875 -4.265625 4.21875 -4.859375 C 4.21875 -5.398438 4.082031 -5.800781 3.8125 -6.0625 C 3.539062 -6.320312 3.195312 -6.453125 2.78125 -6.453125 C 2.332031 -6.453125 1.976562 -6.300781 1.71875 -6 C 1.457031 -5.695312 1.328125 -5.296875 1.328125 -4.796875 C 1.328125 -4.328125 1.441406 -3.953125 1.671875 -3.671875 C 1.898438 -3.390625 2.265625 -3.25 2.765625 -3.25 Z M 2.765625 -3.25 "/>
</g>
<g id="glyph-0-11">
<path d="M 0.890625 -7.46875 L 6.328125 -7.46875 L 6.328125 -6.546875 L 1.875 -6.546875 L 1.875 -4.28125 L 6 -4.28125 L 6 -3.421875 L 1.875 -3.421875 L 1.875 -0.890625 L 6.40625 -0.890625 L 6.40625 0 L 0.890625 0 Z M 3.640625 -7.46875 Z M 3.640625 -7.46875 "/>
</g>
<g id="glyph-0-12">
<path d="M 0.671875 -5.4375 L 1.578125 -5.4375 L 1.578125 -4.671875 C 1.796875 -4.941406 1.992188 -5.132812 2.171875 -5.25 C 2.460938 -5.457031 2.800781 -5.5625 3.1875 -5.5625 C 3.625 -5.5625 3.972656 -5.457031 4.234375 -5.25 C 4.390625 -5.125 4.523438 -4.941406 4.640625 -4.703125 C 4.847656 -4.992188 5.085938 -5.207031 5.359375 -5.34375 C 5.628906 -5.488281 5.9375 -5.5625 6.28125 -5.5625 C 7.019531 -5.5625 7.519531 -5.296875 7.78125 -4.765625 C 7.925781 -4.484375 8 -4.101562 8 -3.625 L 8 0 L 7.046875 0 L 7.046875 -3.78125 C 7.046875 -4.144531 6.953125 -4.394531 6.765625 -4.53125 C 6.585938 -4.664062 6.367188 -4.734375 6.109375 -4.734375 C 5.742188 -4.734375 5.429688 -4.613281 5.171875 -4.375 C 4.921875 -4.132812 4.796875 -3.734375 4.796875 -3.171875 L 4.796875 0 L 3.859375 0 L 3.859375 -3.546875 C 3.859375 -3.921875 3.816406 -4.191406 3.734375 -4.359375 C 3.585938 -4.609375 3.328125 -4.734375 2.953125 -4.734375 C 2.609375 -4.734375 2.289062 -4.597656 2 -4.328125 C 1.71875 -4.066406 1.578125 -3.585938 1.578125 -2.890625 L 1.578125 0 L 0.671875 0 Z M 0.671875 -5.4375 "/>
</g>
<g id="glyph-0-13">
<path d="M 2.96875 -0.609375 C 3.394531 -0.609375 3.75 -0.785156 4.03125 -1.140625 C 4.3125 -1.503906 4.453125 -2.039062 4.453125 -2.75 C 4.453125 -3.1875 4.390625 -3.5625 4.265625 -3.875 C 4.023438 -4.46875 3.59375 -4.765625 2.96875 -4.765625 C 2.332031 -4.765625 1.898438 -4.453125 1.671875 -3.828125 C 1.546875 -3.484375 1.484375 -3.050781 1.484375 -2.53125 C 1.484375 -2.113281 1.546875 -1.753906 1.671875 -1.453125 C 1.898438 -0.890625 2.332031 -0.609375 2.96875 -0.609375 Z M 0.59375 -5.421875 L 1.484375 -5.421875 L 1.484375 -4.6875 C 1.671875 -4.9375 1.875 -5.128906 2.09375 -5.265625 C 2.394531 -5.472656 2.753906 -5.578125 3.171875 -5.578125 C 3.785156 -5.578125 4.304688 -5.335938 4.734375 -4.859375 C 5.171875 -4.390625 5.390625 -3.71875 5.390625 -2.84375 C 5.390625 -1.65625 5.082031 -0.804688 4.46875 -0.296875 C 4.070312 0.0234375 3.613281 0.1875 3.09375 0.1875 C 2.675781 0.1875 2.332031 0.0898438 2.0625 -0.09375 C 1.894531 -0.1875 1.710938 -0.359375 1.515625 -0.609375 L 1.515625 2.171875 L 0.59375 2.171875 Z M 0.59375 -5.421875 "/>
</g>
<g id="glyph-0-14">
<path d="M 0.703125 -7.46875 L 1.609375 -7.46875 L 1.609375 0 L 0.703125 0 Z M 0.703125 -7.46875 "/>
</g>
<g id="glyph-0-15">
<path d="M 2.828125 -0.59375 C 3.429688 -0.59375 3.847656 -0.820312 4.078125 -1.28125 C 4.304688 -1.738281 4.421875 -2.25 4.421875 -2.8125 C 4.421875 -3.320312 4.335938 -3.734375 4.171875 -4.046875 C 3.910156 -4.546875 3.46875 -4.796875 2.84375 -4.796875 C 2.28125 -4.796875 1.867188 -4.582031 1.609375 -4.15625 C 1.359375 -3.726562 1.234375 -3.210938 1.234375 -2.609375 C 1.234375 -2.035156 1.359375 -1.554688 1.609375 -1.171875 C 1.867188 -0.785156 2.273438 -0.59375 2.828125 -0.59375 Z M 2.859375 -5.59375 C 3.566406 -5.59375 4.160156 -5.359375 4.640625 -4.890625 C 5.128906 -4.429688 5.375 -3.742188 5.375 -2.828125 C 5.375 -1.953125 5.160156 -1.226562 4.734375 -0.65625 C 4.304688 -0.0820312 3.644531 0.203125 2.75 0.203125 C 2 0.203125 1.398438 -0.0507812 0.953125 -0.5625 C 0.515625 -1.070312 0.296875 -1.753906 0.296875 -2.609375 C 0.296875 -3.515625 0.523438 -4.238281 0.984375 -4.78125 C 1.453125 -5.320312 2.078125 -5.59375 2.859375 -5.59375 Z M 2.828125 -5.578125 Z M 2.828125 -5.578125 "/>
</g>
<g id="glyph-0-16">
<path d="M 0.671875 -5.421875 L 1.59375 -5.421875 L 1.59375 0 L 0.671875 0 Z M 0.671875 -7.46875 L 1.59375 -7.46875 L 1.59375 -6.421875 L 0.671875 -6.421875 Z M 0.671875 -7.46875 "/>
</g>
<g id="glyph-0-17">
<path d="M 3.9375 -7.671875 C 4.882812 -7.671875 5.617188 -7.421875 6.140625 -6.921875 C 6.660156 -6.421875 6.945312 -5.851562 7 -5.21875 L 6.015625 -5.21875 C 5.910156 -5.695312 5.691406 -6.078125 5.359375 -6.359375 C 5.023438 -6.640625 4.554688 -6.78125 3.953125 -6.78125 C 3.210938 -6.78125 2.613281 -6.519531 2.15625 -6 C 1.707031 -5.488281 1.484375 -4.703125 1.484375 -3.640625 C 1.484375 -2.765625 1.6875 -2.054688 2.09375 -1.515625 C 2.507812 -0.972656 3.117188 -0.703125 3.921875 -0.703125 C 4.671875 -0.703125 5.238281 -0.988281 5.625 -1.5625 C 5.832031 -1.851562 5.988281 -2.25 6.09375 -2.75 L 7.078125 -2.75 C 6.992188 -1.957031 6.703125 -1.296875 6.203125 -0.765625 C 5.609375 -0.128906 4.8125 0.1875 3.8125 0.1875 C 2.9375 0.1875 2.207031 -0.0703125 1.625 -0.59375 C 0.84375 -1.289062 0.453125 -2.363281 0.453125 -3.8125 C 0.453125 -4.914062 0.742188 -5.816406 1.328125 -6.515625 C 1.960938 -7.285156 2.832031 -7.671875 3.9375 -7.671875 Z M 3.734375 -7.671875 Z M 3.734375 -7.671875 "/>
</g>
<g id="glyph-0-18">
<path d="M 0.671875 -7.484375 L 1.578125 -7.484375 L 1.578125 -4.703125 C 1.796875 -4.972656 1.992188 -5.164062 2.171875 -5.28125 C 2.460938 -5.476562 2.828125 -5.578125 3.265625 -5.578125 C 4.054688 -5.578125 4.59375 -5.300781 4.875 -4.75 C 5.03125 -4.445312 5.109375 -4.023438 5.109375 -3.484375 L 5.109375 0 L 4.171875 0 L 4.171875 -3.4375 C 4.171875 -3.832031 4.117188 -4.125 4.015625 -4.3125 C 3.847656 -4.601562 3.535156 -4.75 3.078125 -4.75 C 2.703125 -4.75 2.359375 -4.617188 2.046875 -4.359375 C 1.734375 -4.097656 1.578125 -3.609375 1.578125 -2.890625 L 1.578125 0 L 0.671875 0 Z M 0.671875 -7.484375 "/>
</g>
<g id="glyph-0-19">
<path d="M 1.375 -1.453125 C 1.375 -1.179688 1.46875 -0.96875 1.65625 -0.8125 C 1.851562 -0.664062 2.082031 -0.59375 2.34375 -0.59375 C 2.664062 -0.59375 2.976562 -0.664062 3.28125 -0.8125 C 3.789062 -1.0625 4.046875 -1.46875 4.046875 -2.03125 L 4.046875 -2.765625 C 3.929688 -2.691406 3.785156 -2.628906 3.609375 -2.578125 C 3.429688 -2.535156 3.257812 -2.503906 3.09375 -2.484375 L 2.546875 -2.421875 C 2.210938 -2.378906 1.960938 -2.304688 1.796875 -2.203125 C 1.515625 -2.046875 1.375 -1.796875 1.375 -1.453125 Z M 3.59375 -3.296875 C 3.800781 -3.328125 3.941406 -3.414062 4.015625 -3.5625 C 4.046875 -3.644531 4.0625 -3.757812 4.0625 -3.90625 C 4.0625 -4.21875 3.953125 -4.441406 3.734375 -4.578125 C 3.515625 -4.722656 3.195312 -4.796875 2.78125 -4.796875 C 2.300781 -4.796875 1.960938 -4.671875 1.765625 -4.421875 C 1.648438 -4.273438 1.578125 -4.0625 1.546875 -3.78125 L 0.703125 -3.78125 C 0.710938 -4.445312 0.925781 -4.910156 1.34375 -5.171875 C 1.769531 -5.441406 2.257812 -5.578125 2.8125 -5.578125 C 3.445312 -5.578125 3.960938 -5.453125 4.359375 -5.203125 C 4.753906 -4.960938 4.953125 -4.582031 4.953125 -4.0625 L 4.953125 -0.9375 C 4.953125 -0.84375 4.972656 -0.765625 5.015625 -0.703125 C 5.054688 -0.648438 5.140625 -0.625 5.265625 -0.625 C 5.304688 -0.625 5.351562 -0.625 5.40625 -0.625 C 5.457031 -0.632812 5.507812 -0.644531 5.5625 -0.65625 L 5.5625 0.03125 C 5.414062 0.0703125 5.304688 0.09375 5.234375 0.09375 C 5.160156 0.101562 5.0625 0.109375 4.9375 0.109375 C 4.625 0.109375 4.394531 0 4.25 -0.21875 C 4.175781 -0.332031 4.125 -0.5 4.09375 -0.71875 C 3.90625 -0.476562 3.632812 -0.265625 3.28125 -0.078125 C 2.9375 0.0976562 2.554688 0.1875 2.140625 0.1875 C 1.628906 0.1875 1.210938 0.0351562 0.890625 -0.265625 C 0.578125 -0.578125 0.421875 -0.960938 0.421875 -1.421875 C 0.421875 -1.929688 0.578125 -2.320312 0.890625 -2.59375 C 1.203125 -2.875 1.613281 -3.046875 2.125 -3.109375 Z M 2.828125 -5.578125 Z M 2.828125 -5.578125 "/>
</g>
<g id="glyph-0-20">
<path d="M 2.59375 -5.53125 C 3.019531 -5.53125 3.390625 -5.425781 3.703125 -5.21875 C 3.878906 -5.101562 4.054688 -4.929688 4.234375 -4.703125 L 4.234375 -5.390625 L 5.078125 -5.390625 L 5.078125 -0.4375 C 5.078125 0.246094 4.976562 0.789062 4.78125 1.1875 C 4.394531 1.925781 3.675781 2.296875 2.625 2.296875 C 2.039062 2.296875 1.546875 2.164062 1.140625 1.90625 C 0.742188 1.644531 0.523438 1.234375 0.484375 0.671875 L 1.40625 0.671875 C 1.445312 0.921875 1.535156 1.109375 1.671875 1.234375 C 1.878906 1.441406 2.203125 1.546875 2.640625 1.546875 C 3.347656 1.546875 3.8125 1.296875 4.03125 0.796875 C 4.15625 0.503906 4.210938 -0.0078125 4.203125 -0.75 C 4.015625 -0.476562 3.789062 -0.273438 3.53125 -0.140625 C 3.28125 -0.00390625 2.941406 0.0625 2.515625 0.0625 C 1.929688 0.0625 1.414062 -0.144531 0.96875 -0.5625 C 0.53125 -0.976562 0.3125 -1.671875 0.3125 -2.640625 C 0.3125 -3.546875 0.53125 -4.253906 0.96875 -4.765625 C 1.414062 -5.273438 1.957031 -5.53125 2.59375 -5.53125 Z M 4.234375 -2.75 C 4.234375 -3.414062 4.09375 -3.910156 3.8125 -4.234375 C 3.539062 -4.566406 3.191406 -4.734375 2.765625 -4.734375 C 2.117188 -4.734375 1.675781 -4.429688 1.4375 -3.828125 C 1.3125 -3.503906 1.25 -3.082031 1.25 -2.5625 C 1.25 -1.945312 1.375 -1.476562 1.625 -1.15625 C 1.875 -0.84375 2.207031 -0.6875 2.625 -0.6875 C 3.28125 -0.6875 3.742188 -0.976562 4.015625 -1.5625 C 4.160156 -1.90625 4.234375 -2.300781 4.234375 -2.75 Z M 2.703125 -5.578125 Z M 2.703125 -5.578125 "/>
</g>
<g id="glyph-0-21">
<path d="M 2.9375 -5.5625 C 3.320312 -5.5625 3.695312 -5.46875 4.0625 -5.28125 C 4.425781 -5.101562 4.703125 -4.875 4.890625 -4.59375 C 5.066406 -4.3125 5.1875 -3.988281 5.25 -3.625 C 5.300781 -3.375 5.328125 -2.972656 5.328125 -2.421875 L 1.34375 -2.421875 C 1.363281 -1.867188 1.492188 -1.425781 1.734375 -1.09375 C 1.984375 -0.757812 2.363281 -0.59375 2.875 -0.59375 C 3.351562 -0.59375 3.734375 -0.753906 4.015625 -1.078125 C 4.179688 -1.253906 4.296875 -1.460938 4.359375 -1.703125 L 5.265625 -1.703125 C 5.234375 -1.503906 5.148438 -1.28125 5.015625 -1.03125 C 4.890625 -0.789062 4.742188 -0.59375 4.578125 -0.4375 C 4.296875 -0.164062 3.953125 0.015625 3.546875 0.109375 C 3.328125 0.160156 3.078125 0.1875 2.796875 0.1875 C 2.117188 0.1875 1.539062 -0.0546875 1.0625 -0.546875 C 0.59375 -1.035156 0.359375 -1.722656 0.359375 -2.609375 C 0.359375 -3.484375 0.59375 -4.191406 1.0625 -4.734375 C 1.539062 -5.285156 2.164062 -5.5625 2.9375 -5.5625 Z M 4.390625 -3.15625 C 4.359375 -3.550781 4.273438 -3.867188 4.140625 -4.109375 C 3.890625 -4.546875 3.46875 -4.765625 2.875 -4.765625 C 2.457031 -4.765625 2.101562 -4.613281 1.8125 -4.3125 C 1.53125 -4.007812 1.382812 -3.625 1.375 -3.15625 Z M 2.84375 -5.578125 Z M 2.84375 -5.578125 "/>
</g>
<g id="glyph-0-22">
<path d="M 1.015625 -7.46875 L 2.046875 -7.46875 L 2.046875 0 L 1.015625 0 Z M 1.015625 -7.46875 "/>
</g>
<g id="glyph-0-23">
<path d="M 0.671875 -5.4375 L 1.546875 -5.4375 L 1.546875 -4.671875 C 1.796875 -4.984375 2.066406 -5.207031 2.359375 -5.34375 C 2.648438 -5.488281 2.96875 -5.5625 3.3125 -5.5625 C 4.082031 -5.5625 4.609375 -5.289062 4.890625 -4.75 C 5.035156 -4.457031 5.109375 -4.035156 5.109375 -3.484375 L 5.109375 0 L 4.171875 0 L 4.171875 -3.4375 C 4.171875 -3.757812 4.125 -4.023438 4.03125 -4.234375 C 3.863281 -4.566406 3.566406 -4.734375 3.140625 -4.734375 C 2.921875 -4.734375 2.742188 -4.710938 2.609375 -4.671875 C 2.359375 -4.597656 2.140625 -4.453125 1.953125 -4.234375 C 1.796875 -4.046875 1.691406 -3.859375 1.640625 -3.671875 C 1.597656 -3.484375 1.578125 -3.207031 1.578125 -2.84375 L 1.578125 0 L 0.671875 0 Z M 2.8125 -5.578125 Z M 2.8125 -5.578125 "/>
</g>
<g id="glyph-0-24">
<path d="M 2.765625 -5.59375 C 3.378906 -5.59375 3.878906 -5.441406 4.265625 -5.140625 C 4.648438 -4.847656 4.878906 -4.335938 4.953125 -3.609375 L 4.0625 -3.609375 C 4.007812 -3.941406 3.882812 -4.21875 3.6875 -4.4375 C 3.5 -4.664062 3.191406 -4.78125 2.765625 -4.78125 C 2.179688 -4.78125 1.765625 -4.492188 1.515625 -3.921875 C 1.359375 -3.554688 1.28125 -3.101562 1.28125 -2.5625 C 1.28125 -2.019531 1.394531 -1.5625 1.625 -1.1875 C 1.851562 -0.8125 2.210938 -0.625 2.703125 -0.625 C 3.085938 -0.625 3.390625 -0.738281 3.609375 -0.96875 C 3.828125 -1.207031 3.976562 -1.523438 4.0625 -1.921875 L 4.953125 -1.921875 C 4.859375 -1.203125 4.609375 -0.675781 4.203125 -0.34375 C 3.796875 -0.0078125 3.273438 0.15625 2.640625 0.15625 C 1.921875 0.15625 1.347656 -0.101562 0.921875 -0.625 C 0.503906 -1.144531 0.296875 -1.796875 0.296875 -2.578125 C 0.296875 -3.523438 0.523438 -4.265625 0.984375 -4.796875 C 1.453125 -5.328125 2.046875 -5.59375 2.765625 -5.59375 Z M 2.625 -5.578125 Z M 2.625 -5.578125 "/>
</g>
<g id="glyph-0-25">
<path d="M 0.859375 -6.96875 L 1.78125 -6.96875 L 1.78125 -5.4375 L 2.640625 -5.4375 L 2.640625 -4.6875 L 1.78125 -4.6875 L 1.78125 -1.140625 C 1.78125 -0.953125 1.84375 -0.828125 1.96875 -0.765625 C 2.039062 -0.722656 2.160156 -0.703125 2.328125 -0.703125 C 2.367188 -0.703125 2.414062 -0.703125 2.46875 -0.703125 C 2.519531 -0.710938 2.578125 -0.71875 2.640625 -0.71875 L 2.640625 0 C 2.535156 0.03125 2.425781 0.0507812 2.3125 0.0625 C 2.207031 0.0820312 2.085938 0.09375 1.953125 0.09375 C 1.523438 0.09375 1.234375 -0.015625 1.078125 -0.234375 C 0.929688 -0.453125 0.859375 -0.738281 0.859375 -1.09375 L 0.859375 -4.6875 L 0.109375 -4.6875 L 0.109375 -5.4375 L 0.859375 -5.4375 Z M 0.859375 -6.96875 "/>
</g>
<g id="glyph-0-26">
<path d="M 0.90625 -6.265625 C 0.914062 -6.648438 0.976562 -6.929688 1.09375 -7.109375 C 1.3125 -7.421875 1.722656 -7.578125 2.328125 -7.578125 C 2.390625 -7.578125 2.453125 -7.570312 2.515625 -7.5625 C 2.578125 -7.5625 2.644531 -7.554688 2.71875 -7.546875 L 2.71875 -6.71875 C 2.625 -6.726562 2.554688 -6.734375 2.515625 -6.734375 C 2.472656 -6.734375 2.429688 -6.734375 2.390625 -6.734375 C 2.117188 -6.734375 1.953125 -6.660156 1.890625 -6.515625 C 1.835938 -6.367188 1.8125 -6.003906 1.8125 -5.421875 L 2.71875 -5.421875 L 2.71875 -4.6875 L 1.796875 -4.6875 L 1.796875 0 L 0.90625 0 L 0.90625 -4.6875 L 0.140625 -4.6875 L 0.140625 -5.421875 L 0.90625 -5.421875 Z M 0.90625 -6.265625 "/>
</g>
<g id="glyph-0-27">
<path d="M 1.453125 -2.40625 C 1.472656 -1.976562 1.570312 -1.632812 1.75 -1.375 C 2.082031 -0.882812 2.675781 -0.640625 3.53125 -0.640625 C 3.90625 -0.640625 4.25 -0.691406 4.5625 -0.796875 C 5.164062 -1.003906 5.46875 -1.378906 5.46875 -1.921875 C 5.46875 -2.328125 5.34375 -2.617188 5.09375 -2.796875 C 4.832031 -2.960938 4.425781 -3.109375 3.875 -3.234375 L 2.859375 -3.46875 C 2.203125 -3.613281 1.738281 -3.773438 1.46875 -3.953125 C 0.988281 -4.265625 0.75 -4.734375 0.75 -5.359375 C 0.75 -6.023438 0.976562 -6.570312 1.4375 -7 C 1.90625 -7.4375 2.566406 -7.65625 3.421875 -7.65625 C 4.203125 -7.65625 4.863281 -7.460938 5.40625 -7.078125 C 5.957031 -6.703125 6.234375 -6.101562 6.234375 -5.28125 L 5.28125 -5.28125 C 5.226562 -5.675781 5.117188 -5.976562 4.953125 -6.1875 C 4.648438 -6.582031 4.128906 -6.78125 3.390625 -6.78125 C 2.796875 -6.78125 2.367188 -6.65625 2.109375 -6.40625 C 1.847656 -6.15625 1.71875 -5.863281 1.71875 -5.53125 C 1.71875 -5.164062 1.867188 -4.894531 2.171875 -4.71875 C 2.367188 -4.613281 2.820312 -4.476562 3.53125 -4.3125 L 4.578125 -4.078125 C 5.078125 -3.960938 5.460938 -3.804688 5.734375 -3.609375 C 6.210938 -3.253906 6.453125 -2.75 6.453125 -2.09375 C 6.453125 -1.257812 6.148438 -0.664062 5.546875 -0.3125 C 4.953125 0.0390625 4.253906 0.21875 3.453125 0.21875 C 2.523438 0.21875 1.800781 -0.0195312 1.28125 -0.5 C 0.75 -0.96875 0.488281 -1.601562 0.5 -2.40625 Z M 3.5 -7.671875 Z M 3.5 -7.671875 "/>
</g>
<g id="glyph-0-28">
<path d="M 1.578125 -5.4375 L 1.578125 -1.828125 C 1.578125 -1.546875 1.625 -1.316406 1.71875 -1.140625 C 1.882812 -0.816406 2.1875 -0.65625 2.625 -0.65625 C 3.257812 -0.65625 3.691406 -0.941406 3.921875 -1.515625 C 4.046875 -1.816406 4.109375 -2.234375 4.109375 -2.765625 L 4.109375 -5.4375 L 5.03125 -5.4375 L 5.03125 0 L 4.171875 0 L 4.171875 -0.796875 C 4.054688 -0.597656 3.910156 -0.425781 3.734375 -0.28125 C 3.390625 0 2.96875 0.140625 2.46875 0.140625 C 1.6875 0.140625 1.15625 -0.113281 0.875 -0.625 C 0.726562 -0.90625 0.65625 -1.28125 0.65625 -1.75 L 0.65625 -5.4375 Z M 2.84375 -5.578125 Z M 2.84375 -5.578125 "/>
</g>
<g id="glyph-0-29">
<path d="M 0.703125 -5.4375 L 1.5625 -5.4375 L 1.5625 -4.5 C 1.632812 -4.6875 1.804688 -4.910156 2.078125 -5.171875 C 2.359375 -5.429688 2.679688 -5.5625 3.046875 -5.5625 C 3.066406 -5.5625 3.097656 -5.554688 3.140625 -5.546875 C 3.179688 -5.546875 3.25 -5.539062 3.34375 -5.53125 L 3.34375 -4.578125 C 3.289062 -4.585938 3.238281 -4.59375 3.1875 -4.59375 C 3.144531 -4.59375 3.097656 -4.59375 3.046875 -4.59375 C 2.585938 -4.59375 2.234375 -4.441406 1.984375 -4.140625 C 1.734375 -3.847656 1.609375 -3.507812 1.609375 -3.125 L 1.609375 0 L 0.703125 0 Z M 0.703125 -5.4375 "/>
</g>
<g id="glyph-0-30">
<path d="M 1.15625 -5.375 L 2.21875 -5.375 L 2.21875 -4.265625 L 1.15625 -4.265625 Z M 1.15625 -1.109375 L 2.21875 -1.109375 L 2.21875 0 L 1.15625 0 Z M 1.15625 -1.109375 "/>
</g>
<g id="glyph-0-31">
<path d="M 0.796875 -7.46875 L 1.984375 -7.46875 L 5.75 -1.421875 L 5.75 -7.46875 L 6.71875 -7.46875 L 6.71875 0 L 5.578125 0 L 1.765625 -6.046875 L 1.765625 0 L 0.796875 0 Z M 3.6875 -7.46875 Z M 3.6875 -7.46875 "/>
</g>
<g id="glyph-0-32">
<path d="M 0.859375 1.0625 C 1.097656 1.019531 1.265625 0.851562 1.359375 0.5625 C 1.410156 0.414062 1.4375 0.269531 1.4375 0.125 C 1.4375 0.101562 1.429688 0.0820312 1.421875 0.0625 C 1.421875 0.0390625 1.421875 0.0195312 1.421875 0 L 0.859375 0 L 0.859375 -1.109375 L 1.953125 -1.109375 L 1.953125 -0.078125 C 1.953125 0.316406 1.867188 0.664062 1.703125 0.96875 C 1.546875 1.28125 1.265625 1.472656 0.859375 1.546875 Z M 0.859375 1.0625 "/>
</g>
<g id="glyph-0-33">
<path d="M 4.265625 -4.046875 C 4.734375 -4.046875 5.101562 -4.140625 5.375 -4.328125 C 5.65625 -4.515625 5.796875 -4.859375 5.796875 -5.359375 C 5.796875 -5.890625 5.601562 -6.25 5.21875 -6.4375 C 5.007812 -6.539062 4.734375 -6.59375 4.390625 -6.59375 L 1.921875 -6.59375 L 1.921875 -4.046875 Z M 0.921875 -7.46875 L 4.375 -7.46875 C 4.9375 -7.46875 5.40625 -7.382812 5.78125 -7.21875 C 6.476562 -6.894531 6.828125 -6.304688 6.828125 -5.453125 C 6.828125 -5.003906 6.734375 -4.632812 6.546875 -4.34375 C 6.367188 -4.0625 6.113281 -3.835938 5.78125 -3.671875 C 6.070312 -3.546875 6.289062 -3.382812 6.4375 -3.1875 C 6.582031 -3 6.664062 -2.691406 6.6875 -2.265625 L 6.71875 -1.265625 C 6.726562 -0.972656 6.75 -0.757812 6.78125 -0.625 C 6.84375 -0.382812 6.953125 -0.234375 7.109375 -0.171875 L 7.109375 0 L 5.875 0 C 5.84375 -0.0625 5.816406 -0.144531 5.796875 -0.25 C 5.773438 -0.351562 5.753906 -0.550781 5.734375 -0.84375 L 5.6875 -2.078125 C 5.65625 -2.566406 5.472656 -2.894531 5.140625 -3.0625 C 4.941406 -3.15625 4.640625 -3.203125 4.234375 -3.203125 L 1.921875 -3.203125 L 1.921875 0 L 0.921875 0 Z M 0.921875 -7.46875 "/>
</g>
<g id="glyph-0-34">
<path d="M 0.890625 -7.46875 L 6.0625 -7.46875 L 6.0625 -6.546875 L 1.90625 -6.546875 L 1.90625 -4.28125 L 5.5625 -4.28125 L 5.5625 -3.390625 L 1.90625 -3.390625 L 1.90625 0 L 0.890625 0 Z M 0.890625 -7.46875 "/>
</g>
<g id="glyph-0-35">
<path d="M 0.4375 -3.375 L 2.984375 -3.375 L 2.984375 -2.421875 L 0.4375 -2.421875 Z M 0.4375 -3.375 "/>
</g>
<g id="glyph-0-36">
<path d="M 1.21875 -1.703125 C 1.238281 -1.398438 1.3125 -1.164062 1.4375 -1 C 1.664062 -0.707031 2.066406 -0.5625 2.640625 -0.5625 C 2.984375 -0.5625 3.28125 -0.632812 3.53125 -0.78125 C 3.789062 -0.925781 3.921875 -1.15625 3.921875 -1.46875 C 3.921875 -1.695312 3.816406 -1.875 3.609375 -2 C 3.484375 -2.070312 3.222656 -2.160156 2.828125 -2.265625 L 2.109375 -2.4375 C 1.640625 -2.550781 1.296875 -2.679688 1.078125 -2.828125 C 0.679688 -3.078125 0.484375 -3.421875 0.484375 -3.859375 C 0.484375 -4.367188 0.664062 -4.78125 1.03125 -5.09375 C 1.40625 -5.414062 1.910156 -5.578125 2.546875 -5.578125 C 3.359375 -5.578125 3.945312 -5.335938 4.3125 -4.859375 C 4.539062 -4.554688 4.648438 -4.226562 4.640625 -3.875 L 3.78125 -3.875 C 3.757812 -4.082031 3.6875 -4.269531 3.5625 -4.4375 C 3.351562 -4.675781 2.988281 -4.796875 2.46875 -4.796875 C 2.125 -4.796875 1.863281 -4.726562 1.6875 -4.59375 C 1.507812 -4.46875 1.421875 -4.296875 1.421875 -4.078125 C 1.421875 -3.835938 1.535156 -3.648438 1.765625 -3.515625 C 1.898438 -3.429688 2.101562 -3.351562 2.375 -3.28125 L 2.96875 -3.140625 C 3.625 -2.984375 4.066406 -2.828125 4.296875 -2.671875 C 4.648438 -2.441406 4.828125 -2.078125 4.828125 -1.578125 C 4.828125 -1.085938 4.640625 -0.664062 4.265625 -0.3125 C 3.898438 0.0273438 3.34375 0.203125 2.59375 0.203125 C 1.78125 0.203125 1.207031 0.0195312 0.875 -0.34375 C 0.539062 -0.707031 0.359375 -1.160156 0.328125 -1.703125 Z M 2.5625 -5.578125 Z M 2.5625 -5.578125 "/>
</g>
<g id="glyph-0-37">
<path d="M 4.015625 -7.671875 C 5.328125 -7.671875 6.300781 -7.242188 6.9375 -6.390625 C 7.4375 -5.734375 7.6875 -4.890625 7.6875 -3.859375 C 7.6875 -2.742188 7.398438 -1.816406 6.828125 -1.078125 C 6.171875 -0.210938 5.226562 0.21875 4 0.21875 C 2.84375 0.21875 1.9375 -0.160156 1.28125 -0.921875 C 0.695312 -1.648438 0.40625 -2.570312 0.40625 -3.6875 C 0.40625 -4.695312 0.65625 -5.5625 1.15625 -6.28125 C 1.800781 -7.207031 2.753906 -7.671875 4.015625 -7.671875 Z M 4.109375 -0.6875 C 5.003906 -0.6875 5.648438 -1.003906 6.046875 -1.640625 C 6.441406 -2.285156 6.640625 -3.019531 6.640625 -3.84375 C 6.640625 -4.71875 6.410156 -5.421875 5.953125 -5.953125 C 5.492188 -6.492188 4.867188 -6.765625 4.078125 -6.765625 C 3.304688 -6.765625 2.675781 -6.5 2.1875 -5.96875 C 1.695312 -5.4375 1.453125 -4.65625 1.453125 -3.625 C 1.453125 -2.800781 1.660156 -2.101562 2.078125 -1.53125 C 2.492188 -0.96875 3.171875 -0.6875 4.109375 -0.6875 Z M 4.046875 -7.671875 Z M 4.046875 -7.671875 "/>
</g>
<g id="glyph-0-38">
<path d="M 0.890625 -1.109375 L 1.953125 -1.109375 L 1.953125 0 L 0.890625 0 Z M 0.890625 -1.109375 "/>
</g>
<g id="glyph-0-39">
<path d="M 1.265625 -2.640625 C 1.265625 -2.171875 1.328125 -1.78125 1.453125 -1.46875 C 1.691406 -0.894531 2.113281 -0.609375 2.71875 -0.609375 C 3.351562 -0.609375 3.789062 -0.910156 4.03125 -1.515625 C 4.164062 -1.835938 4.234375 -2.253906 4.234375 -2.765625 C 4.234375 -3.234375 4.160156 -3.628906 4.015625 -3.953125 C 3.765625 -4.484375 3.328125 -4.75 2.703125 -4.75 C 2.304688 -4.75 1.96875 -4.578125 1.6875 -4.234375 C 1.40625 -3.890625 1.265625 -3.359375 1.265625 -2.640625 Z M 2.609375 -5.5625 C 3.054688 -5.5625 3.4375 -5.445312 3.75 -5.21875 C 3.914062 -5.101562 4.078125 -4.925781 4.234375 -4.6875 L 4.234375 -5.4375 L 5.109375 -5.4375 L 5.109375 2.171875 L 4.1875 2.171875 L 4.1875 -0.625 C 4.03125 -0.382812 3.816406 -0.191406 3.546875 -0.046875 C 3.285156 0.0976562 2.953125 0.171875 2.546875 0.171875 C 1.960938 0.171875 1.441406 -0.0507812 0.984375 -0.5 C 0.535156 -0.957031 0.3125 -1.648438 0.3125 -2.578125 C 0.3125 -3.453125 0.523438 -4.164062 0.953125 -4.71875 C 1.378906 -5.28125 1.929688 -5.5625 2.609375 -5.5625 Z M 2.609375 -5.5625 "/>
</g>
<g id="glyph-0-40">
<path d="M 3.046875 -7.3125 C 3.859375 -7.3125 4.421875 -7.097656 4.734375 -6.671875 C 5.054688 -6.253906 5.21875 -5.820312 5.21875 -5.375 L 4.3125 -5.375 C 4.257812 -5.65625 4.175781 -5.878906 4.0625 -6.046875 C 3.84375 -6.347656 3.507812 -6.5 3.0625 -6.5 C 2.550781 -6.5 2.144531 -6.265625 1.84375 -5.796875 C 1.539062 -5.328125 1.375 -4.648438 1.34375 -3.765625 C 1.550781 -4.078125 1.8125 -4.304688 2.125 -4.453125 C 2.414062 -4.585938 2.742188 -4.65625 3.109375 -4.65625 C 3.710938 -4.65625 4.238281 -4.457031 4.6875 -4.0625 C 5.144531 -3.675781 5.375 -3.097656 5.375 -2.328125 C 5.375 -1.671875 5.160156 -1.085938 4.734375 -0.578125 C 4.304688 -0.0664062 3.691406 0.1875 2.890625 0.1875 C 2.210938 0.1875 1.625 -0.0664062 1.125 -0.578125 C 0.632812 -1.097656 0.390625 -1.972656 0.390625 -3.203125 C 0.390625 -4.097656 0.5 -4.863281 0.71875 -5.5 C 1.144531 -6.707031 1.921875 -7.3125 3.046875 -7.3125 Z M 2.984375 -0.625 C 3.460938 -0.625 3.820312 -0.785156 4.0625 -1.109375 C 4.300781 -1.429688 4.421875 -1.8125 4.421875 -2.25 C 4.421875 -2.625 4.3125 -2.976562 4.09375 -3.3125 C 3.882812 -3.65625 3.5 -3.828125 2.9375 -3.828125 C 2.539062 -3.828125 2.191406 -3.695312 1.890625 -3.4375 C 1.597656 -3.175781 1.453125 -2.78125 1.453125 -2.25 C 1.453125 -1.789062 1.585938 -1.40625 1.859375 -1.09375 C 2.128906 -0.78125 2.503906 -0.625 2.984375 -0.625 Z M 2.984375 -0.625 "/>
</g>
<g id="glyph-0-41">
<path d="M 1.25 -2.65625 C 1.25 -2.070312 1.367188 -1.582031 1.609375 -1.1875 C 1.859375 -0.800781 2.257812 -0.609375 2.8125 -0.609375 C 3.226562 -0.609375 3.570312 -0.789062 3.84375 -1.15625 C 4.125 -1.519531 4.265625 -2.039062 4.265625 -2.71875 C 4.265625 -3.40625 4.125 -3.910156 3.84375 -4.234375 C 3.5625 -4.566406 3.210938 -4.734375 2.796875 -4.734375 C 2.335938 -4.734375 1.960938 -4.554688 1.671875 -4.203125 C 1.390625 -3.859375 1.25 -3.34375 1.25 -2.65625 Z M 2.625 -5.53125 C 3.039062 -5.53125 3.390625 -5.445312 3.671875 -5.28125 C 3.835938 -5.175781 4.023438 -4.992188 4.234375 -4.734375 L 4.234375 -7.484375 L 5.109375 -7.484375 L 5.109375 0 L 4.28125 0 L 4.28125 -0.75 C 4.070312 -0.414062 3.820312 -0.175781 3.53125 -0.03125 C 3.238281 0.113281 2.90625 0.1875 2.53125 0.1875 C 1.914062 0.1875 1.382812 -0.0664062 0.9375 -0.578125 C 0.5 -1.085938 0.28125 -1.765625 0.28125 -2.609375 C 0.28125 -3.398438 0.484375 -4.082031 0.890625 -4.65625 C 1.296875 -5.238281 1.875 -5.53125 2.625 -5.53125 Z M 2.625 -5.53125 "/>
</g>
<g id="glyph-1-0">
<path d="M 0 -0.421875 L -9.328125 -0.421875 L -9.328125 -7.828125 L 0 -7.828125 Z M -1.171875 -6.65625 L -8.15625 -6.65625 L -8.15625 -1.59375 L -1.171875 -1.59375 Z M -1.171875 -6.65625 "/>
</g>
<g id="glyph-1-1">
<path d="M -9.328125 -7.78125 L -8.21875 -7.78125 L -8.21875 -4.640625 L 0 -4.640625 L 0 -3.359375 L -8.21875 -3.359375 L -8.21875 -0.203125 L -9.328125 -0.203125 Z M -9.328125 -7.78125 "/>
</g>
<g id="glyph-1-2">
<path d="M -1.8125 -1.71875 C -1.476562 -1.71875 -1.21875 -1.835938 -1.03125 -2.078125 C -0.84375 -2.316406 -0.75 -2.601562 -0.75 -2.9375 C -0.75 -3.332031 -0.835938 -3.71875 -1.015625 -4.09375 C -1.328125 -4.726562 -1.835938 -5.046875 -2.546875 -5.046875 L -3.453125 -5.046875 C -3.367188 -4.910156 -3.296875 -4.734375 -3.234375 -4.515625 C -3.179688 -4.296875 -3.140625 -4.078125 -3.109375 -3.859375 L -3.015625 -3.171875 C -2.960938 -2.753906 -2.878906 -2.441406 -2.765625 -2.234375 C -2.566406 -1.890625 -2.25 -1.71875 -1.8125 -1.71875 Z M -4.125 -4.484375 C -4.15625 -4.742188 -4.265625 -4.921875 -4.453125 -5.015625 C -4.554688 -5.054688 -4.703125 -5.078125 -4.890625 -5.078125 C -5.273438 -5.078125 -5.554688 -4.9375 -5.734375 -4.65625 C -5.910156 -4.382812 -6 -3.992188 -6 -3.484375 C -6 -2.878906 -5.835938 -2.453125 -5.515625 -2.203125 C -5.335938 -2.066406 -5.070312 -1.976562 -4.71875 -1.9375 L -4.71875 -0.875 C -5.5625 -0.894531 -6.144531 -1.164062 -6.46875 -1.6875 C -6.800781 -2.207031 -6.96875 -2.8125 -6.96875 -3.5 C -6.96875 -4.300781 -6.8125 -4.953125 -6.5 -5.453125 C -6.195312 -5.953125 -5.722656 -6.203125 -5.078125 -6.203125 L -1.171875 -6.203125 C -1.046875 -6.203125 -0.945312 -6.222656 -0.875 -6.265625 C -0.8125 -6.316406 -0.78125 -6.421875 -0.78125 -6.578125 C -0.78125 -6.628906 -0.78125 -6.6875 -0.78125 -6.75 C -0.789062 -6.8125 -0.800781 -6.878906 -0.8125 -6.953125 L 0.03125 -6.953125 C 0.0820312 -6.773438 0.113281 -6.640625 0.125 -6.546875 C 0.132812 -6.453125 0.140625 -6.320312 0.140625 -6.15625 C 0.140625 -5.769531 0.00390625 -5.488281 -0.265625 -5.3125 C -0.421875 -5.21875 -0.632812 -5.148438 -0.90625 -5.109375 C -0.59375 -4.878906 -0.320312 -4.546875 -0.09375 -4.109375 C 0.121094 -3.671875 0.234375 -3.191406 0.234375 -2.671875 C 0.234375 -2.035156 0.0390625 -1.515625 -0.34375 -1.109375 C -0.726562 -0.710938 -1.207031 -0.515625 -1.78125 -0.515625 C -2.414062 -0.515625 -2.90625 -0.710938 -3.25 -1.109375 C -3.59375 -1.503906 -3.804688 -2.019531 -3.890625 -2.65625 Z M -6.96875 -3.53125 Z M -6.96875 -3.53125 "/>
</g>
<g id="glyph-1-3">
<path d="M -6.796875 -1.984375 L -2.28125 -1.984375 C -1.9375 -1.984375 -1.65625 -2.035156 -1.4375 -2.140625 C -1.03125 -2.347656 -0.828125 -2.726562 -0.828125 -3.28125 C -0.828125 -4.070312 -1.179688 -4.613281 -1.890625 -4.90625 C -2.273438 -5.0625 -2.796875 -5.140625 -3.453125 -5.140625 L -6.796875 -5.140625 L -6.796875 -6.28125 L 0 -6.28125 L 0 -5.203125 L -1 -5.21875 C -0.738281 -5.070312 -0.519531 -4.890625 -0.34375 -4.671875 C 0.0078125 -4.234375 0.1875 -3.703125 0.1875 -3.078125 C 0.1875 -2.109375 -0.132812 -1.445312 -0.78125 -1.09375 C -1.132812 -0.90625 -1.597656 -0.8125 -2.171875 -0.8125 L -6.796875 -0.8125 Z M -6.96875 -3.546875 Z M -6.96875 -3.546875 "/>
</g>
<g id="glyph-1-4">
<path d="M -6.796875 -0.1875 L -6.796875 -1.671875 L -4.40625 -3.234375 L -6.796875 -4.8125 L -6.765625 -6.203125 L -3.484375 -3.90625 L 0 -6.296875 L 0 -4.84375 L -2.546875 -3.15625 L 0 -1.515625 L 0 -0.0625 L -3.484375 -2.46875 Z M -6.796875 -0.1875 "/>
</g>
<g id="glyph-1-5">
</g>
<g id="glyph-1-6">
<path d="M -3.3125 -1.5625 C -2.59375 -1.5625 -1.984375 -1.710938 -1.484375 -2.015625 C -0.992188 -2.328125 -0.75 -2.828125 -0.75 -3.515625 C -0.75 -4.035156 -0.976562 -4.46875 -1.4375 -4.8125 C -1.894531 -5.15625 -2.546875 -5.328125 -3.390625 -5.328125 C -4.253906 -5.328125 -4.890625 -5.148438 -5.296875 -4.796875 C -5.710938 -4.441406 -5.921875 -4.007812 -5.921875 -3.5 C -5.921875 -2.925781 -5.703125 -2.457031 -5.265625 -2.09375 C -4.828125 -1.738281 -4.175781 -1.5625 -3.3125 -1.5625 Z M -6.921875 -3.28125 C -6.921875 -3.800781 -6.8125 -4.238281 -6.59375 -4.59375 C -6.46875 -4.789062 -6.242188 -5.019531 -5.921875 -5.28125 L -9.359375 -5.28125 L -9.359375 -6.375 L 0 -6.375 L 0 -5.34375 L -0.953125 -5.34375 C -0.523438 -5.082031 -0.21875 -4.769531 -0.03125 -4.40625 C 0.144531 -4.039062 0.234375 -3.625 0.234375 -3.15625 C 0.234375 -2.394531 -0.0820312 -1.738281 -0.71875 -1.1875 C -1.351562 -0.632812 -2.195312 -0.359375 -3.25 -0.359375 C -4.238281 -0.359375 -5.097656 -0.609375 -5.828125 -1.109375 C -6.554688 -1.617188 -6.921875 -2.34375 -6.921875 -3.28125 Z M -6.921875 -3.28125 "/>
</g>
<g id="glyph-1-7">
<path d="M -6.953125 -3.671875 C -6.953125 -4.148438 -6.835938 -4.613281 -6.609375 -5.0625 C -6.378906 -5.519531 -6.085938 -5.867188 -5.734375 -6.109375 C -5.390625 -6.335938 -4.988281 -6.488281 -4.53125 -6.5625 C -4.21875 -6.632812 -3.71875 -6.671875 -3.03125 -6.671875 L -3.03125 -1.6875 C -2.34375 -1.707031 -1.789062 -1.867188 -1.375 -2.171875 C -0.957031 -2.472656 -0.75 -2.945312 -0.75 -3.59375 C -0.75 -4.1875 -0.945312 -4.660156 -1.34375 -5.015625 C -1.570312 -5.210938 -1.835938 -5.359375 -2.140625 -5.453125 L -2.140625 -6.5625 C -1.890625 -6.539062 -1.609375 -6.445312 -1.296875 -6.28125 C -0.992188 -6.113281 -0.742188 -5.925781 -0.546875 -5.71875 C -0.203125 -5.363281 0.0234375 -4.929688 0.140625 -4.421875 C 0.203125 -4.148438 0.234375 -3.835938 0.234375 -3.484375 C 0.234375 -2.640625 -0.0703125 -1.921875 -0.6875 -1.328125 C -1.300781 -0.742188 -2.160156 -0.453125 -3.265625 -0.453125 C -4.359375 -0.453125 -5.242188 -0.75 -5.921875 -1.34375 C -6.609375 -1.9375 -6.953125 -2.710938 -6.953125 -3.671875 Z M -3.9375 -5.484375 C -4.4375 -5.441406 -4.832031 -5.335938 -5.125 -5.171875 C -5.675781 -4.859375 -5.953125 -4.332031 -5.953125 -3.59375 C -5.953125 -3.070312 -5.757812 -2.632812 -5.375 -2.28125 C -5 -1.925781 -4.519531 -1.738281 -3.9375 -1.71875 Z M -6.96875 -3.5625 Z M -6.96875 -3.5625 "/>
</g>
<g id="glyph-1-8">
<path d="M -0.765625 -3.703125 C -0.765625 -4.234375 -0.988281 -4.675781 -1.4375 -5.03125 C -1.882812 -5.382812 -2.550781 -5.5625 -3.4375 -5.5625 C -3.976562 -5.5625 -4.445312 -5.484375 -4.84375 -5.328125 C -5.582031 -5.035156 -5.953125 -4.492188 -5.953125 -3.703125 C -5.953125 -2.910156 -5.5625 -2.367188 -4.78125 -2.078125 C -4.351562 -1.921875 -3.8125 -1.84375 -3.15625 -1.84375 C -2.632812 -1.84375 -2.191406 -1.921875 -1.828125 -2.078125 C -1.117188 -2.378906 -0.765625 -2.921875 -0.765625 -3.703125 Z M -6.765625 -0.75 L -6.765625 -1.859375 L -5.859375 -1.859375 C -6.171875 -2.085938 -6.410156 -2.335938 -6.578125 -2.609375 C -6.835938 -2.992188 -6.96875 -3.445312 -6.96875 -3.96875 C -6.96875 -4.738281 -6.671875 -5.390625 -6.078125 -5.921875 C -5.484375 -6.460938 -4.640625 -6.734375 -3.546875 -6.734375 C -2.066406 -6.734375 -1.007812 -6.347656 -0.375 -5.578125 C 0.0273438 -5.085938 0.234375 -4.515625 0.234375 -3.859375 C 0.234375 -3.347656 0.117188 -2.921875 -0.109375 -2.578125 C -0.234375 -2.367188 -0.453125 -2.140625 -0.765625 -1.890625 L 2.703125 -1.890625 L 2.703125 -0.75 Z M -6.765625 -0.75 "/>
</g>
<g id="glyph-1-9">
<path d="M -6.796875 -1.390625 L -1.265625 -3.21875 L -6.796875 -5.109375 L -6.796875 -6.359375 L 0 -3.796875 L 0 -2.578125 L -6.796875 -0.0625 Z M -6.796875 -1.390625 "/>
</g>
<g id="glyph-1-10">
<path d="M -6.796875 -0.875 L -6.796875 -1.953125 L -5.625 -1.953125 C -5.851562 -2.046875 -6.128906 -2.265625 -6.453125 -2.609375 C -6.785156 -2.953125 -6.953125 -3.351562 -6.953125 -3.8125 C -6.953125 -3.832031 -6.945312 -3.867188 -6.9375 -3.921875 C -6.9375 -3.972656 -6.929688 -4.054688 -6.921875 -4.171875 L -5.71875 -4.171875 C -5.726562 -4.109375 -5.734375 -4.046875 -5.734375 -3.984375 C -5.742188 -3.929688 -5.75 -3.867188 -5.75 -3.796875 C -5.75 -3.222656 -5.5625 -2.78125 -5.1875 -2.46875 C -4.820312 -2.164062 -4.394531 -2.015625 -3.90625 -2.015625 L 0 -2.015625 L 0 -0.875 Z M -6.796875 -0.875 "/>
</g>
<g id="glyph-1-11">
<path d="M -8.703125 -1.0625 L -8.703125 -2.21875 L -6.796875 -2.21875 L -6.796875 -3.3125 L -5.859375 -3.3125 L -5.859375 -2.21875 L -1.421875 -2.21875 C -1.191406 -2.21875 -1.035156 -2.300781 -0.953125 -2.46875 C -0.898438 -2.550781 -0.875 -2.695312 -0.875 -2.90625 C -0.875 -2.957031 -0.875 -3.015625 -0.875 -3.078125 C -0.882812 -3.148438 -0.894531 -3.226562 -0.90625 -3.3125 L 0 -3.3125 C 0.0390625 -3.175781 0.0664062 -3.035156 0.078125 -2.890625 C 0.0976562 -2.753906 0.109375 -2.601562 0.109375 -2.4375 C 0.109375 -1.90625 -0.0234375 -1.539062 -0.296875 -1.34375 C -0.578125 -1.15625 -0.929688 -1.0625 -1.359375 -1.0625 L -5.859375 -1.0625 L -5.859375 -0.140625 L -6.796875 -0.140625 L -6.796875 -1.0625 Z M -8.703125 -1.0625 "/>
</g>
<g id="glyph-1-12">
<path d="M -9.484375 -3.84375 C -8.191406 -3.175781 -7.238281 -2.742188 -6.625 -2.546875 C -5.695312 -2.242188 -4.628906 -2.09375 -3.421875 -2.09375 C -2.191406 -2.09375 -1.066406 -2.265625 -0.046875 -2.609375 C 0.578125 -2.828125 1.476562 -3.242188 2.65625 -3.859375 L 2.65625 -3.09375 C 1.6875 -2.476562 1.066406 -2.097656 0.796875 -1.953125 C 0.535156 -1.804688 0.175781 -1.644531 -0.28125 -1.46875 C -0.90625 -1.226562 -1.570312 -1.0625 -2.28125 -0.96875 C -2.65625 -0.925781 -3.007812 -0.90625 -3.34375 -0.90625 C -4.59375 -0.90625 -5.707031 -1.097656 -6.6875 -1.484375 C -7.3125 -1.734375 -8.242188 -2.253906 -9.484375 -3.046875 Z M -9.484375 -3.84375 "/>
</g>
<g id="glyph-1-13">
<path d="M -4.421875 -8.859375 C -4.421875 -9.472656 -4.203125 -9.992188 -3.765625 -10.421875 C -3.335938 -10.859375 -2.816406 -11.078125 -2.203125 -11.078125 C -1.597656 -11.078125 -1.078125 -10.859375 -0.640625 -10.421875 C -0.210938 -9.992188 0 -9.472656 0 -8.859375 C 0 -8.242188 -0.210938 -7.71875 -0.640625 -7.28125 C -1.078125 -6.851562 -1.597656 -6.640625 -2.203125 -6.640625 C -2.816406 -6.640625 -3.335938 -6.851562 -3.765625 -7.28125 C -4.203125 -7.71875 -4.421875 -8.242188 -4.421875 -8.859375 Z M -9.046875 -7.9375 L -9.046875 -8.640625 L 0.234375 -3.5625 L 0.234375 -2.859375 Z M -5.296875 -2.625 C -5.296875 -2.988281 -5.421875 -3.296875 -5.671875 -3.546875 C -5.929688 -3.804688 -6.242188 -3.9375 -6.609375 -3.9375 C -6.960938 -3.9375 -7.265625 -3.804688 -7.515625 -3.546875 C -7.773438 -3.296875 -7.90625 -2.988281 -7.90625 -2.625 C -7.90625 -2.269531 -7.773438 -1.960938 -7.515625 -1.703125 C -7.265625 -1.453125 -6.960938 -1.328125 -6.609375 -1.328125 C -6.242188 -1.328125 -5.929688 -1.453125 -5.671875 -1.703125 C -5.421875 -1.960938 -5.296875 -2.269531 -5.296875 -2.625 Z M -8.8125 -2.625 C -8.8125 -3.238281 -8.59375 -3.757812 -8.15625 -4.1875 C -7.726562 -4.625 -7.210938 -4.84375 -6.609375 -4.84375 C -5.992188 -4.84375 -5.46875 -4.625 -5.03125 -4.1875 C -4.601562 -3.757812 -4.390625 -3.238281 -4.390625 -2.625 C -4.390625 -2.019531 -4.601562 -1.5 -5.03125 -1.0625 C -5.46875 -0.632812 -5.992188 -0.421875 -6.609375 -0.421875 C -7.210938 -0.421875 -7.726562 -0.632812 -8.15625 -1.0625 C -8.59375 -1.5 -8.8125 -2.019531 -8.8125 -2.625 Z M -0.90625 -8.859375 C -0.90625 -9.222656 -1.03125 -9.53125 -1.28125 -9.78125 C -1.539062 -10.039062 -1.847656 -10.171875 -2.203125 -10.171875 C -2.566406 -10.171875 -2.875 -10.039062 -3.125 -9.78125 C -3.382812 -9.53125 -3.515625 -9.222656 -3.515625 -8.859375 C -3.515625 -8.492188 -3.382812 -8.179688 -3.125 -7.921875 C -2.875 -7.671875 -2.566406 -7.546875 -2.203125 -7.546875 C -1.847656 -7.546875 -1.539062 -7.671875 -1.28125 -7.921875 C -1.03125 -8.179688 -0.90625 -8.492188 -0.90625 -8.859375 Z M -0.90625 -8.859375 "/>
</g>
<g id="glyph-1-14">
<path d="M 2.65625 -0.453125 C 1.34375 -1.117188 0.382812 -1.550781 -0.21875 -1.75 C -1.125 -2.050781 -2.191406 -2.203125 -3.421875 -2.203125 C -4.640625 -2.203125 -5.753906 -2.03125 -6.765625 -1.6875 C -7.398438 -1.46875 -8.304688 -1.050781 -9.484375 -0.4375 L -9.484375 -1.203125 C -8.441406 -1.847656 -7.796875 -2.238281 -7.546875 -2.375 C -7.304688 -2.519531 -6.972656 -2.671875 -6.546875 -2.828125 C -6.015625 -3.035156 -5.488281 -3.179688 -4.96875 -3.265625 C -4.457031 -3.347656 -3.960938 -3.390625 -3.484375 -3.390625 C -2.234375 -3.390625 -1.117188 -3.191406 -0.140625 -2.796875 C 0.492188 -2.546875 1.425781 -2.03125 2.65625 -1.25 Z M 2.65625 -0.453125 "/>
</g>
</g>
<clipPath id="clip-0">
<path clip-rule="nonzero" d="M 52.542969 98 L 353.527344 98 L 353.527344 100 L 52.542969 100 Z M 52.542969 98 "/>
</clipPath>
<clipPath id="clip-1">
<path clip-rule="nonzero" d="M 52.542969 72 L 353.527344 72 L 353.527344 74 L 52.542969 74 Z M 52.542969 72 "/>
</clipPath>
<clipPath id="clip-2">
<path clip-rule="nonzero" d="M 52.542969 46 L 353.527344 46 L 353.527344 47 L 52.542969 47 Z M 52.542969 46 "/>
</clipPath>
<clipPath id="clip-3">
<path clip-rule="nonzero" d="M 52.542969 20 L 353.527344 20 L 353.527344 21 L 52.542969 21 Z M 52.542969 20 "/>
</clipPath>
<clipPath id="clip-4">
<path clip-rule="nonzero" d="M 81 6.476562 L 82 6.476562 L 82 123.804688 L 81 123.804688 Z M 81 6.476562 "/>
</clipPath>
<clipPath id="clip-5">
<path clip-rule="nonzero" d="M 111 6.476562 L 113 6.476562 L 113 123.804688 L 111 123.804688 Z M 111 6.476562 "/>
</clipPath>
<clipPath id="clip-6">
<path clip-rule="nonzero" d="M 141 6.476562 L 143 6.476562 L 143 123.804688 L 141 123.804688 Z M 141 6.476562 "/>
</clipPath>
<clipPath id="clip-7">
<path clip-rule="nonzero" d="M 172 6.476562 L 173 6.476562 L 173 123.804688 L 172 123.804688 Z M 172 6.476562 "/>
</clipPath>
<clipPath id="clip-8">
<path clip-rule="nonzero" d="M 202 6.476562 L 204 6.476562 L 204 123.804688 L 202 123.804688 Z M 202 6.476562 "/>
</clipPath>
<clipPath id="clip-9">
<path clip-rule="nonzero" d="M 233 6.476562 L 234 6.476562 L 234 123.804688 L 233 123.804688 Z M 233 6.476562 "/>
</clipPath>
<clipPath id="clip-10">
<path clip-rule="nonzero" d="M 263 6.476562 L 265 6.476562 L 265 123.804688 L 263 123.804688 Z M 263 6.476562 "/>
</clipPath>
<clipPath id="clip-11">
<path clip-rule="nonzero" d="M 293 6.476562 L 295 6.476562 L 295 123.804688 L 293 123.804688 Z M 293 6.476562 "/>
</clipPath>
<clipPath id="clip-12">
<path clip-rule="nonzero" d="M 324 6.476562 L 325 6.476562 L 325 123.804688 L 324 123.804688 Z M 324 6.476562 "/>
</clipPath>
<clipPath id="clip-13">
<path clip-rule="nonzero" d="M 52.542969 111 L 353.527344 111 L 353.527344 113 L 52.542969 113 Z M 52.542969 111 "/>
</clipPath>
<clipPath id="clip-14">
<path clip-rule="nonzero" d="M 52.542969 85 L 353.527344 85 L 353.527344 87 L 52.542969 87 Z M 52.542969 85 "/>
</clipPath>
<clipPath id="clip-15">
<path clip-rule="nonzero" d="M 52.542969 58 L 353.527344 58 L 353.527344 61 L 52.542969 61 Z M 52.542969 58 "/>
</clipPath>
<clipPath id="clip-16">
<path clip-rule="nonzero" d="M 52.542969 32 L 353.527344 32 L 353.527344 35 L 52.542969 35 Z M 52.542969 32 "/>
</clipPath>
<clipPath id="clip-17">
<path clip-rule="nonzero" d="M 52.542969 6.476562 L 353.527344 6.476562 L 353.527344 8 L 52.542969 8 Z M 52.542969 6.476562 "/>
</clipPath>
<clipPath id="clip-18">
<path clip-rule="nonzero" d="M 65 6.476562 L 67 6.476562 L 67 123.804688 L 65 123.804688 Z M 65 6.476562 "/>
</clipPath>
<clipPath id="clip-19">
<path clip-rule="nonzero" d="M 95 6.476562 L 98 6.476562 L 98 123.804688 L 95 123.804688 Z M 95 6.476562 "/>
</clipPath>
<clipPath id="clip-20">
<path clip-rule="nonzero" d="M 126 6.476562 L 128 6.476562 L 128 123.804688 L 126 123.804688 Z M 126 6.476562 "/>
</clipPath>
<clipPath id="clip-21">
<path clip-rule="nonzero" d="M 156 6.476562 L 159 6.476562 L 159 123.804688 L 156 123.804688 Z M 156 6.476562 "/>
</clipPath>
<clipPath id="clip-22">
<path clip-rule="nonzero" d="M 187 6.476562 L 189 6.476562 L 189 123.804688 L 187 123.804688 Z M 187 6.476562 "/>
</clipPath>
<clipPath id="clip-23">
<path clip-rule="nonzero" d="M 217 6.476562 L 219 6.476562 L 219 123.804688 L 217 123.804688 Z M 217 6.476562 "/>
</clipPath>
<clipPath id="clip-24">
<path clip-rule="nonzero" d="M 248 6.476562 L 250 6.476562 L 250 123.804688 L 248 123.804688 Z M 248 6.476562 "/>
</clipPath>
<clipPath id="clip-25">
<path clip-rule="nonzero" d="M 278 6.476562 L 280 6.476562 L 280 123.804688 L 278 123.804688 Z M 278 6.476562 "/>
</clipPath>
<clipPath id="clip-26">
<path clip-rule="nonzero" d="M 308 6.476562 L 311 6.476562 L 311 123.804688 L 308 123.804688 Z M 308 6.476562 "/>
</clipPath>
<clipPath id="clip-27">
<path clip-rule="nonzero" d="M 339 6.476562 L 341 6.476562 L 341 123.804688 L 339 123.804688 Z M 339 6.476562 "/>
</clipPath>
</defs>
<rect x="-36" y="-21.9" width="432" height="262.8" fill="rgb(100%, 100%, 100%)" fill-opacity="1"/>
<rect x="-36" y="-21.9" width="432" height="262.8" fill="rgb(100%, 100%, 100%)" fill-opacity="1"/>
<g clip-path="url(#clip-0)">
<path fill="none" stroke-width="0.630487" stroke-linecap="butt" stroke-linejoin="round" stroke="rgb(92.156863%, 92.156863%, 92.156863%)" stroke-opacity="1" stroke-miterlimit="10" d="M 52.542969 98.859375 L 353.523438 98.859375 "/>
</g>
<g clip-path="url(#clip-1)">
<path fill="none" stroke-width="0.630487" stroke-linecap="butt" stroke-linejoin="round" stroke="rgb(92.156863%, 92.156863%, 92.156863%)" stroke-opacity="1" stroke-miterlimit="10" d="M 52.542969 72.691406 L 353.523438 72.691406 "/>
</g>
<g clip-path="url(#clip-2)">
<path fill="none" stroke-width="0.630487" stroke-linecap="butt" stroke-linejoin="round" stroke="rgb(92.156863%, 92.156863%, 92.156863%)" stroke-opacity="1" stroke-miterlimit="10" d="M 52.542969 46.523438 L 353.523438 46.523438 "/>
</g>
<g clip-path="url(#clip-3)">
<path fill="none" stroke-width="0.630487" stroke-linecap="butt" stroke-linejoin="round" stroke="rgb(92.156863%, 92.156863%, 92.156863%)" stroke-opacity="1" stroke-miterlimit="10" d="M 52.542969 20.355469 L 353.523438 20.355469 "/>
</g>
<g clip-path="url(#clip-4)">
<path fill="none" stroke-width="0.630487" stroke-linecap="butt" stroke-linejoin="round" stroke="rgb(92.156863%, 92.156863%, 92.156863%)" stroke-opacity="1" stroke-miterlimit="10" d="M 81.425781 123.804688 L 81.425781 6.476562 "/>
</g>
<g clip-path="url(#clip-5)">
<path fill="none" stroke-width="0.630487" stroke-linecap="butt" stroke-linejoin="round" stroke="rgb(92.156863%, 92.156863%, 92.156863%)" stroke-opacity="1" stroke-miterlimit="10" d="M 111.824219 123.804688 L 111.824219 6.476562 "/>
</g>
<g clip-path="url(#clip-6)">
<path fill="none" stroke-width="0.630487" stroke-linecap="butt" stroke-linejoin="round" stroke="rgb(92.156863%, 92.156863%, 92.156863%)" stroke-opacity="1" stroke-miterlimit="10" d="M 142.226562 123.804688 L 142.226562 6.476562 "/>
</g>
<g clip-path="url(#clip-7)">
<path fill="none" stroke-width="0.630487" stroke-linecap="butt" stroke-linejoin="round" stroke="rgb(92.156863%, 92.156863%, 92.156863%)" stroke-opacity="1" stroke-miterlimit="10" d="M 172.628906 123.804688 L 172.628906 6.476562 "/>
</g>
<g clip-path="url(#clip-8)">
<path fill="none" stroke-width="0.630487" stroke-linecap="butt" stroke-linejoin="round" stroke="rgb(92.156863%, 92.156863%, 92.156863%)" stroke-opacity="1" stroke-miterlimit="10" d="M 203.03125 123.804688 L 203.03125 6.476562 "/>
</g>
<g clip-path="url(#clip-9)">
<path fill="none" stroke-width="0.630487" stroke-linecap="butt" stroke-linejoin="round" stroke="rgb(92.156863%, 92.156863%, 92.156863%)" stroke-opacity="1" stroke-miterlimit="10" d="M 233.433594 123.804688 L 233.433594 6.476562 "/>
</g>
<g clip-path="url(#clip-10)">
<path fill="none" stroke-width="0.630487" stroke-linecap="butt" stroke-linejoin="round" stroke="rgb(92.156863%, 92.156863%, 92.156863%)" stroke-opacity="1" stroke-miterlimit="10" d="M 263.835938 123.804688 L 263.835938 6.476562 "/>
</g>
<g clip-path="url(#clip-11)">
<path fill="none" stroke-width="0.630487" stroke-linecap="butt" stroke-linejoin="round" stroke="rgb(92.156863%, 92.156863%, 92.156863%)" stroke-opacity="1" stroke-miterlimit="10" d="M 294.238281 123.804688 L 294.238281 6.476562 "/>
</g>
<g clip-path="url(#clip-12)">
<path fill="none" stroke-width="0.630487" stroke-linecap="butt" stroke-linejoin="round" stroke="rgb(92.156863%, 92.156863%, 92.156863%)" stroke-opacity="1" stroke-miterlimit="10" d="M 324.640625 123.804688 L 324.640625 6.476562 "/>
</g>
<g clip-path="url(#clip-13)">
<path fill="none" stroke-width="1.260974" stroke-linecap="butt" stroke-linejoin="round" stroke="rgb(92.156863%, 92.156863%, 92.156863%)" stroke-opacity="1" stroke-miterlimit="10" d="M 52.542969 111.945312 L 353.523438 111.945312 "/>
</g>
<g clip-path="url(#clip-14)">
<path fill="none" stroke-width="1.260974" stroke-linecap="butt" stroke-linejoin="round" stroke="rgb(92.156863%, 92.156863%, 92.156863%)" stroke-opacity="1" stroke-miterlimit="10" d="M 52.542969 85.777344 L 353.523438 85.777344 "/>
</g>
<g clip-path="url(#clip-15)">
<path fill="none" stroke-width="1.260974" stroke-linecap="butt" stroke-linejoin="round" stroke="rgb(92.156863%, 92.156863%, 92.156863%)" stroke-opacity="1" stroke-miterlimit="10" d="M 52.542969 59.609375 L 353.523438 59.609375 "/>
</g>
<g clip-path="url(#clip-16)">
<path fill="none" stroke-width="1.260974" stroke-linecap="butt" stroke-linejoin="round" stroke="rgb(92.156863%, 92.156863%, 92.156863%)" stroke-opacity="1" stroke-miterlimit="10" d="M 52.542969 33.441406 L 353.523438 33.441406 "/>
</g>
<g clip-path="url(#clip-17)">
<path fill="none" stroke-width="1.260974" stroke-linecap="butt" stroke-linejoin="round" stroke="rgb(92.156863%, 92.156863%, 92.156863%)" stroke-opacity="1" stroke-miterlimit="10" d="M 52.542969 7.273438 L 353.523438 7.273438 "/>
</g>
<g clip-path="url(#clip-18)">
<path fill="none" stroke-width="1.260974" stroke-linecap="butt" stroke-linejoin="round" stroke="rgb(92.156863%, 92.156863%, 92.156863%)" stroke-opacity="1" stroke-miterlimit="10" d="M 66.222656 123.804688 L 66.222656 6.476562 "/>
</g>
<g clip-path="url(#clip-19)">
<path fill="none" stroke-width="1.260974" stroke-linecap="butt" stroke-linejoin="round" stroke="rgb(92.156863%, 92.156863%, 92.156863%)" stroke-opacity="1" stroke-miterlimit="10" d="M 96.625 123.804688 L 96.625 6.476562 "/>
</g>
<g clip-path="url(#clip-20)">
<path fill="none" stroke-width="1.260974" stroke-linecap="butt" stroke-linejoin="round" stroke="rgb(92.156863%, 92.156863%, 92.156863%)" stroke-opacity="1" stroke-miterlimit="10" d="M 127.027344 123.804688 L 127.027344 6.476562 "/>
</g>
<g clip-path="url(#clip-21)">
<path fill="none" stroke-width="1.260974" stroke-linecap="butt" stroke-linejoin="round" stroke="rgb(92.156863%, 92.156863%, 92.156863%)" stroke-opacity="1" stroke-miterlimit="10" d="M 157.429688 123.804688 L 157.429688 6.476562 "/>
</g>
<g clip-path="url(#clip-22)">
<path fill="none" stroke-width="1.260974" stroke-linecap="butt" stroke-linejoin="round" stroke="rgb(92.156863%, 92.156863%, 92.156863%)" stroke-opacity="1" stroke-miterlimit="10" d="M 187.832031 123.804688 L 187.832031 6.476562 "/>
</g>
<g clip-path="url(#clip-23)">
<path fill="none" stroke-width="1.260974" stroke-linecap="butt" stroke-linejoin="round" stroke="rgb(92.156863%, 92.156863%, 92.156863%)" stroke-opacity="1" stroke-miterlimit="10" d="M 218.234375 123.804688 L 218.234375 6.476562 "/>
</g>
<g clip-path="url(#clip-24)">
<path fill="none" stroke-width="1.260974" stroke-linecap="butt" stroke-linejoin="round" stroke="rgb(92.156863%, 92.156863%, 92.156863%)" stroke-opacity="1" stroke-miterlimit="10" d="M 248.636719 123.804688 L 248.636719 6.476562 "/>
</g>
<g clip-path="url(#clip-25)">
<path fill="none" stroke-width="1.260974" stroke-linecap="butt" stroke-linejoin="round" stroke="rgb(92.156863%, 92.156863%, 92.156863%)" stroke-opacity="1" stroke-miterlimit="10" d="M 279.039062 123.804688 L 279.039062 6.476562 "/>
</g>
<g clip-path="url(#clip-26)">
<path fill="none" stroke-width="1.260974" stroke-linecap="butt" stroke-linejoin="round" stroke="rgb(92.156863%, 92.156863%, 92.156863%)" stroke-opacity="1" stroke-miterlimit="10" d="M 309.441406 123.804688 L 309.441406 6.476562 "/>
</g>
<g clip-path="url(#clip-27)">
<path fill="none" stroke-width="1.260974" stroke-linecap="butt" stroke-linejoin="round" stroke="rgb(92.156863%, 92.156863%, 92.156863%)" stroke-opacity="1" stroke-miterlimit="10" d="M 339.84375 123.804688 L 339.84375 6.476562 "/>
</g>
<path fill="none" stroke-width="2.774144" stroke-linecap="butt" stroke-linejoin="round" stroke="rgb(12.941176%, 40%, 67.45098%)" stroke-opacity="1" stroke-miterlimit="10" d="M 66.222656 117.238281 L 81.425781 117.578125 L 96.625 116.394531 L 111.824219 118.472656 L 127.027344 117.839844 L 142.226562 116.386719 L 157.429688 115.886719 L 172.628906 117.441406 L 187.832031 117.464844 L 203.03125 118.402344 L 218.234375 116.933594 L 233.433594 118.382812 L 248.636719 116.957031 L 263.835938 116.375 L 279.039062 116.945312 L 294.238281 116.738281 L 309.441406 116.652344 L 324.640625 115.433594 L 339.84375 114.121094 "/>
<path fill="none" stroke-width="2.774144" stroke-linecap="butt" stroke-linejoin="round" stroke="rgb(95.686275%, 64.705882%, 50.980392%)" stroke-opacity="1" stroke-miterlimit="10" d="M 66.222656 24.828125 L 81.425781 33.449219 L 96.625 18.96875 L 111.824219 19.820312 L 127.027344 33.765625 L 142.226562 27.222656 L 157.429688 12.296875 L 172.628906 12.285156 L 187.832031 11.808594 L 203.03125 24.09375 L 218.234375 23.011719 L 233.433594 18.734375 L 248.636719 14.402344 L 263.835938 22.742188 L 279.039062 22.386719 L 294.238281 40.113281 L 309.441406 36.8125 L 324.640625 36.179688 L 339.84375 42.054688 "/>
<path fill="none" stroke-width="2.774144" stroke-linecap="butt" stroke-linejoin="round" stroke="rgb(83.921569%, 37.647059%, 30.196078%)" stroke-opacity="1" stroke-miterlimit="10" d="M 66.222656 87.429688 L 81.425781 82.507812 L 96.625 75 L 111.824219 81.84375 L 127.027344 81.625 L 142.226562 80.226562 L 157.429688 78.125 L 172.628906 78.203125 L 187.832031 78.300781 L 203.03125 74.070312 L 218.234375 76.21875 L 233.433594 73.457031 L 248.636719 77.019531 L 263.835938 67.816406 L 279.039062 73.308594 L 294.238281 74.816406 L 309.441406 62.183594 L 324.640625 72.382812 L 339.84375 62.957031 "/>
<path fill-rule="nonzero" fill="rgb(12.941176%, 40%, 67.45098%)" fill-opacity="1" stroke-width="0.837509" stroke-linecap="round" stroke-linejoin="round" stroke="rgb(12.941176%, 40%, 67.45098%)" stroke-opacity="1" stroke-miterlimit="10" d="M 69.308594 117.238281 C 69.308594 121.351562 63.136719 121.351562 63.136719 117.238281 C 63.136719 113.121094 69.308594 113.121094 69.308594 117.238281 "/>
<path fill-rule="nonzero" fill="rgb(95.686275%, 64.705882%, 50.980392%)" fill-opacity="1" stroke-width="0.837509" stroke-linecap="round" stroke-linejoin="round" stroke="rgb(95.686275%, 64.705882%, 50.980392%)" stroke-opacity="1" stroke-miterlimit="10" d="M 69.308594 24.828125 C 69.308594 28.941406 63.136719 28.941406 63.136719 24.828125 C 63.136719 20.710938 69.308594 20.710938 69.308594 24.828125 "/>
<path fill-rule="nonzero" fill="rgb(83.921569%, 37.647059%, 30.196078%)" fill-opacity="1" stroke-width="0.837509" stroke-linecap="round" stroke-linejoin="round" stroke="rgb(83.921569%, 37.647059%, 30.196078%)" stroke-opacity="1" stroke-miterlimit="10" d="M 69.308594 87.429688 C 69.308594 91.542969 63.136719 91.542969 63.136719 87.429688 C 63.136719 83.3125 69.308594 83.3125 69.308594 87.429688 "/>
<path fill-rule="nonzero" fill="rgb(12.941176%, 40%, 67.45098%)" fill-opacity="1" stroke-width="0.837509" stroke-linecap="round" stroke-linejoin="round" stroke="rgb(12.941176%, 40%, 67.45098%)" stroke-opacity="1" stroke-miterlimit="10" d="M 84.511719 117.578125 C 84.511719 121.691406 78.335938 121.691406 78.335938 117.578125 C 78.335938 113.460938 84.511719 113.460938 84.511719 117.578125 "/>
<path fill-rule="nonzero" fill="rgb(95.686275%, 64.705882%, 50.980392%)" fill-opacity="1" stroke-width="0.837509" stroke-linecap="round" stroke-linejoin="round" stroke="rgb(95.686275%, 64.705882%, 50.980392%)" stroke-opacity="1" stroke-miterlimit="10" d="M 84.511719 33.449219 C 84.511719 37.5625 78.335938 37.5625 78.335938 33.449219 C 78.335938 29.332031 84.511719 29.332031 84.511719 33.449219 "/>
<path fill-rule="nonzero" fill="rgb(83.921569%, 37.647059%, 30.196078%)" fill-opacity="1" stroke-width="0.837509" stroke-linecap="round" stroke-linejoin="round" stroke="rgb(83.921569%, 37.647059%, 30.196078%)" stroke-opacity="1" stroke-miterlimit="10" d="M 84.511719 82.507812 C 84.511719 86.621094 78.335938 86.621094 78.335938 82.507812 C 78.335938 78.390625 84.511719 78.390625 84.511719 82.507812 "/>
<path fill-rule="nonzero" fill="rgb(12.941176%, 40%, 67.45098%)" fill-opacity="1" stroke-width="0.837509" stroke-linecap="round" stroke-linejoin="round" stroke="rgb(12.941176%, 40%, 67.45098%)" stroke-opacity="1" stroke-miterlimit="10" d="M 99.710938 116.394531 C 99.710938 120.507812 93.539062 120.507812 93.539062 116.394531 C 93.539062 112.277344 99.710938 112.277344 99.710938 116.394531 "/>
<path fill-rule="nonzero" fill="rgb(95.686275%, 64.705882%, 50.980392%)" fill-opacity="1" stroke-width="0.837509" stroke-linecap="round" stroke-linejoin="round" stroke="rgb(95.686275%, 64.705882%, 50.980392%)" stroke-opacity="1" stroke-miterlimit="10" d="M 99.710938 18.96875 C 99.710938 23.082031 93.539062 23.082031 93.539062 18.96875 C 93.539062 14.851562 99.710938 14.851562 99.710938 18.96875 "/>
<path fill-rule="nonzero" fill="rgb(83.921569%, 37.647059%, 30.196078%)" fill-opacity="1" stroke-width="0.837509" stroke-linecap="round" stroke-linejoin="round" stroke="rgb(83.921569%, 37.647059%, 30.196078%)" stroke-opacity="1" stroke-miterlimit="10" d="M 99.710938 75 C 99.710938 79.113281 93.539062 79.113281 93.539062 75 C 93.539062 70.882812 99.710938 70.882812 99.710938 75 "/>
<path fill-rule="nonzero" fill="rgb(12.941176%, 40%, 67.45098%)" fill-opacity="1" stroke-width="0.837509" stroke-linecap="round" stroke-linejoin="round" stroke="rgb(12.941176%, 40%, 67.45098%)" stroke-opacity="1" stroke-miterlimit="10" d="M 114.914062 118.472656 C 114.914062 122.585938 108.738281 122.585938 108.738281 118.472656 C 108.738281 114.359375 114.914062 114.359375 114.914062 118.472656 "/>
<path fill-rule="nonzero" fill="rgb(95.686275%, 64.705882%, 50.980392%)" fill-opacity="1" stroke-width="0.837509" stroke-linecap="round" stroke-linejoin="round" stroke="rgb(95.686275%, 64.705882%, 50.980392%)" stroke-opacity="1" stroke-miterlimit="10" d="M 114.914062 19.820312 C 114.914062 23.933594 108.738281 23.933594 108.738281 19.820312 C 108.738281 15.703125 114.914062 15.703125 114.914062 19.820312 "/>
<path fill-rule="nonzero" fill="rgb(83.921569%, 37.647059%, 30.196078%)" fill-opacity="1" stroke-width="0.837509" stroke-linecap="round" stroke-linejoin="round" stroke="rgb(83.921569%, 37.647059%, 30.196078%)" stroke-opacity="1" stroke-miterlimit="10" d="M 114.914062 81.84375 C 114.914062 85.960938 108.738281 85.960938 108.738281 81.84375 C 108.738281 77.730469 114.914062 77.730469 114.914062 81.84375 "/>
<path fill-rule="nonzero" fill="rgb(12.941176%, 40%, 67.45098%)" fill-opacity="1" stroke-width="0.837509" stroke-linecap="round" stroke-linejoin="round" stroke="rgb(12.941176%, 40%, 67.45098%)" stroke-opacity="1" stroke-miterlimit="10" d="M 130.113281 117.839844 C 130.113281 121.953125 123.941406 121.953125 123.941406 117.839844 C 123.941406 113.726562 130.113281 113.726562 130.113281 117.839844 "/>
<path fill-rule="nonzero" fill="rgb(95.686275%, 64.705882%, 50.980392%)" fill-opacity="1" stroke-width="0.837509" stroke-linecap="round" stroke-linejoin="round" stroke="rgb(95.686275%, 64.705882%, 50.980392%)" stroke-opacity="1" stroke-miterlimit="10" d="M 130.113281 33.765625 C 130.113281 37.878906 123.941406 37.878906 123.941406 33.765625 C 123.941406 29.648438 130.113281 29.648438 130.113281 33.765625 "/>
<path fill-rule="nonzero" fill="rgb(83.921569%, 37.647059%, 30.196078%)" fill-opacity="1" stroke-width="0.837509" stroke-linecap="round" stroke-linejoin="round" stroke="rgb(83.921569%, 37.647059%, 30.196078%)" stroke-opacity="1" stroke-miterlimit="10" d="M 130.113281 81.625 C 130.113281 85.742188 123.941406 85.742188 123.941406 81.625 C 123.941406 77.511719 130.113281 77.511719 130.113281 81.625 "/>
<path fill-rule="nonzero" fill="rgb(12.941176%, 40%, 67.45098%)" fill-opacity="1" stroke-width="0.837509" stroke-linecap="round" stroke-linejoin="round" stroke="rgb(12.941176%, 40%, 67.45098%)" stroke-opacity="1" stroke-miterlimit="10" d="M 145.316406 116.386719 C 145.316406 120.5 139.140625 120.5 139.140625 116.386719 C 139.140625 112.269531 145.316406 112.269531 145.316406 116.386719 "/>
<path fill-rule="nonzero" fill="rgb(95.686275%, 64.705882%, 50.980392%)" fill-opacity="1" stroke-width="0.837509" stroke-linecap="round" stroke-linejoin="round" stroke="rgb(95.686275%, 64.705882%, 50.980392%)" stroke-opacity="1" stroke-miterlimit="10" d="M 145.316406 27.222656 C 145.316406 31.339844 139.140625 31.339844 139.140625 27.222656 C 139.140625 23.109375 145.316406 23.109375 145.316406 27.222656 "/>
<path fill-rule="nonzero" fill="rgb(83.921569%, 37.647059%, 30.196078%)" fill-opacity="1" stroke-width="0.837509" stroke-linecap="round" stroke-linejoin="round" stroke="rgb(83.921569%, 37.647059%, 30.196078%)" stroke-opacity="1" stroke-miterlimit="10" d="M 145.316406 80.226562 C 145.316406 84.339844 139.140625 84.339844 139.140625 80.226562 C 139.140625 76.113281 145.316406 76.113281 145.316406 80.226562 "/>
<path fill-rule="nonzero" fill="rgb(12.941176%, 40%, 67.45098%)" fill-opacity="1" stroke-width="0.837509" stroke-linecap="round" stroke-linejoin="round" stroke="rgb(12.941176%, 40%, 67.45098%)" stroke-opacity="1" stroke-miterlimit="10" d="M 160.515625 115.886719 C 160.515625 120 154.34375 120 154.34375 115.886719 C 154.34375 111.769531 160.515625 111.769531 160.515625 115.886719 "/>
<path fill-rule="nonzero" fill="rgb(95.686275%, 64.705882%, 50.980392%)" fill-opacity="1" stroke-width="0.837509" stroke-linecap="round" stroke-linejoin="round" stroke="rgb(95.686275%, 64.705882%, 50.980392%)" stroke-opacity="1" stroke-miterlimit="10" d="M 160.515625 12.296875 C 160.515625 16.414062 154.34375 16.414062 154.34375 12.296875 C 154.34375 8.183594 160.515625 8.183594 160.515625 12.296875 "/>
<path fill-rule="nonzero" fill="rgb(83.921569%, 37.647059%, 30.196078%)" fill-opacity="1" stroke-width="0.837509" stroke-linecap="round" stroke-linejoin="round" stroke="rgb(83.921569%, 37.647059%, 30.196078%)" stroke-opacity="1" stroke-miterlimit="10" d="M 160.515625 78.125 C 160.515625 82.238281 154.34375 82.238281 154.34375 78.125 C 154.34375 74.011719 160.515625 74.011719 160.515625 78.125 "/>
<path fill-rule="nonzero" fill="rgb(12.941176%, 40%, 67.45098%)" fill-opacity="1" stroke-width="0.837509" stroke-linecap="round" stroke-linejoin="round" stroke="rgb(12.941176%, 40%, 67.45098%)" stroke-opacity="1" stroke-miterlimit="10" d="M 175.71875 117.441406 C 175.71875 121.554688 169.542969 121.554688 169.542969 117.441406 C 169.542969 113.324219 175.71875 113.324219 175.71875 117.441406 "/>
<path fill-rule="nonzero" fill="rgb(95.686275%, 64.705882%, 50.980392%)" fill-opacity="1" stroke-width="0.837509" stroke-linecap="round" stroke-linejoin="round" stroke="rgb(95.686275%, 64.705882%, 50.980392%)" stroke-opacity="1" stroke-miterlimit="10" d="M 175.71875 12.285156 C 175.71875 16.398438 169.542969 16.398438 169.542969 12.285156 C 169.542969 8.167969 175.71875 8.167969 175.71875 12.285156 "/>
<path fill-rule="nonzero" fill="rgb(83.921569%, 37.647059%, 30.196078%)" fill-opacity="1" stroke-width="0.837509" stroke-linecap="round" stroke-linejoin="round" stroke="rgb(83.921569%, 37.647059%, 30.196078%)" stroke-opacity="1" stroke-miterlimit="10" d="M 175.71875 78.203125 C 175.71875 82.320312 169.542969 82.320312 169.542969 78.203125 C 169.542969 74.089844 175.71875 74.089844 175.71875 78.203125 "/>
<path fill-rule="nonzero" fill="rgb(12.941176%, 40%, 67.45098%)" fill-opacity="1" stroke-width="0.837509" stroke-linecap="round" stroke-linejoin="round" stroke="rgb(12.941176%, 40%, 67.45098%)" stroke-opacity="1" stroke-miterlimit="10" d="M 190.917969 117.464844 C 190.917969 121.578125 184.746094 121.578125 184.746094 117.464844 C 184.746094 113.347656 190.917969 113.347656 190.917969 117.464844 "/>
<path fill-rule="nonzero" fill="rgb(95.686275%, 64.705882%, 50.980392%)" fill-opacity="1" stroke-width="0.837509" stroke-linecap="round" stroke-linejoin="round" stroke="rgb(95.686275%, 64.705882%, 50.980392%)" stroke-opacity="1" stroke-miterlimit="10" d="M 190.917969 11.808594 C 190.917969 15.921875 184.746094 15.921875 184.746094 11.808594 C 184.746094 7.695312 190.917969 7.695312 190.917969 11.808594 "/>
<path fill-rule="nonzero" fill="rgb(83.921569%, 37.647059%, 30.196078%)" fill-opacity="1" stroke-width="0.837509" stroke-linecap="round" stroke-linejoin="round" stroke="rgb(83.921569%, 37.647059%, 30.196078%)" stroke-opacity="1" stroke-miterlimit="10" d="M 190.917969 78.300781 C 190.917969 82.414062 184.746094 82.414062 184.746094 78.300781 C 184.746094 74.183594 190.917969 74.183594 190.917969 78.300781 "/>
<path fill-rule="nonzero" fill="rgb(12.941176%, 40%, 67.45098%)" fill-opacity="1" stroke-width="0.837509" stroke-linecap="round" stroke-linejoin="round" stroke="rgb(12.941176%, 40%, 67.45098%)" stroke-opacity="1" stroke-miterlimit="10" d="M 206.121094 118.402344 C 206.121094 122.515625 199.945312 122.515625 199.945312 118.402344 C 199.945312 114.289062 206.121094 114.289062 206.121094 118.402344 "/>
<path fill-rule="nonzero" fill="rgb(95.686275%, 64.705882%, 50.980392%)" fill-opacity="1" stroke-width="0.837509" stroke-linecap="round" stroke-linejoin="round" stroke="rgb(95.686275%, 64.705882%, 50.980392%)" stroke-opacity="1" stroke-miterlimit="10" d="M 206.121094 24.09375 C 206.121094 28.210938 199.945312 28.210938 199.945312 24.09375 C 199.945312 19.980469 206.121094 19.980469 206.121094 24.09375 "/>
<path fill-rule="nonzero" fill="rgb(83.921569%, 37.647059%, 30.196078%)" fill-opacity="1" stroke-width="0.837509" stroke-linecap="round" stroke-linejoin="round" stroke="rgb(83.921569%, 37.647059%, 30.196078%)" stroke-opacity="1" stroke-miterlimit="10" d="M 206.121094 74.070312 C 206.121094 78.1875 199.945312 78.1875 199.945312 74.070312 C 199.945312 69.957031 206.121094 69.957031 206.121094 74.070312 "/>
<path fill-rule="nonzero" fill="rgb(12.941176%, 40%, 67.45098%)" fill-opacity="1" stroke-width="0.837509" stroke-linecap="round" stroke-linejoin="round" stroke="rgb(12.941176%, 40%, 67.45098%)" stroke-opacity="1" stroke-miterlimit="10" d="M 221.320312 116.933594 C 221.320312 121.050781 215.148438 121.050781 215.148438 116.933594 C 215.148438 112.820312 221.320312 112.820312 221.320312 116.933594 "/>
<path fill-rule="nonzero" fill="rgb(95.686275%, 64.705882%, 50.980392%)" fill-opacity="1" stroke-width="0.837509" stroke-linecap="round" stroke-linejoin="round" stroke="rgb(95.686275%, 64.705882%, 50.980392%)" stroke-opacity="1" stroke-miterlimit="10" d="M 221.320312 23.011719 C 221.320312 27.128906 215.148438 27.128906 215.148438 23.011719 C 215.148438 18.898438 221.320312 18.898438 221.320312 23.011719 "/>
<path fill-rule="nonzero" fill="rgb(83.921569%, 37.647059%, 30.196078%)" fill-opacity="1" stroke-width="0.837509" stroke-linecap="round" stroke-linejoin="round" stroke="rgb(83.921569%, 37.647059%, 30.196078%)" stroke-opacity="1" stroke-miterlimit="10" d="M 221.320312 76.21875 C 221.320312 80.332031 215.148438 80.332031 215.148438 76.21875 C 215.148438 72.101562 221.320312 72.101562 221.320312 76.21875 "/>
<path fill-rule="nonzero" fill="rgb(12.941176%, 40%, 67.45098%)" fill-opacity="1" stroke-width="0.837509" stroke-linecap="round" stroke-linejoin="round" stroke="rgb(12.941176%, 40%, 67.45098%)" stroke-opacity="1" stroke-miterlimit="10" d="M 236.519531 118.382812 C 236.519531 122.5 230.347656 122.5 230.347656 118.382812 C 230.347656 114.269531 236.519531 114.269531 236.519531 118.382812 "/>
<path fill-rule="nonzero" fill="rgb(95.686275%, 64.705882%, 50.980392%)" fill-opacity="1" stroke-width="0.837509" stroke-linecap="round" stroke-linejoin="round" stroke="rgb(95.686275%, 64.705882%, 50.980392%)" stroke-opacity="1" stroke-miterlimit="10" d="M 236.519531 18.734375 C 236.519531 22.851562 230.347656 22.851562 230.347656 18.734375 C 230.347656 14.621094 236.519531 14.621094 236.519531 18.734375 "/>
<path fill-rule="nonzero" fill="rgb(83.921569%, 37.647059%, 30.196078%)" fill-opacity="1" stroke-width="0.837509" stroke-linecap="round" stroke-linejoin="round" stroke="rgb(83.921569%, 37.647059%, 30.196078%)" stroke-opacity="1" stroke-miterlimit="10" d="M 236.519531 73.457031 C 236.519531 77.570312 230.347656 77.570312 230.347656 73.457031 C 230.347656 69.34375 236.519531 69.34375 236.519531 73.457031 "/>
<path fill-rule="nonzero" fill="rgb(12.941176%, 40%, 67.45098%)" fill-opacity="1" stroke-width="0.837509" stroke-linecap="round" stroke-linejoin="round" stroke="rgb(12.941176%, 40%, 67.45098%)" stroke-opacity="1" stroke-miterlimit="10" d="M 251.722656 116.957031 C 251.722656 121.074219 245.550781 121.074219 245.550781 116.957031 C 245.550781 112.84375 251.722656 112.84375 251.722656 116.957031 "/>
<path fill-rule="nonzero" fill="rgb(95.686275%, 64.705882%, 50.980392%)" fill-opacity="1" stroke-width="0.837509" stroke-linecap="round" stroke-linejoin="round" stroke="rgb(95.686275%, 64.705882%, 50.980392%)" stroke-opacity="1" stroke-miterlimit="10" d="M 251.722656 14.402344 C 251.722656 18.519531 245.550781 18.519531 245.550781 14.402344 C 245.550781 10.289062 251.722656 10.289062 251.722656 14.402344 "/>
<path fill-rule="nonzero" fill="rgb(83.921569%, 37.647059%, 30.196078%)" fill-opacity="1" stroke-width="0.837509" stroke-linecap="round" stroke-linejoin="round" stroke="rgb(83.921569%, 37.647059%, 30.196078%)" stroke-opacity="1" stroke-miterlimit="10" d="M 251.722656 77.019531 C 251.722656 81.132812 245.550781 81.132812 245.550781 77.019531 C 245.550781 72.902344 251.722656 72.902344 251.722656 77.019531 "/>
<path fill-rule="nonzero" fill="rgb(12.941176%, 40%, 67.45098%)" fill-opacity="1" stroke-width="0.837509" stroke-linecap="round" stroke-linejoin="round" stroke="rgb(12.941176%, 40%, 67.45098%)" stroke-opacity="1" stroke-miterlimit="10" d="M 266.921875 116.375 C 266.921875 120.488281 260.75 120.488281 260.75 116.375 C 260.75 112.257812 266.921875 112.257812 266.921875 116.375 "/>
<path fill-rule="nonzero" fill="rgb(95.686275%, 64.705882%, 50.980392%)" fill-opacity="1" stroke-width="0.837509" stroke-linecap="round" stroke-linejoin="round" stroke="rgb(95.686275%, 64.705882%, 50.980392%)" stroke-opacity="1" stroke-miterlimit="10" d="M 266.921875 22.742188 C 266.921875 26.855469 260.75 26.855469 260.75 22.742188 C 260.75 18.625 266.921875 18.625 266.921875 22.742188 "/>
<path fill-rule="nonzero" fill="rgb(83.921569%, 37.647059%, 30.196078%)" fill-opacity="1" stroke-width="0.837509" stroke-linecap="round" stroke-linejoin="round" stroke="rgb(83.921569%, 37.647059%, 30.196078%)" stroke-opacity="1" stroke-miterlimit="10" d="M 266.921875 67.816406 C 266.921875 71.929688 260.75 71.929688 260.75 67.816406 C 260.75 63.699219 266.921875 63.699219 266.921875 67.816406 "/>
<path fill-rule="nonzero" fill="rgb(12.941176%, 40%, 67.45098%)" fill-opacity="1" stroke-width="0.837509" stroke-linecap="round" stroke-linejoin="round" stroke="rgb(12.941176%, 40%, 67.45098%)" stroke-opacity="1" stroke-miterlimit="10" d="M 282.125 116.945312 C 282.125 121.058594 275.953125 121.058594 275.953125 116.945312 C 275.953125 112.828125 282.125 112.828125 282.125 116.945312 "/>
<path fill-rule="nonzero" fill="rgb(95.686275%, 64.705882%, 50.980392%)" fill-opacity="1" stroke-width="0.837509" stroke-linecap="round" stroke-linejoin="round" stroke="rgb(95.686275%, 64.705882%, 50.980392%)" stroke-opacity="1" stroke-miterlimit="10" d="M 282.125 22.386719 C 282.125 26.503906 275.953125 26.503906 275.953125 22.386719 C 275.953125 18.273438 282.125 18.273438 282.125 22.386719 "/>
<path fill-rule="nonzero" fill="rgb(83.921569%, 37.647059%, 30.196078%)" fill-opacity="1" stroke-width="0.837509" stroke-linecap="round" stroke-linejoin="round" stroke="rgb(83.921569%, 37.647059%, 30.196078%)" stroke-opacity="1" stroke-miterlimit="10" d="M 282.125 73.308594 C 282.125 77.421875 275.953125 77.421875 275.953125 73.308594 C 275.953125 69.191406 282.125 69.191406 282.125 73.308594 "/>
<path fill-rule="nonzero" fill="rgb(12.941176%, 40%, 67.45098%)" fill-opacity="1" stroke-width="0.837509" stroke-linecap="round" stroke-linejoin="round" stroke="rgb(12.941176%, 40%, 67.45098%)" stroke-opacity="1" stroke-miterlimit="10" d="M 297.324219 116.738281 C 297.324219 120.855469 291.152344 120.855469 291.152344 116.738281 C 291.152344 112.625 297.324219 112.625 297.324219 116.738281 "/>
<path fill-rule="nonzero" fill="rgb(95.686275%, 64.705882%, 50.980392%)" fill-opacity="1" stroke-width="0.837509" stroke-linecap="round" stroke-linejoin="round" stroke="rgb(95.686275%, 64.705882%, 50.980392%)" stroke-opacity="1" stroke-miterlimit="10" d="M 297.324219 40.113281 C 297.324219 44.226562 291.152344 44.226562 291.152344 40.113281 C 291.152344 35.996094 297.324219 35.996094 297.324219 40.113281 "/>
<path fill-rule="nonzero" fill="rgb(83.921569%, 37.647059%, 30.196078%)" fill-opacity="1" stroke-width="0.837509" stroke-linecap="round" stroke-linejoin="round" stroke="rgb(83.921569%, 37.647059%, 30.196078%)" stroke-opacity="1" stroke-miterlimit="10" d="M 297.324219 74.816406 C 297.324219 78.929688 291.152344 78.929688 291.152344 74.816406 C 291.152344 70.699219 297.324219 70.699219 297.324219 74.816406 "/>
<path fill-rule="nonzero" fill="rgb(12.941176%, 40%, 67.45098%)" fill-opacity="1" stroke-width="0.837509" stroke-linecap="round" stroke-linejoin="round" stroke="rgb(12.941176%, 40%, 67.45098%)" stroke-opacity="1" stroke-miterlimit="10" d="M 312.527344 116.652344 C 312.527344 120.765625 306.355469 120.765625 306.355469 116.652344 C 306.355469 112.539062 312.527344 112.539062 312.527344 116.652344 "/>
<path fill-rule="nonzero" fill="rgb(95.686275%, 64.705882%, 50.980392%)" fill-opacity="1" stroke-width="0.837509" stroke-linecap="round" stroke-linejoin="round" stroke="rgb(95.686275%, 64.705882%, 50.980392%)" stroke-opacity="1" stroke-miterlimit="10" d="M 312.527344 36.8125 C 312.527344 40.929688 306.355469 40.929688 306.355469 36.8125 C 306.355469 32.699219 312.527344 32.699219 312.527344 36.8125 "/>
<path fill-rule="nonzero" fill="rgb(83.921569%, 37.647059%, 30.196078%)" fill-opacity="1" stroke-width="0.837509" stroke-linecap="round" stroke-linejoin="round" stroke="rgb(83.921569%, 37.647059%, 30.196078%)" stroke-opacity="1" stroke-miterlimit="10" d="M 312.527344 62.183594 C 312.527344 66.296875 306.355469 66.296875 306.355469 62.183594 C 306.355469 58.066406 312.527344 58.066406 312.527344 62.183594 "/>
<path fill-rule="nonzero" fill="rgb(12.941176%, 40%, 67.45098%)" fill-opacity="1" stroke-width="0.837509" stroke-linecap="round" stroke-linejoin="round" stroke="rgb(12.941176%, 40%, 67.45098%)" stroke-opacity="1" stroke-miterlimit="10" d="M 327.726562 115.433594 C 327.726562 119.546875 321.554688 119.546875 321.554688 115.433594 C 321.554688 111.316406 327.726562 111.316406 327.726562 115.433594 "/>
<path fill-rule="nonzero" fill="rgb(95.686275%, 64.705882%, 50.980392%)" fill-opacity="1" stroke-width="0.837509" stroke-linecap="round" stroke-linejoin="round" stroke="rgb(95.686275%, 64.705882%, 50.980392%)" stroke-opacity="1" stroke-miterlimit="10" d="M 327.726562 36.179688 C 327.726562 40.292969 321.554688 40.292969 321.554688 36.179688 C 321.554688 32.0625 327.726562 32.0625 327.726562 36.179688 "/>
<path fill-rule="nonzero" fill="rgb(83.921569%, 37.647059%, 30.196078%)" fill-opacity="1" stroke-width="0.837509" stroke-linecap="round" stroke-linejoin="round" stroke="rgb(83.921569%, 37.647059%, 30.196078%)" stroke-opacity="1" stroke-miterlimit="10" d="M 327.726562 72.382812 C 327.726562 76.496094 321.554688 76.496094 321.554688 72.382812 C 321.554688 68.265625 327.726562 68.265625 327.726562 72.382812 "/>
<path fill-rule="nonzero" fill="rgb(12.941176%, 40%, 67.45098%)" fill-opacity="1" stroke-width="0.837509" stroke-linecap="round" stroke-linejoin="round" stroke="rgb(12.941176%, 40%, 67.45098%)" stroke-opacity="1" stroke-miterlimit="10" d="M 342.929688 114.121094 C 342.929688 118.234375 336.757812 118.234375 336.757812 114.121094 C 336.757812 110.003906 342.929688 110.003906 342.929688 114.121094 "/>
<path fill-rule="nonzero" fill="rgb(95.686275%, 64.705882%, 50.980392%)" fill-opacity="1" stroke-width="0.837509" stroke-linecap="round" stroke-linejoin="round" stroke="rgb(95.686275%, 64.705882%, 50.980392%)" stroke-opacity="1" stroke-miterlimit="10" d="M 342.929688 42.054688 C 342.929688 46.167969 336.757812 46.167969 336.757812 42.054688 C 336.757812 37.9375 342.929688 37.9375 342.929688 42.054688 "/>
<path fill-rule="nonzero" fill="rgb(83.921569%, 37.647059%, 30.196078%)" fill-opacity="1" stroke-width="0.837509" stroke-linecap="round" stroke-linejoin="round" stroke="rgb(83.921569%, 37.647059%, 30.196078%)" stroke-opacity="1" stroke-miterlimit="10" d="M 342.929688 62.957031 C 342.929688 67.070312 336.757812 67.070312 336.757812 62.957031 C 336.757812 58.839844 342.929688 58.839844 342.929688 62.957031 "/>
<g fill="rgb(30.196078%, 30.196078%, 30.196078%)" fill-opacity="1">
<use xlink:href="#glyph-0-1" x="22.714844" y="114.953125"/>
<use xlink:href="#glyph-0-2" x="28.714844" y="114.953125"/>
<use xlink:href="#glyph-0-3" x="34.714844" y="114.953125"/>
<use xlink:href="#glyph-0-4" x="37.714844" y="114.953125"/>
</g>
<g fill="rgb(30.196078%, 30.196078%, 30.196078%)" fill-opacity="1">
<use xlink:href="#glyph-0-5" x="22.714844" y="88.785156"/>
<use xlink:href="#glyph-0-2" x="28.714844" y="88.785156"/>
<use xlink:href="#glyph-0-3" x="34.714844" y="88.785156"/>
<use xlink:href="#glyph-0-4" x="37.714844" y="88.785156"/>
</g>
<g fill="rgb(30.196078%, 30.196078%, 30.196078%)" fill-opacity="1">
<use xlink:href="#glyph-0-6" x="22.714844" y="62.617188"/>
<use xlink:href="#glyph-0-2" x="28.714844" y="62.617188"/>
<use xlink:href="#glyph-0-3" x="34.714844" y="62.617188"/>
<use xlink:href="#glyph-0-4" x="37.714844" y="62.617188"/>
</g>
<g fill="rgb(30.196078%, 30.196078%, 30.196078%)" fill-opacity="1">
<use xlink:href="#glyph-0-7" x="22.714844" y="36.449219"/>
<use xlink:href="#glyph-0-2" x="28.714844" y="36.449219"/>
<use xlink:href="#glyph-0-3" x="34.714844" y="36.449219"/>
<use xlink:href="#glyph-0-4" x="37.714844" y="36.449219"/>
</g>
<g fill="rgb(30.196078%, 30.196078%, 30.196078%)" fill-opacity="1">
<use xlink:href="#glyph-0-8" x="22.714844" y="10.28125"/>
<use xlink:href="#glyph-0-2" x="28.714844" y="10.28125"/>
<use xlink:href="#glyph-0-3" x="34.714844" y="10.28125"/>
<use xlink:href="#glyph-0-4" x="37.714844" y="10.28125"/>
</g>
<g fill="rgb(30.196078%, 30.196078%, 30.196078%)" fill-opacity="1">
<use xlink:href="#glyph-0-5" x="54.222656" y="136.640625"/>
<use xlink:href="#glyph-0-2" x="60.222656" y="136.640625"/>
<use xlink:href="#glyph-0-2" x="66.222656" y="136.640625"/>
<use xlink:href="#glyph-0-8" x="72.222656" y="136.640625"/>
</g>
<g fill="rgb(30.196078%, 30.196078%, 30.196078%)" fill-opacity="1">
<use xlink:href="#glyph-0-5" x="84.625" y="136.640625"/>
<use xlink:href="#glyph-0-2" x="90.625" y="136.640625"/>
<use xlink:href="#glyph-0-2" x="96.625" y="136.640625"/>
<use xlink:href="#glyph-0-9" x="102.625" y="136.640625"/>
</g>
<g fill="rgb(30.196078%, 30.196078%, 30.196078%)" fill-opacity="1">
<use xlink:href="#glyph-0-5" x="115.027344" y="136.640625"/>
<use xlink:href="#glyph-0-2" x="121.027344" y="136.640625"/>
<use xlink:href="#glyph-0-2" x="127.027344" y="136.640625"/>
<use xlink:href="#glyph-0-10" x="133.027344" y="136.640625"/>
</g>
<g fill="rgb(30.196078%, 30.196078%, 30.196078%)" fill-opacity="1">
<use xlink:href="#glyph-0-5" x="146.429688" y="136.640625"/>
<use xlink:href="#glyph-0-2" x="152.429688" y="136.640625"/>
<use xlink:href="#glyph-0-1" x="158.429688" y="136.640625"/>
<use xlink:href="#glyph-0-1" x="163.429688" y="136.640625"/>
</g>
<g fill="rgb(30.196078%, 30.196078%, 30.196078%)" fill-opacity="1">
<use xlink:href="#glyph-0-5" x="175.832031" y="136.640625"/>
<use xlink:href="#glyph-0-2" x="181.832031" y="136.640625"/>
<use xlink:href="#glyph-0-1" x="187.832031" y="136.640625"/>
<use xlink:href="#glyph-0-6" x="193.832031" y="136.640625"/>
</g>
<g fill="rgb(30.196078%, 30.196078%, 30.196078%)" fill-opacity="1">
<use xlink:href="#glyph-0-5" x="206.234375" y="136.640625"/>
<use xlink:href="#glyph-0-2" x="212.234375" y="136.640625"/>
<use xlink:href="#glyph-0-1" x="218.234375" y="136.640625"/>
<use xlink:href="#glyph-0-8" x="224.234375" y="136.640625"/>
</g>
<g fill="rgb(30.196078%, 30.196078%, 30.196078%)" fill-opacity="1">
<use xlink:href="#glyph-0-5" x="236.636719" y="136.640625"/>
<use xlink:href="#glyph-0-2" x="242.636719" y="136.640625"/>
<use xlink:href="#glyph-0-1" x="248.636719" y="136.640625"/>
<use xlink:href="#glyph-0-9" x="254.636719" y="136.640625"/>
</g>
<g fill="rgb(30.196078%, 30.196078%, 30.196078%)" fill-opacity="1">
<use xlink:href="#glyph-0-5" x="267.039062" y="136.640625"/>
<use xlink:href="#glyph-0-2" x="273.039062" y="136.640625"/>
<use xlink:href="#glyph-0-1" x="279.039062" y="136.640625"/>
<use xlink:href="#glyph-0-10" x="285.039062" y="136.640625"/>
</g>
<g fill="rgb(30.196078%, 30.196078%, 30.196078%)" fill-opacity="1">
<use xlink:href="#glyph-0-5" x="297.441406" y="136.640625"/>
<use xlink:href="#glyph-0-2" x="303.441406" y="136.640625"/>
<use xlink:href="#glyph-0-5" x="309.441406" y="136.640625"/>
<use xlink:href="#glyph-0-1" x="315.441406" y="136.640625"/>
</g>
<g fill="rgb(30.196078%, 30.196078%, 30.196078%)" fill-opacity="1">
<use xlink:href="#glyph-0-5" x="327.84375" y="136.640625"/>
<use xlink:href="#glyph-0-2" x="333.84375" y="136.640625"/>
<use xlink:href="#glyph-0-5" x="339.84375" y="136.640625"/>
<use xlink:href="#glyph-0-6" x="345.84375" y="136.640625"/>
</g>
<g fill="rgb(0%, 0%, 0%)" fill-opacity="1">
<use xlink:href="#glyph-1-1" x="15.487305" y="127.140625"/>
<use xlink:href="#glyph-1-2" x="15.487305" y="121.140625"/>
<use xlink:href="#glyph-1-3" x="15.487305" y="113.140625"/>
<use xlink:href="#glyph-1-4" x="15.487305" y="106.140625"/>
<use xlink:href="#glyph-1-5" x="15.487305" y="99.140625"/>
<use xlink:href="#glyph-1-6" x="15.487305" y="95.140625"/>
<use xlink:href="#glyph-1-7" x="15.487305" y="88.140625"/>
<use xlink:href="#glyph-1-5" x="15.487305" y="81.140625"/>
<use xlink:href="#glyph-1-8" x="15.487305" y="77.140625"/>
<use xlink:href="#glyph-1-2" x="15.487305" y="70.140625"/>
<use xlink:href="#glyph-1-3" x="15.487305" y="63.140625"/>
<use xlink:href="#glyph-1-9" x="15.487305" y="56.140625"/>
<use xlink:href="#glyph-1-10" x="15.487305" y="49.140625"/>
<use xlink:href="#glyph-1-7" x="15.487305" y="45.140625"/>
<use xlink:href="#glyph-1-11" x="15.487305" y="38.140625"/>
<use xlink:href="#glyph-1-7" x="15.487305" y="34.140625"/>
<use xlink:href="#glyph-1-5" x="15.487305" y="27.140625"/>
<use xlink:href="#glyph-1-12" x="15.487305" y="23.140625"/>
<use xlink:href="#glyph-1-13" x="15.487305" y="19.140625"/>
<use xlink:href="#glyph-1-14" x="15.487305" y="7.140625"/>
</g>
<path fill="none" stroke-width="2.774144" stroke-linecap="butt" stroke-linejoin="round" stroke="rgb(12.941176%, 40%, 67.45098%)" stroke-opacity="1" stroke-miterlimit="10" d="M 109.152344 168.699219 L 122.976562 168.699219 "/>
<path fill-rule="nonzero" fill="rgb(12.941176%, 40%, 67.45098%)" fill-opacity="1" stroke-width="0.837509" stroke-linecap="round" stroke-linejoin="round" stroke="rgb(12.941176%, 40%, 67.45098%)" stroke-opacity="1" stroke-miterlimit="10" d="M 119.148438 168.699219 C 119.148438 172.816406 112.976562 172.816406 112.976562 168.699219 C 112.976562 164.585938 119.148438 164.585938 119.148438 168.699219 "/>
<path fill="none" stroke-width="2.774144" stroke-linecap="butt" stroke-linejoin="round" stroke="rgb(95.686275%, 64.705882%, 50.980392%)" stroke-opacity="1" stroke-miterlimit="10" d="M 171.382812 168.699219 L 185.207031 168.699219 "/>
<path fill-rule="nonzero" fill="rgb(95.686275%, 64.705882%, 50.980392%)" fill-opacity="1" stroke-width="0.837509" stroke-linecap="round" stroke-linejoin="round" stroke="rgb(95.686275%, 64.705882%, 50.980392%)" stroke-opacity="1" stroke-miterlimit="10" d="M 181.382812 168.699219 C 181.382812 172.816406 175.207031 172.816406 175.207031 168.699219 C 175.207031 164.585938 181.382812 164.585938 181.382812 168.699219 "/>
<path fill="none" stroke-width="2.774144" stroke-linecap="butt" stroke-linejoin="round" stroke="rgb(83.921569%, 37.647059%, 30.196078%)" stroke-opacity="1" stroke-miterlimit="10" d="M 248.613281 168.699219 L 262.4375 168.699219 "/>
<path fill-rule="nonzero" fill="rgb(83.921569%, 37.647059%, 30.196078%)" fill-opacity="1" stroke-width="0.837509" stroke-linecap="round" stroke-linejoin="round" stroke="rgb(83.921569%, 37.647059%, 30.196078%)" stroke-opacity="1" stroke-miterlimit="10" d="M 258.613281 168.699219 C 258.613281 172.816406 252.441406 172.816406 252.441406 168.699219 C 252.441406 164.585938 258.613281 164.585938 258.613281 168.699219 "/>
<g fill="rgb(0%, 0%, 0%)" fill-opacity="1">
<use xlink:href="#glyph-0-11" x="131.179688" y="171.707031"/>
<use xlink:href="#glyph-0-12" x="138.179688" y="171.707031"/>
<use xlink:href="#glyph-0-13" x="147.179688" y="171.707031"/>
<use xlink:href="#glyph-0-14" x="153.179688" y="171.707031"/>
<use xlink:href="#glyph-0-15" x="155.179688" y="171.707031"/>
<use xlink:href="#glyph-0-16" x="161.179688" y="171.707031"/>
</g>
<g fill="rgb(0%, 0%, 0%)" fill-opacity="1">
<use xlink:href="#glyph-0-17" x="193.410156" y="171.707031"/>
<use xlink:href="#glyph-0-18" x="201.410156" y="171.707031"/>
<use xlink:href="#glyph-0-15" x="207.410156" y="171.707031"/>
<use xlink:href="#glyph-0-12" x="213.410156" y="171.707031"/>
<use xlink:href="#glyph-0-19" x="222.410156" y="171.707031"/>
<use xlink:href="#glyph-0-20" x="228.410156" y="171.707031"/>
<use xlink:href="#glyph-0-21" x="234.410156" y="171.707031"/>
</g>
<g fill="rgb(0%, 0%, 0%)" fill-opacity="1">
<use xlink:href="#glyph-0-22" x="270.640625" y="171.707031"/>
<use xlink:href="#glyph-0-23" x="273.640625" y="171.707031"/>
<use xlink:href="#glyph-0-19" x="279.640625" y="171.707031"/>
<use xlink:href="#glyph-0-24" x="285.640625" y="171.707031"/>
<use xlink:href="#glyph-0-25" x="290.640625" y="171.707031"/>
<use xlink:href="#glyph-0-16" x="293.640625" y="171.707031"/>
<use xlink:href="#glyph-0-26" x="295.640625" y="171.707031"/>
</g>
<g fill="rgb(0%, 0%, 0%)" fill-opacity="1">
<use xlink:href="#glyph-0-27" x="119.523438" y="197.300781"/>
<use xlink:href="#glyph-0-15" x="126.523438" y="197.300781"/>
<use xlink:href="#glyph-0-28" x="132.523438" y="197.300781"/>
<use xlink:href="#glyph-0-29" x="138.523438" y="197.300781"/>
<use xlink:href="#glyph-0-24" x="141.523438" y="197.300781"/>
<use xlink:href="#glyph-0-21" x="146.523438" y="197.300781"/>
<use xlink:href="#glyph-0-3" x="152.523438" y="197.300781"/>
<use xlink:href="#glyph-0-30" x="155.523438" y="197.300781"/>
<use xlink:href="#glyph-0-3" x="158.523438" y="197.300781"/>
<use xlink:href="#glyph-0-22" x="161.523438" y="197.300781"/>
<use xlink:href="#glyph-0-31" x="164.523438" y="197.300781"/>
<use xlink:href="#glyph-0-27" x="172.523438" y="197.300781"/>
<use xlink:href="#glyph-0-11" x="179.523438" y="197.300781"/>
<use xlink:href="#glyph-0-11" x="186.523438" y="197.300781"/>
<use xlink:href="#glyph-0-32" x="193.523438" y="197.300781"/>
<use xlink:href="#glyph-0-3" x="196.523438" y="197.300781"/>
<use xlink:href="#glyph-0-11" x="199.523438" y="197.300781"/>
<use xlink:href="#glyph-0-33" x="206.523438" y="197.300781"/>
<use xlink:href="#glyph-0-34" x="214.523438" y="197.300781"/>
<use xlink:href="#glyph-0-27" x="220.523438" y="197.300781"/>
<use xlink:href="#glyph-0-3" x="227.523438" y="197.300781"/>
<use xlink:href="#glyph-0-5" x="230.523438" y="197.300781"/>
<use xlink:href="#glyph-0-2" x="236.523438" y="197.300781"/>
<use xlink:href="#glyph-0-2" x="242.523438" y="197.300781"/>
<use xlink:href="#glyph-0-8" x="248.523438" y="197.300781"/>
<use xlink:href="#glyph-0-35" x="254.523438" y="197.300781"/>
<use xlink:href="#glyph-0-5" x="257.523438" y="197.300781"/>
<use xlink:href="#glyph-0-2" x="263.523438" y="197.300781"/>
<use xlink:href="#glyph-0-5" x="269.523438" y="197.300781"/>
<use xlink:href="#glyph-0-6" x="275.523438" y="197.300781"/>
<use xlink:href="#glyph-0-32" x="281.523438" y="197.300781"/>
<use xlink:href="#glyph-0-3" x="284.523438" y="197.300781"/>
<use xlink:href="#glyph-0-24" x="287.523438" y="197.300781"/>
<use xlink:href="#glyph-0-19" x="292.523438" y="197.300781"/>
<use xlink:href="#glyph-0-14" x="298.523438" y="197.300781"/>
<use xlink:href="#glyph-0-24" x="300.523438" y="197.300781"/>
<use xlink:href="#glyph-0-28" x="305.523438" y="197.300781"/>
<use xlink:href="#glyph-0-14" x="311.523438" y="197.300781"/>
<use xlink:href="#glyph-0-36" x="313.523438" y="197.300781"/>
<use xlink:href="#glyph-0-3" x="318.523438" y="197.300781"/>
<use xlink:href="#glyph-0-37" x="321.523438" y="197.300781"/>
<use xlink:href="#glyph-0-34" x="329.523438" y="197.300781"/>
<use xlink:href="#glyph-0-17" x="335.523438" y="197.300781"/>
<use xlink:href="#glyph-0-11" x="343.523438" y="197.300781"/>
<use xlink:href="#glyph-0-38" x="350.523438" y="197.300781"/>
</g>
<g fill="rgb(0%, 0%, 0%)" fill-opacity="1">
<use xlink:href="#glyph-0-34" x="39.523438" y="208.53125"/>
<use xlink:href="#glyph-0-19" x="45.523438" y="208.53125"/>
<use xlink:href="#glyph-0-12" x="51.523438" y="208.53125"/>
<use xlink:href="#glyph-0-16" x="60.523438" y="208.53125"/>
<use xlink:href="#glyph-0-14" x="62.523438" y="208.53125"/>
<use xlink:href="#glyph-0-14" x="64.523438" y="208.53125"/>
<use xlink:href="#glyph-0-21" x="66.523438" y="208.53125"/>
<use xlink:href="#glyph-0-36" x="72.523438" y="208.53125"/>
<use xlink:href="#glyph-0-3" x="77.523438" y="208.53125"/>
<use xlink:href="#glyph-0-12" x="80.523438" y="208.53125"/>
<use xlink:href="#glyph-0-15" x="89.523438" y="208.53125"/>
<use xlink:href="#glyph-0-23" x="95.523438" y="208.53125"/>
<use xlink:href="#glyph-0-15" x="101.523438" y="208.53125"/>
<use xlink:href="#glyph-0-13" x="107.523438" y="208.53125"/>
<use xlink:href="#glyph-0-19" x="113.523438" y="208.53125"/>
<use xlink:href="#glyph-0-29" x="119.523438" y="208.53125"/>
<use xlink:href="#glyph-0-21" x="122.523438" y="208.53125"/>
<use xlink:href="#glyph-0-23" x="128.523438" y="208.53125"/>
<use xlink:href="#glyph-0-25" x="134.523438" y="208.53125"/>
<use xlink:href="#glyph-0-19" x="137.523438" y="208.53125"/>
<use xlink:href="#glyph-0-14" x="143.523438" y="208.53125"/>
<use xlink:href="#glyph-0-21" x="145.523438" y="208.53125"/>
<use xlink:href="#glyph-0-36" x="151.523438" y="208.53125"/>
<use xlink:href="#glyph-0-3" x="156.523438" y="208.53125"/>
<use xlink:href="#glyph-0-28" x="159.523438" y="208.53125"/>
<use xlink:href="#glyph-0-23" x="165.523438" y="208.53125"/>
<use xlink:href="#glyph-0-16" x="171.523438" y="208.53125"/>
<use xlink:href="#glyph-0-39" x="173.523438" y="208.53125"/>
<use xlink:href="#glyph-0-28" x="179.523438" y="208.53125"/>
<use xlink:href="#glyph-0-21" x="185.523438" y="208.53125"/>
<use xlink:href="#glyph-0-12" x="191.523438" y="208.53125"/>
<use xlink:href="#glyph-0-21" x="200.523438" y="208.53125"/>
<use xlink:href="#glyph-0-23" x="206.523438" y="208.53125"/>
<use xlink:href="#glyph-0-25" x="212.523438" y="208.53125"/>
<use xlink:href="#glyph-0-38" x="215.523438" y="208.53125"/>
<use xlink:href="#glyph-0-3" x="218.523438" y="208.53125"/>
<use xlink:href="#glyph-0-27" x="221.523438" y="208.53125"/>
<use xlink:href="#glyph-0-21" x="228.523438" y="208.53125"/>
<use xlink:href="#glyph-0-28" x="234.523438" y="208.53125"/>
<use xlink:href="#glyph-0-16" x="240.523438" y="208.53125"/>
<use xlink:href="#glyph-0-14" x="242.523438" y="208.53125"/>
<use xlink:href="#glyph-0-3" x="244.523438" y="208.53125"/>
<use xlink:href="#glyph-0-19" x="247.523438" y="208.53125"/>
<use xlink:href="#glyph-0-3" x="253.523438" y="208.53125"/>
<use xlink:href="#glyph-0-40" x="256.523438" y="208.53125"/>
<use xlink:href="#glyph-0-2" x="262.523438" y="208.53125"/>
<use xlink:href="#glyph-0-3" x="268.523438" y="208.53125"/>
<use xlink:href="#glyph-0-4" x="271.523438" y="208.53125"/>
<use xlink:href="#glyph-0-3" x="280.523438" y="208.53125"/>
<use xlink:href="#glyph-0-41" x="283.523438" y="208.53125"/>
<use xlink:href="#glyph-0-21" x="289.523438" y="208.53125"/>
<use xlink:href="#glyph-0-3" x="295.523438" y="208.53125"/>
<use xlink:href="#glyph-0-14" x="298.523438" y="208.53125"/>
<use xlink:href="#glyph-0-19" x="300.523438" y="208.53125"/>
<use xlink:href="#glyph-0-3" x="306.523438" y="208.53125"/>
<use xlink:href="#glyph-0-12" x="309.523438" y="208.53125"/>
<use xlink:href="#glyph-0-21" x="318.523438" y="208.53125"/>
<use xlink:href="#glyph-0-41" x="324.523438" y="208.53125"/>
<use xlink:href="#glyph-0-16" x="330.523438" y="208.53125"/>
<use xlink:href="#glyph-0-19" x="332.523438" y="208.53125"/>
<use xlink:href="#glyph-0-23" x="338.523438" y="208.53125"/>
<use xlink:href="#glyph-0-21" x="344.523438" y="208.53125"/>
<use xlink:href="#glyph-0-38" x="350.523438" y="208.53125"/>
</g>
</svg>
