<?xml version="1.0" encoding="UTF-8"?>
<svg xmlns="http://www.w3.org/2000/svg" xmlns:xlink="http://www.w3.org/1999/xlink" width="360pt" height="219pt" viewBox="0 0 360 219">
<defs>
<g>
<g id="glyph-0-0">
<path d="M 0.328125 0 L 0.328125 -7.46875 L 6.265625 -7.46875 L 6.265625 0 Z M 5.328125 -0.9375 L 5.328125 -6.53125 L 1.265625 -6.53125 L 1.265625 -0.9375 Z M 5.328125 -0.9375 "/>
</g>
<g id="glyph-0-1">
<path d="M 0.328125 0 C 0.359375 -0.625 0.484375 -1.164062 0.703125 -1.625 C 0.929688 -2.09375 1.375 -2.519531 2.03125 -2.90625 L 3.015625 -3.46875 C 3.441406 -3.71875 3.742188 -3.929688 3.921875 -4.109375 C 4.203125 -4.390625 4.34375 -4.710938 4.34375 -5.078125 C 4.34375 -5.503906 4.210938 -5.84375 3.953125 -6.09375 C 3.703125 -6.34375 3.367188 -6.46875 2.953125 -6.46875 C 2.316406 -6.46875 1.878906 -6.226562 1.640625 -5.75 C 1.515625 -5.5 1.445312 -5.144531 1.4375 -4.6875 L 0.5 -4.6875 C 0.507812 -5.320312 0.628906 -5.84375 0.859375 -6.25 C 1.253906 -6.945312 1.953125 -7.296875 2.953125 -7.296875 C 3.785156 -7.296875 4.394531 -7.070312 4.78125 -6.625 C 5.164062 -6.175781 5.359375 -5.675781 5.359375 -5.125 C 5.359375 -4.539062 5.148438 -4.039062 4.734375 -3.625 C 4.503906 -3.382812 4.082031 -3.09375 3.46875 -2.75 L 2.765625 -2.375 C 2.429688 -2.1875 2.171875 -2.007812 1.984375 -1.84375 C 1.648438 -1.550781 1.4375 -1.222656 1.34375 -0.859375 L 5.3125 -0.859375 L 5.3125 0 Z M 0.328125 0 "/>
</g>
<g id="glyph-0-2">
<path d="M 2.8125 -7.28125 C 3.757812 -7.28125 4.441406 -6.890625 4.859375 -6.109375 C 5.179688 -5.515625 5.34375 -4.691406 5.34375 -3.640625 C 5.34375 -2.660156 5.195312 -1.84375 4.90625 -1.1875 C 4.476562 -0.257812 3.78125 0.203125 2.8125 0.203125 C 1.9375 0.203125 1.285156 -0.175781 0.859375 -0.9375 C 0.503906 -1.570312 0.328125 -2.421875 0.328125 -3.484375 C 0.328125 -4.316406 0.429688 -5.03125 0.640625 -5.625 C 1.046875 -6.726562 1.769531 -7.28125 2.8125 -7.28125 Z M 2.8125 -0.640625 C 3.28125 -0.640625 3.65625 -0.847656 3.9375 -1.265625 C 4.21875 -1.679688 4.359375 -2.460938 4.359375 -3.609375 C 4.359375 -4.441406 4.253906 -5.125 4.046875 -5.65625 C 3.847656 -6.1875 3.457031 -6.453125 2.875 -6.453125 C 2.332031 -6.453125 1.9375 -6.195312 1.6875 -5.6875 C 1.4375 -5.1875 1.3125 -4.441406 1.3125 -3.453125 C 1.3125 -2.710938 1.394531 -2.117188 1.5625 -1.671875 C 1.800781 -0.984375 2.21875 -0.640625 2.8125 -0.640625 Z M 2.8125 -0.640625 "/>
</g>
<g id="glyph-0-3">
<path d="M 2.703125 0.203125 C 1.835938 0.203125 1.210938 -0.03125 0.828125 -0.5 C 0.441406 -0.976562 0.25 -1.554688 0.25 -2.234375 L 1.203125 -2.234375 C 1.242188 -1.765625 1.332031 -1.421875 1.46875 -1.203125 C 1.707031 -0.828125 2.132812 -0.640625 2.75 -0.640625 C 3.226562 -0.640625 3.613281 -0.765625 3.90625 -1.015625 C 4.195312 -1.273438 4.34375 -1.609375 4.34375 -2.015625 C 4.34375 -2.515625 4.191406 -2.863281 3.890625 -3.0625 C 3.585938 -3.269531 3.160156 -3.375 2.609375 -3.375 C 2.546875 -3.375 2.484375 -3.367188 2.421875 -3.359375 C 2.359375 -3.359375 2.296875 -3.359375 2.234375 -3.359375 L 2.234375 -4.171875 C 2.328125 -4.160156 2.40625 -4.148438 2.46875 -4.140625 C 2.539062 -4.140625 2.613281 -4.140625 2.6875 -4.140625 C 3.03125 -4.140625 3.3125 -4.191406 3.53125 -4.296875 C 3.914062 -4.492188 4.109375 -4.832031 4.109375 -5.3125 C 4.109375 -5.675781 3.976562 -5.957031 3.71875 -6.15625 C 3.457031 -6.351562 3.15625 -6.453125 2.8125 -6.453125 C 2.207031 -6.453125 1.789062 -6.25 1.5625 -5.84375 C 1.425781 -5.625 1.351562 -5.304688 1.34375 -4.890625 L 0.4375 -4.890625 C 0.4375 -5.429688 0.539062 -5.890625 0.75 -6.265625 C 1.125 -6.941406 1.78125 -7.28125 2.71875 -7.28125 C 3.46875 -7.28125 4.046875 -7.113281 4.453125 -6.78125 C 4.859375 -6.457031 5.0625 -5.984375 5.0625 -5.359375 C 5.0625 -4.910156 4.9375 -4.546875 4.6875 -4.265625 C 4.539062 -4.097656 4.347656 -3.960938 4.109375 -3.859375 C 4.492188 -3.753906 4.789062 -3.550781 5 -3.25 C 5.21875 -2.957031 5.328125 -2.59375 5.328125 -2.15625 C 5.328125 -1.457031 5.097656 -0.890625 4.640625 -0.453125 C 4.191406 -0.015625 3.546875 0.203125 2.703125 0.203125 Z M 2.703125 0.203125 "/>
</g>
<g id="glyph-0-4">
<path d="M 3.4375 -2.578125 L 3.4375 -5.875 L 1.109375 -2.578125 Z M 3.453125 0 L 3.453125 -1.78125 L 0.265625 -1.78125 L 0.265625 -2.671875 L 3.59375 -7.296875 L 4.375 -7.296875 L 4.375 -2.578125 L 5.4375 -2.578125 L 5.4375 -1.78125 L 4.375 -1.78125 L 4.375 0 Z M 3.453125 0 "/>
</g>
<g id="glyph-0-5">
<path d="M 1.28125 -1.859375 C 1.34375 -1.335938 1.585938 -0.972656 2.015625 -0.765625 C 2.234375 -0.671875 2.484375 -0.625 2.765625 -0.625 C 3.304688 -0.625 3.707031 -0.796875 3.96875 -1.140625 C 4.226562 -1.484375 4.359375 -1.863281 4.359375 -2.28125 C 4.359375 -2.789062 4.203125 -3.179688 3.890625 -3.453125 C 3.585938 -3.734375 3.21875 -3.875 2.78125 -3.875 C 2.46875 -3.875 2.195312 -3.8125 1.96875 -3.6875 C 1.738281 -3.570312 1.546875 -3.40625 1.390625 -3.1875 L 0.59375 -3.234375 L 1.15625 -7.15625 L 4.9375 -7.15625 L 4.9375 -6.265625 L 1.84375 -6.265625 L 1.53125 -4.25 C 1.695312 -4.375 1.859375 -4.46875 2.015625 -4.53125 C 2.285156 -4.644531 2.597656 -4.703125 2.953125 -4.703125 C 3.617188 -4.703125 4.179688 -4.488281 4.640625 -4.0625 C 5.109375 -3.632812 5.34375 -3.085938 5.34375 -2.421875 C 5.34375 -1.734375 5.128906 -1.125 4.703125 -0.59375 C 4.273438 -0.0703125 3.597656 0.1875 2.671875 0.1875 C 2.078125 0.1875 1.550781 0.0195312 1.09375 -0.3125 C 0.644531 -0.644531 0.390625 -1.160156 0.328125 -1.859375 Z M 1.28125 -1.859375 "/>
</g>
<g id="glyph-0-6">
<path d="M 3.046875 -7.3125 C 3.859375 -7.3125 4.421875 -7.097656 4.734375 -6.671875 C 5.054688 -6.253906 5.21875 -5.820312 5.21875 -5.375 L 4.3125 -5.375 C 4.257812 -5.65625 4.175781 -5.878906 4.0625 -6.046875 C 3.84375 -6.347656 3.507812 -6.5 3.0625 -6.5 C 2.550781 -6.5 2.144531 -6.265625 1.84375 -5.796875 C 1.539062 -5.328125 1.375 -4.648438 1.34375 -3.765625 C 1.550781 -4.078125 1.8125 -4.304688 2.125 -4.453125 C 2.414062 -4.585938 2.742188 -4.65625 3.109375 -4.65625 C 3.710938 -4.65625 4.238281 -4.457031 4.6875 -4.0625 C 5.144531 -3.675781 5.375 -3.097656 5.375 -2.328125 C 5.375 -1.671875 5.160156 -1.085938 4.734375 -0.578125 C 4.304688 -0.0664062 3.691406 0.1875 2.890625 0.1875 C 2.210938 0.1875 1.625 -0.0664062 1.125 -0.578125 C 0.632812 -1.097656 0.390625 -1.972656 0.390625 -3.203125 C 0.390625 -4.097656 0.5 -4.863281 0.71875 -5.5 C 1.144531 -6.707031 1.921875 -7.3125 3.046875 -7.3125 Z M 2.984375 -0.625 C 3.460938 -0.625 3.820312 -0.785156 4.0625 -1.109375 C 4.300781 -1.429688 4.421875 -1.8125 4.421875 -2.25 C 4.421875 -2.625 4.3125 -2.976562 4.09375 -3.3125 C 3.882812 -3.65625 3.5 -3.828125 2.9375 -3.828125 C 2.539062 -3.828125 2.191406 -3.695312 1.890625 -3.4375 C 1.597656 -3.175781 1.453125 -2.78125 1.453125 -2.25 C 1.453125 -1.789062 1.585938 -1.40625 1.859375 -1.09375 C 2.128906 -0.78125 2.503906 -0.625 2.984375 -0.625 Z M 2.984375 -0.625 "/>
</g>
<g id="glyph-0-7">
<path d="M 1 -5.15625 L 1 -5.859375 C 1.65625 -5.921875 2.113281 -6.023438 2.375 -6.171875 C 2.632812 -6.328125 2.832031 -6.6875 2.96875 -7.25 L 3.6875 -7.25 L 3.6875 0 L 2.703125 0 L 2.703125 -5.15625 Z M 1 -5.15625 "/>
</g>
<g id="glyph-0-8">
<path d="M 2.828125 -4.234375 C 3.234375 -4.234375 3.546875 -4.34375 3.765625 -4.5625 C 3.992188 -4.789062 4.109375 -5.0625 4.109375 -5.375 C 4.109375 -5.644531 4 -5.890625 3.78125 -6.109375 C 3.570312 -6.335938 3.242188 -6.453125 2.796875 -6.453125 C 2.359375 -6.453125 2.039062 -6.335938 1.84375 -6.109375 C 1.644531 -5.890625 1.546875 -5.625 1.546875 -5.3125 C 1.546875 -4.976562 1.671875 -4.710938 1.921875 -4.515625 C 2.179688 -4.328125 2.484375 -4.234375 2.828125 -4.234375 Z M 2.890625 -0.625 C 3.304688 -0.625 3.65625 -0.738281 3.9375 -0.96875 C 4.21875 -1.195312 4.359375 -1.535156 4.359375 -1.984375 C 4.359375 -2.460938 4.210938 -2.820312 3.921875 -3.0625 C 3.640625 -3.3125 3.269531 -3.4375 2.8125 -3.4375 C 2.382812 -3.4375 2.03125 -3.3125 1.75 -3.0625 C 1.476562 -2.8125 1.34375 -2.460938 1.34375 -2.015625 C 1.34375 -1.640625 1.46875 -1.3125 1.71875 -1.03125 C 1.96875 -0.757812 2.359375 -0.625 2.890625 -0.625 Z M 1.578125 -3.875 C 1.328125 -3.988281 1.128906 -4.117188 0.984375 -4.265625 C 0.722656 -4.535156 0.59375 -4.882812 0.59375 -5.3125 C 0.59375 -5.851562 0.785156 -6.316406 1.171875 -6.703125 C 1.566406 -7.097656 2.125 -7.296875 2.84375 -7.296875 C 3.539062 -7.296875 4.085938 -7.109375 4.484375 -6.734375 C 4.890625 -6.367188 5.09375 -5.941406 5.09375 -5.453125 C 5.09375 -5.003906 4.972656 -4.640625 4.734375 -4.359375 C 4.609375 -4.191406 4.410156 -4.035156 4.140625 -3.890625 C 4.441406 -3.742188 4.679688 -3.582031 4.859375 -3.40625 C 5.171875 -3.070312 5.328125 -2.632812 5.328125 -2.09375 C 5.328125 -1.445312 5.113281 -0.898438 4.6875 -0.453125 C 4.257812 -0.015625 3.648438 0.203125 2.859375 0.203125 C 2.148438 0.203125 1.550781 0.0117188 1.0625 -0.359375 C 0.570312 -0.742188 0.328125 -1.304688 0.328125 -2.046875 C 0.328125 -2.472656 0.429688 -2.84375 0.640625 -3.15625 C 0.859375 -3.46875 1.171875 -3.707031 1.578125 -3.875 Z M 1.578125 -3.875 "/>
</g>
<g id="glyph-0-9">
<path d="M 1.375 -1.765625 C 1.40625 -1.253906 1.601562 -0.90625 1.96875 -0.71875 C 2.15625 -0.613281 2.363281 -0.5625 2.59375 -0.5625 C 3.03125 -0.5625 3.398438 -0.742188 3.703125 -1.109375 C 4.015625 -1.472656 4.238281 -2.210938 4.375 -3.328125 C 4.164062 -3.003906 3.910156 -2.773438 3.609375 -2.640625 C 3.316406 -2.515625 2.992188 -2.453125 2.640625 -2.453125 C 1.941406 -2.453125 1.390625 -2.671875 0.984375 -3.109375 C 0.578125 -3.546875 0.375 -4.109375 0.375 -4.796875 C 0.375 -5.453125 0.570312 -6.03125 0.96875 -6.53125 C 1.375 -7.03125 1.972656 -7.28125 2.765625 -7.28125 C 3.816406 -7.28125 4.546875 -6.804688 4.953125 -5.859375 C 5.179688 -5.328125 5.296875 -4.664062 5.296875 -3.875 C 5.296875 -2.988281 5.160156 -2.203125 4.890625 -1.515625 C 4.441406 -0.367188 3.6875 0.203125 2.625 0.203125 C 1.914062 0.203125 1.375 0.0117188 1 -0.359375 C 0.632812 -0.734375 0.453125 -1.203125 0.453125 -1.765625 Z M 2.765625 -3.25 C 3.128906 -3.25 3.460938 -3.367188 3.765625 -3.609375 C 4.066406 -3.847656 4.21875 -4.265625 4.21875 -4.859375 C 4.21875 -5.398438 4.082031 -5.800781 3.8125 -6.0625 C 3.539062 -6.320312 3.195312 -6.453125 2.78125 -6.453125 C 2.332031 -6.453125 1.976562 -6.300781 1.71875 -6 C 1.457031 -5.695312 1.328125 -5.296875 1.328125 -4.796875 C 1.328125 -4.328125 1.441406 -3.953125 1.671875 -3.671875 C 1.898438 -3.390625 2.265625 -3.25 2.765625 -3.25 Z M 2.765625 -3.25 "/>
</g>
<g id="glyph-0-10">
<path d="M 7.625 -0.015625 L 7.109375 0.59375 L 5.953125 -0.28125 C 5.679688 -0.132812 5.382812 -0.0117188 5.0625 0.078125 C 4.738281 0.171875 4.382812 0.21875 4 0.21875 C 2.84375 0.21875 1.9375 -0.160156 1.28125 -0.921875 C 0.695312 -1.660156 0.40625 -2.582031 0.40625 -3.6875 C 0.40625 -4.695312 0.65625 -5.5625 1.15625 -6.28125 C 1.800781 -7.207031 2.753906 -7.671875 4.015625 -7.671875 C 5.328125 -7.671875 6.300781 -7.242188 6.9375 -6.390625 C 7.4375 -5.734375 7.6875 -4.890625 7.6875 -3.859375 C 7.6875 -3.378906 7.625 -2.914062 7.5 -2.46875 C 7.320312 -1.789062 7.019531 -1.238281 6.59375 -0.8125 Z M 4.125 -0.6875 C 4.332031 -0.6875 4.523438 -0.695312 4.703125 -0.71875 C 4.890625 -0.75 5.050781 -0.8125 5.1875 -0.90625 L 4.375 -1.546875 L 4.875 -2.171875 L 5.859375 -1.40625 C 6.160156 -1.757812 6.363281 -2.15625 6.46875 -2.59375 C 6.582031 -3.03125 6.640625 -3.445312 6.640625 -3.84375 C 6.640625 -4.71875 6.410156 -5.421875 5.953125 -5.953125 C 5.492188 -6.492188 4.867188 -6.765625 4.078125 -6.765625 C 3.265625 -6.765625 2.625 -6.507812 2.15625 -6 C 1.6875 -5.488281 1.453125 -4.695312 1.453125 -3.625 C 1.453125 -2.726562 1.675781 -2.015625 2.125 -1.484375 C 2.582031 -0.953125 3.25 -0.6875 4.125 -0.6875 Z M 4.125 -0.6875 "/>
</g>
<g id="glyph-0-11">
</g>
<g id="glyph-0-12">
<path d="M 3.078125 -7.59375 C 2.546875 -6.550781 2.203125 -5.789062 2.046875 -5.3125 C 1.804688 -4.5625 1.6875 -3.703125 1.6875 -2.734375 C 1.6875 -1.753906 1.820312 -0.859375 2.09375 -0.046875 C 2.257812 0.460938 2.59375 1.1875 3.09375 2.125 L 2.484375 2.125 C 1.984375 1.351562 1.671875 0.859375 1.546875 0.640625 C 1.429688 0.429688 1.304688 0.144531 1.171875 -0.21875 C 0.984375 -0.71875 0.851562 -1.253906 0.78125 -1.828125 C 0.738281 -2.117188 0.71875 -2.398438 0.71875 -2.671875 C 0.71875 -3.671875 0.875 -4.5625 1.1875 -5.34375 C 1.394531 -5.84375 1.8125 -6.59375 2.4375 -7.59375 Z M 3.078125 -7.59375 "/>
</g>
<g id="glyph-0-13">
<path d="M 7.09375 -3.53125 C 7.582031 -3.53125 8 -3.359375 8.34375 -3.015625 C 8.6875 -2.671875 8.859375 -2.253906 8.859375 -1.765625 C 8.859375 -1.273438 8.6875 -0.859375 8.34375 -0.515625 C 8 -0.171875 7.582031 0 7.09375 0 C 6.601562 0 6.179688 -0.171875 5.828125 -0.515625 C 5.484375 -0.859375 5.3125 -1.273438 5.3125 -1.765625 C 5.3125 -2.253906 5.484375 -2.671875 5.828125 -3.015625 C 6.179688 -3.359375 6.601562 -3.53125 7.09375 -3.53125 Z M 6.359375 -7.25 L 6.921875 -7.25 L 2.84375 0.1875 L 2.28125 0.1875 Z M 2.109375 -4.234375 C 2.398438 -4.234375 2.644531 -4.335938 2.84375 -4.546875 C 3.050781 -4.753906 3.15625 -5 3.15625 -5.28125 C 3.15625 -5.570312 3.050781 -5.816406 2.84375 -6.015625 C 2.644531 -6.222656 2.398438 -6.328125 2.109375 -6.328125 C 1.816406 -6.328125 1.566406 -6.222656 1.359375 -6.015625 C 1.160156 -5.816406 1.0625 -5.570312 1.0625 -5.28125 C 1.0625 -5 1.160156 -4.753906 1.359375 -4.546875 C 1.566406 -4.335938 1.816406 -4.234375 2.109375 -4.234375 Z M 2.109375 -7.0625 C 2.597656 -7.0625 3.015625 -6.882812 3.359375 -6.53125 C 3.703125 -6.1875 3.875 -5.769531 3.875 -5.28125 C 3.875 -4.789062 3.703125 -4.375 3.359375 -4.03125 C 3.015625 -3.6875 2.597656 -3.515625 2.109375 -3.515625 C 1.617188 -3.515625 1.195312 -3.6875 0.84375 -4.03125 C 0.5 -4.375 0.328125 -4.789062 0.328125 -5.28125 C 0.328125 -5.769531 0.5 -6.1875 0.84375 -6.53125 C 1.195312 -6.882812 1.617188 -7.0625 2.109375 -7.0625 Z M 7.09375 -0.71875 C 7.382812 -0.71875 7.628906 -0.820312 7.828125 -1.03125 C 8.035156 -1.238281 8.140625 -1.484375 8.140625 -1.765625 C 8.140625 -2.054688 8.035156 -2.300781 7.828125 -2.5 C 7.628906 -2.707031 7.382812 -2.8125 7.09375 -2.8125 C 6.800781 -2.8125 6.550781 -2.707031 6.34375 -2.5 C 6.144531 -2.300781 6.046875 -2.054688 6.046875 -1.765625 C 6.046875 -1.484375 6.144531 -1.238281 6.34375 -1.03125 C 6.550781 -0.820312 6.800781 -0.71875 7.09375 -0.71875 Z M 7.09375 -0.71875 "/>
</g>
<g id="glyph-0-14">
<path d="M 0.703125 -7.46875 L 1.609375 -7.46875 L 1.609375 0 L 0.703125 0 Z M 0.703125 -7.46875 "/>
</g>
<g id="glyph-0-15">
<path d="M 2.9375 -5.5625 C 3.320312 -5.5625 3.695312 -5.46875 4.0625 -5.28125 C 4.425781 -5.101562 4.703125 -4.875 4.890625 -4.59375 C 5.066406 -4.3125 5.1875 -3.988281 5.25 -3.625 C 5.300781 -3.375 5.328125 -2.972656 5.328125 -2.421875 L 1.34375 -2.421875 C 1.363281 -1.867188 1.492188 -1.425781 1.734375 -1.09375 C 1.984375 -0.757812 2.363281 -0.59375 2.875 -0.59375 C 3.351562 -0.59375 3.734375 -0.753906 4.015625 -1.078125 C 4.179688 -1.253906 4.296875 -1.460938 4.359375 -1.703125 L 5.265625 -1.703125 C 5.234375 -1.503906 5.148438 -1.28125 5.015625 -1.03125 C 4.890625 -0.789062 4.742188 -0.59375 4.578125 -0.4375 C 4.296875 -0.164062 3.953125 0.015625 3.546875 0.109375 C 3.328125 0.160156 3.078125 0.1875 2.796875 0.1875 C 2.117188 0.1875 1.539062 -0.0546875 1.0625 -0.546875 C 0.59375 -1.035156 0.359375 -1.722656 0.359375 -2.609375 C 0.359375 -3.484375 0.59375 -4.191406 1.0625 -4.734375 C 1.539062 -5.285156 2.164062 -5.5625 2.9375 -5.5625 Z M 4.390625 -3.15625 C 4.359375 -3.550781 4.273438 -3.867188 4.140625 -4.109375 C 3.890625 -4.546875 3.46875 -4.765625 2.875 -4.765625 C 2.457031 -4.765625 2.101562 -4.613281 1.8125 -4.3125 C 1.53125 -4.007812 1.382812 -3.625 1.375 -3.15625 Z M 2.84375 -5.578125 Z M 2.84375 -5.578125 "/>
</g>
<g id="glyph-0-16">
<path d="M 1.21875 -1.703125 C 1.238281 -1.398438 1.3125 -1.164062 1.4375 -1 C 1.664062 -0.707031 2.066406 -0.5625 2.640625 -0.5625 C 2.984375 -0.5625 3.28125 -0.632812 3.53125 -0.78125 C 3.789062 -0.925781 3.921875 -1.15625 3.921875 -1.46875 C 3.921875 -1.695312 3.816406 -1.875 3.609375 -2 C 3.484375 -2.070312 3.222656 -2.160156 2.828125 -2.265625 L 2.109375 -2.4375 C 1.640625 -2.550781 1.296875 -2.679688 1.078125 -2.828125 C 0.679688 -3.078125 0.484375 -3.421875 0.484375 -3.859375 C 0.484375 -4.367188 0.664062 -4.78125 1.03125 -5.09375 C 1.40625 -5.414062 1.910156 -5.578125 2.546875 -5.578125 C 3.359375 -5.578125 3.945312 -5.335938 4.3125 -4.859375 C 4.539062 -4.554688 4.648438 -4.226562 4.640625 -3.875 L 3.78125 -3.875 C 3.757812 -4.082031 3.6875 -4.269531 3.5625 -4.4375 C 3.351562 -4.675781 2.988281 -4.796875 2.46875 -4.796875 C 2.125 -4.796875 1.863281 -4.726562 1.6875 -4.59375 C 1.507812 -4.46875 1.421875 -4.296875 1.421875 -4.078125 C 1.421875 -3.835938 1.535156 -3.648438 1.765625 -3.515625 C 1.898438 -3.429688 2.101562 -3.351562 2.375 -3.28125 L 2.96875 -3.140625 C 3.625 -2.984375 4.066406 -2.828125 4.296875 -2.671875 C 4.648438 -2.441406 4.828125 -2.078125 4.828125 -1.578125 C 4.828125 -1.085938 4.640625 -0.664062 4.265625 -0.3125 C 3.898438 0.0273438 3.34375 0.203125 2.59375 0.203125 C 1.78125 0.203125 1.207031 0.0195312 0.875 -0.34375 C 0.539062 -0.707031 0.359375 -1.160156 0.328125 -1.703125 Z M 2.5625 -5.578125 Z M 2.5625 -5.578125 "/>
</g>
<g id="glyph-0-17">
<path d="M 0.46875 -2.21875 L 0.46875 -3.078125 L 2.6875 -3.078125 L 2.6875 -5.3125 L 3.546875 -5.3125 L 3.546875 -3.078125 L 5.765625 -3.078125 L 5.765625 -2.21875 L 3.546875 -2.21875 L 3.546875 0 L 2.6875 0 L 2.6875 -2.21875 Z M 0.46875 -2.21875 "/>
</g>
<g id="glyph-0-18">
<path d="M 2.96875 -0.609375 C 3.394531 -0.609375 3.75 -0.785156 4.03125 -1.140625 C 4.3125 -1.503906 4.453125 -2.039062 4.453125 -2.75 C 4.453125 -3.1875 4.390625 -3.5625 4.265625 -3.875 C 4.023438 -4.46875 3.59375 -4.765625 2.96875 -4.765625 C 2.332031 -4.765625 1.898438 -4.453125 1.671875 -3.828125 C 1.546875 -3.484375 1.484375 -3.050781 1.484375 -2.53125 C 1.484375 -2.113281 1.546875 -1.753906 1.671875 -1.453125 C 1.898438 -0.890625 2.332031 -0.609375 2.96875 -0.609375 Z M 0.59375 -5.421875 L 1.484375 -5.421875 L 1.484375 -4.6875 C 1.671875 -4.9375 1.875 -5.128906 2.09375 -5.265625 C 2.394531 -5.472656 2.753906 -5.578125 3.171875 -5.578125 C 3.785156 -5.578125 4.304688 -5.335938 4.734375 -4.859375 C 5.171875 -4.390625 5.390625 -3.71875 5.390625 -2.84375 C 5.390625 -1.65625 5.082031 -0.804688 4.46875 -0.296875 C 4.070312 0.0234375 3.613281 0.1875 3.09375 0.1875 C 2.675781 0.1875 2.332031 0.0898438 2.0625 -0.09375 C 1.894531 -0.1875 1.710938 -0.359375 1.515625 -0.609375 L 1.515625 2.171875 L 0.59375 2.171875 Z M 0.59375 -5.421875 "/>
</g>
<g id="glyph-0-19">
<path d="M 1.375 -1.453125 C 1.375 -1.179688 1.46875 -0.96875 1.65625 -0.8125 C 1.851562 -0.664062 2.082031 -0.59375 2.34375 -0.59375 C 2.664062 -0.59375 2.976562 -0.664062 3.28125 -0.8125 C 3.789062 -1.0625 4.046875 -1.46875 4.046875 -2.03125 L 4.046875 -2.765625 C 3.929688 -2.691406 3.785156 -2.628906 3.609375 -2.578125 C 3.429688 -2.535156 3.257812 -2.503906 3.09375 -2.484375 L 2.546875 -2.421875 C 2.210938 -2.378906 1.960938 -2.304688 1.796875 -2.203125 C 1.515625 -2.046875 1.375 -1.796875 1.375 -1.453125 Z M 3.59375 -3.296875 C 3.800781 -3.328125 3.941406 -3.414062 4.015625 -3.5625 C 4.046875 -3.644531 4.0625 -3.757812 4.0625 -3.90625 C 4.0625 -4.21875 3.953125 -4.441406 3.734375 -4.578125 C 3.515625 -4.722656 3.195312 -4.796875 2.78125 -4.796875 C 2.300781 -4.796875 1.960938 -4.671875 1.765625 -4.421875 C 1.648438 -4.273438 1.578125 -4.0625 1.546875 -3.78125 L 0.703125 -3.78125 C 0.710938 -4.445312 0.925781 -4.910156 1.34375 -5.171875 C 1.769531 -5.441406 2.257812 -5.578125 2.8125 -5.578125 C 3.445312 -5.578125 3.960938 -5.453125 4.359375 -5.203125 C 4.753906 -4.960938 4.953125 -4.582031 4.953125 -4.0625 L 4.953125 -0.9375 C 4.953125 -0.84375 4.972656 -0.765625 5.015625 -0.703125 C 5.054688 -0.648438 5.140625 -0.625 5.265625 -0.625 C 5.304688 -0.625 5.351562 -0.625 5.40625 -0.625 C 5.457031 -0.632812 5.507812 -0.644531 5.5625 -0.65625 L 5.5625 0.03125 C 5.414062 0.0703125 5.304688 0.09375 5.234375 0.09375 C 5.160156 0.101562 5.0625 0.109375 4.9375 0.109375 C 4.625 0.109375 4.394531 0 4.25 -0.21875 C 4.175781 -0.332031 4.125 -0.5 4.09375 -0.71875 C 3.90625 -0.476562 3.632812 -0.265625 3.28125 -0.078125 C 2.9375 0.0976562 2.554688 0.1875 2.140625 0.1875 C 1.628906 0.1875 1.210938 0.0351562 0.890625 -0.265625 C 0.578125 -0.578125 0.421875 -0.960938 0.421875 -1.421875 C 0.421875 -1.929688 0.578125 -2.320312 0.890625 -2.59375 C 1.203125 -2.875 1.613281 -3.046875 2.125 -3.109375 Z M 2.828125 -5.578125 Z M 2.828125 -5.578125 "/>
</g>
<g id="glyph-0-20">
<path d="M 1.578125 -5.4375 L 1.578125 -1.828125 C 1.578125 -1.546875 1.625 -1.316406 1.71875 -1.140625 C 1.882812 -0.816406 2.1875 -0.65625 2.625 -0.65625 C 3.257812 -0.65625 3.691406 -0.941406 3.921875 -1.515625 C 4.046875 -1.816406 4.109375 -2.234375 4.109375 -2.765625 L 4.109375 -5.4375 L 5.03125 -5.4375 L 5.03125 0 L 4.171875 0 L 4.171875 -0.796875 C 4.054688 -0.597656 3.910156 -0.425781 3.734375 -0.28125 C 3.390625 0 2.96875 0.140625 2.46875 0.140625 C 1.6875 0.140625 1.15625 -0.113281 0.875 -0.625 C 0.726562 -0.90625 0.65625 -1.28125 0.65625 -1.75 L 0.65625 -5.4375 Z M 2.84375 -5.578125 Z M 2.84375 -5.578125 "/>
</g>
<g id="glyph-0-21">
<path d="M 1.125 -5.4375 L 2.578125 -1.015625 L 4.09375 -5.4375 L 5.09375 -5.4375 L 3.03125 0 L 2.0625 0 L 0.0625 -5.4375 Z M 1.125 -5.4375 "/>
</g>
<g id="glyph-0-22">
<path d="M 0.703125 -5.4375 L 1.5625 -5.4375 L 1.5625 -4.5 C 1.632812 -4.6875 1.804688 -4.910156 2.078125 -5.171875 C 2.359375 -5.429688 2.679688 -5.5625 3.046875 -5.5625 C 3.066406 -5.5625 3.097656 -5.554688 3.140625 -5.546875 C 3.179688 -5.546875 3.25 -5.539062 3.34375 -5.53125 L 3.34375 -4.578125 C 3.289062 -4.585938 3.238281 -4.59375 3.1875 -4.59375 C 3.144531 -4.59375 3.097656 -4.59375 3.046875 -4.59375 C 2.585938 -4.59375 2.234375 -4.441406 1.984375 -4.140625 C 1.734375 -3.847656 1.609375 -3.507812 1.609375 -3.125 L 1.609375 0 L 0.703125 0 Z M 0.703125 -5.4375 "/>
</g>
<g id="glyph-0-23">
<path d="M 0.359375 2.125 C 0.898438 1.070312 1.25 0.304688 1.40625 -0.171875 C 1.644531 -0.898438 1.765625 -1.753906 1.765625 -2.734375 C 1.765625 -3.710938 1.625 -4.609375 1.34375 -5.421875 C 1.175781 -5.921875 0.84375 -6.644531 0.34375 -7.59375 L 0.953125 -7.59375 C 1.484375 -6.757812 1.800781 -6.242188 1.90625 -6.046875 C 2.019531 -5.847656 2.140625 -5.578125 2.265625 -5.234375 C 2.429688 -4.816406 2.546875 -4.398438 2.609375 -3.984375 C 2.679688 -3.566406 2.71875 -3.171875 2.71875 -2.796875 C 2.71875 -1.785156 2.554688 -0.890625 2.234375 -0.109375 C 2.035156 0.398438 1.625 1.144531 1 2.125 Z M 0.359375 2.125 "/>
</g>
<g id="glyph-0-24">
<path d="M 0.671875 -5.421875 L 1.59375 -5.421875 L 1.59375 0 L 0.671875 0 Z M 0.671875 -7.46875 L 1.59375 -7.46875 L 1.59375 -6.421875 L 0.671875 -6.421875 Z M 0.671875 -7.46875 "/>
</g>
<g id="glyph-0-25">
<path d="M 2.765625 -5.59375 C 3.378906 -5.59375 3.878906 -5.441406 4.265625 -5.140625 C 4.648438 -4.847656 4.878906 -4.335938 4.953125 -3.609375 L 4.0625 -3.609375 C 4.007812 -3.941406 3.882812 -4.21875 3.6875 -4.4375 C 3.5 -4.664062 3.191406 -4.78125 2.765625 -4.78125 C 2.179688 -4.78125 1.765625 -4.492188 1.515625 -3.921875 C 1.359375 -3.554688 1.28125 -3.101562 1.28125 -2.5625 C 1.28125 -2.019531 1.394531 -1.5625 1.625 -1.1875 C 1.851562 -0.8125 2.210938 -0.625 2.703125 -0.625 C 3.085938 -0.625 3.390625 -0.738281 3.609375 -0.96875 C 3.828125 -1.207031 3.976562 -1.523438 4.0625 -1.921875 L 4.953125 -1.921875 C 4.859375 -1.203125 4.609375 -0.675781 4.203125 -0.34375 C 3.796875 -0.0078125 3.273438 0.15625 2.640625 0.15625 C 1.921875 0.15625 1.347656 -0.101562 0.921875 -0.625 C 0.503906 -1.144531 0.296875 -1.796875 0.296875 -2.578125 C 0.296875 -3.523438 0.523438 -4.265625 0.984375 -4.796875 C 1.453125 -5.328125 2.046875 -5.59375 2.765625 -5.59375 Z M 2.625 -5.578125 Z M 2.625 -5.578125 "/>
</g>
<g id="glyph-0-26">
<path d="M 0.671875 -7.484375 L 1.578125 -7.484375 L 1.578125 -4.703125 C 1.796875 -4.972656 1.992188 -5.164062 2.171875 -5.28125 C 2.460938 -5.476562 2.828125 -5.578125 3.265625 -5.578125 C 4.054688 -5.578125 4.59375 -5.300781 4.875 -4.75 C 5.03125 -4.445312 5.109375 -4.023438 5.109375 -3.484375 L 5.109375 0 L 4.171875 0 L 4.171875 -3.4375 C 4.171875 -3.832031 4.117188 -4.125 4.015625 -4.3125 C 3.847656 -4.601562 3.535156 -4.75 3.078125 -4.75 C 2.703125 -4.75 2.359375 -4.617188 2.046875 -4.359375 C 1.734375 -4.097656 1.578125 -3.609375 1.578125 -2.890625 L 1.578125 0 L 0.671875 0 Z M 0.671875 -7.484375 "/>
</g>
<g id="glyph-1-0">
<path d="M 0.421875 0 L 0.421875 -9.328125 L 7.828125 -9.328125 L 7.828125 0 Z M 6.65625 -1.171875 L 6.65625 -8.15625 L 1.59375 -8.15625 L 1.59375 -1.171875 Z M 6.65625 -1.171875 "/>
</g>
<g id="glyph-1-1">
<path d="M 5.78125 -3.828125 L 4.359375 -7.9375 L 2.859375 -3.828125 Z M 3.703125 -9.328125 L 5.125 -9.328125 L 8.515625 0 L 7.125 0 L 6.1875 -2.796875 L 2.5 -2.796875 L 1.484375 0 L 0.1875 0 Z M 3.703125 -9.328125 "/>
</g>
<g id="glyph-1-2">
<path d="M 0.84375 -6.796875 L 1.921875 -6.796875 L 1.921875 -5.828125 C 2.242188 -6.234375 2.582031 -6.519531 2.9375 -6.6875 C 3.300781 -6.863281 3.703125 -6.953125 4.140625 -6.953125 C 5.109375 -6.953125 5.757812 -6.613281 6.09375 -5.9375 C 6.28125 -5.570312 6.375 -5.046875 6.375 -4.359375 L 6.375 0 L 5.21875 0 L 5.21875 -4.28125 C 5.21875 -4.695312 5.15625 -5.03125 5.03125 -5.28125 C 4.832031 -5.707031 4.460938 -5.921875 3.921875 -5.921875 C 3.648438 -5.921875 3.429688 -5.894531 3.265625 -5.84375 C 2.953125 -5.75 2.675781 -5.5625 2.4375 -5.28125 C 2.25 -5.050781 2.125 -4.816406 2.0625 -4.578125 C 2.007812 -4.347656 1.984375 -4.007812 1.984375 -3.5625 L 1.984375 0 L 0.84375 0 Z M 3.515625 -6.96875 Z M 3.515625 -6.96875 "/>
</g>
<g id="glyph-1-3">
<path d="M 3.671875 -6.953125 C 4.148438 -6.953125 4.613281 -6.835938 5.0625 -6.609375 C 5.519531 -6.378906 5.867188 -6.085938 6.109375 -5.734375 C 6.335938 -5.390625 6.488281 -4.988281 6.5625 -4.53125 C 6.632812 -4.21875 6.671875 -3.71875 6.671875 -3.03125 L 1.6875 -3.03125 C 1.707031 -2.34375 1.867188 -1.789062 2.171875 -1.375 C 2.472656 -0.957031 2.945312 -0.75 3.59375 -0.75 C 4.1875 -0.75 4.660156 -0.945312 5.015625 -1.34375 C 5.210938 -1.570312 5.359375 -1.835938 5.453125 -2.140625 L 6.5625 -2.140625 C 6.539062 -1.890625 6.445312 -1.609375 6.28125 -1.296875 C 6.113281 -0.992188 5.925781 -0.742188 5.71875 -0.546875 C 5.363281 -0.203125 4.929688 0.0234375 4.421875 0.140625 C 4.148438 0.203125 3.835938 0.234375 3.484375 0.234375 C 2.640625 0.234375 1.921875 -0.0703125 1.328125 -0.6875 C 0.742188 -1.300781 0.453125 -2.160156 0.453125 -3.265625 C 0.453125 -4.359375 0.75 -5.242188 1.34375 -5.921875 C 1.9375 -6.609375 2.710938 -6.953125 3.671875 -6.953125 Z M 5.484375 -3.9375 C 5.441406 -4.4375 5.335938 -4.832031 5.171875 -5.125 C 4.859375 -5.675781 4.332031 -5.953125 3.59375 -5.953125 C 3.070312 -5.953125 2.632812 -5.757812 2.28125 -5.375 C 1.925781 -5 1.738281 -4.519531 1.71875 -3.9375 Z M 3.5625 -6.96875 Z M 5 -9.53125 L 3.296875 -7.703125 L 2.421875 -7.703125 L 3.578125 -9.53125 Z M 5 -9.53125 "/>
</g>
<g id="glyph-1-4">
<path d="M 3.671875 -6.953125 C 4.148438 -6.953125 4.613281 -6.835938 5.0625 -6.609375 C 5.519531 -6.378906 5.867188 -6.085938 6.109375 -5.734375 C 6.335938 -5.390625 6.488281 -4.988281 6.5625 -4.53125 C 6.632812 -4.21875 6.671875 -3.71875 6.671875 -3.03125 L 1.6875 -3.03125 C 1.707031 -2.34375 1.867188 -1.789062 2.171875 -1.375 C 2.472656 -0.957031 2.945312 -0.75 3.59375 -0.75 C 4.1875 -0.75 4.660156 -0.945312 5.015625 -1.34375 C 5.210938 -1.570312 5.359375 -1.835938 5.453125 -2.140625 L 6.5625 -2.140625 C 6.539062 -1.890625 6.445312 -1.609375 6.28125 -1.296875 C 6.113281 -0.992188 5.925781 -0.742188 5.71875 -0.546875 C 5.363281 -0.203125 4.929688 0.0234375 4.421875 0.140625 C 4.148438 0.203125 3.835938 0.234375 3.484375 0.234375 C 2.640625 0.234375 1.921875 -0.0703125 1.328125 -0.6875 C 0.742188 -1.300781 0.453125 -2.160156 0.453125 -3.265625 C 0.453125 -4.359375 0.75 -5.242188 1.34375 -5.921875 C 1.9375 -6.609375 2.710938 -6.953125 3.671875 -6.953125 Z M 5.484375 -3.9375 C 5.441406 -4.4375 5.335938 -4.832031 5.171875 -5.125 C 4.859375 -5.675781 4.332031 -5.953125 3.59375 -5.953125 C 3.070312 -5.953125 2.632812 -5.757812 2.28125 -5.375 C 1.925781 -5 1.738281 -4.519531 1.71875 -3.9375 Z M 3.5625 -6.96875 Z M 3.5625 -6.96875 "/>
</g>
<g id="glyph-1-5">
<path d="M 9.515625 -0.03125 L 8.890625 0.75 L 7.453125 -0.359375 C 7.097656 -0.160156 6.71875 -0.0078125 6.3125 0.09375 C 5.914062 0.207031 5.476562 0.265625 5 0.265625 C 3.550781 0.265625 2.414062 -0.207031 1.59375 -1.15625 C 0.875 -2.070312 0.515625 -3.222656 0.515625 -4.609375 C 0.515625 -5.867188 0.828125 -6.953125 1.453125 -7.859375 C 2.253906 -9.003906 3.441406 -9.578125 5.015625 -9.578125 C 6.660156 -9.578125 7.878906 -9.046875 8.671875 -7.984375 C 9.285156 -7.160156 9.59375 -6.109375 9.59375 -4.828125 C 9.59375 -4.222656 9.519531 -3.644531 9.375 -3.09375 C 9.15625 -2.25 8.773438 -1.554688 8.234375 -1.015625 Z M 5.140625 -0.859375 C 5.410156 -0.859375 5.660156 -0.875 5.890625 -0.90625 C 6.117188 -0.945312 6.316406 -1.019531 6.484375 -1.125 L 5.453125 -1.921875 L 6.09375 -2.703125 L 7.3125 -1.765625 C 7.695312 -2.203125 7.957031 -2.691406 8.09375 -3.234375 C 8.226562 -3.785156 8.296875 -4.3125 8.296875 -4.8125 C 8.296875 -5.90625 8.007812 -6.785156 7.4375 -7.453125 C 6.863281 -8.117188 6.082031 -8.453125 5.09375 -8.453125 C 4.082031 -8.453125 3.28125 -8.128906 2.6875 -7.484375 C 2.101562 -6.847656 1.8125 -5.863281 1.8125 -4.53125 C 1.8125 -3.40625 2.09375 -2.507812 2.65625 -1.84375 C 3.226562 -1.1875 4.054688 -0.859375 5.140625 -0.859375 Z M 5.140625 -0.859375 "/>
</g>
<g id="glyph-1-6">
<path d="M 1.984375 -6.796875 L 1.984375 -2.28125 C 1.984375 -1.9375 2.035156 -1.65625 2.140625 -1.4375 C 2.347656 -1.03125 2.726562 -0.828125 3.28125 -0.828125 C 4.070312 -0.828125 4.613281 -1.179688 4.90625 -1.890625 C 5.0625 -2.273438 5.140625 -2.796875 5.140625 -3.453125 L 5.140625 -6.796875 L 6.28125 -6.796875 L 6.28125 0 L 5.203125 0 L 5.21875 -1 C 5.070312 -0.738281 4.890625 -0.519531 4.671875 -0.34375 C 4.234375 0.0078125 3.703125 0.1875 3.078125 0.1875 C 2.109375 0.1875 1.445312 -0.132812 1.09375 -0.78125 C 0.90625 -1.132812 0.8125 -1.597656 0.8125 -2.171875 L 0.8125 -6.796875 Z M 3.546875 -6.96875 Z M 3.546875 -6.96875 "/>
</g>
<g id="glyph-1-7">
<path d="M 0.84375 -6.765625 L 2 -6.765625 L 2 0 L 0.84375 0 Z M 0.84375 -9.328125 L 2 -9.328125 L 2 -8.03125 L 0.84375 -8.03125 Z M 0.84375 -9.328125 "/>
</g>
<g id="glyph-1-8">
<path d="M 1.0625 -8.703125 L 2.21875 -8.703125 L 2.21875 -6.796875 L 3.3125 -6.796875 L 3.3125 -5.859375 L 2.21875 -5.859375 L 2.21875 -1.421875 C 2.21875 -1.191406 2.300781 -1.035156 2.46875 -0.953125 C 2.550781 -0.898438 2.695312 -0.875 2.90625 -0.875 C 2.957031 -0.875 3.015625 -0.875 3.078125 -0.875 C 3.148438 -0.882812 3.226562 -0.894531 3.3125 -0.90625 L 3.3125 0 C 3.175781 0.0390625 3.035156 0.0664062 2.890625 0.078125 C 2.753906 0.0976562 2.601562 0.109375 2.4375 0.109375 C 1.90625 0.109375 1.539062 -0.0234375 1.34375 -0.296875 C 1.15625 -0.578125 1.0625 -0.929688 1.0625 -1.359375 L 1.0625 -5.859375 L 0.140625 -5.859375 L 0.140625 -6.796875 L 1.0625 -6.796875 Z M 1.0625 -8.703125 "/>
</g>
<g id="glyph-1-9">
<path d="M 0.875 -9.328125 L 2.015625 -9.328125 L 2.015625 0 L 0.875 0 Z M 0.875 -9.328125 "/>
</g>
<g id="glyph-2-0">
<path d="M 0 -0.421875 L -9.328125 -0.421875 L -9.328125 -7.828125 L 0 -7.828125 Z M -1.171875 -6.65625 L -8.15625 -6.65625 L -8.15625 -1.59375 L -1.171875 -1.59375 Z M -1.171875 -6.65625 "/>
</g>
<g id="glyph-2-1">
<path d="M -4.421875 -8.859375 C -4.421875 -9.472656 -4.203125 -9.992188 -3.765625 -10.421875 C -3.335938 -10.859375 -2.816406 -11.078125 -2.203125 -11.078125 C -1.597656 -11.078125 -1.078125 -10.859375 -0.640625 -10.421875 C -0.210938 -9.992188 0 -9.472656 0 -8.859375 C 0 -8.242188 -0.210938 -7.71875 -0.640625 -7.28125 C -1.078125 -6.851562 -1.597656 -6.640625 -2.203125 -6.640625 C -2.816406 -6.640625 -3.335938 -6.851562 -3.765625 -7.28125 C -4.203125 -7.71875 -4.421875 -8.242188 -4.421875 -8.859375 Z M -9.046875 -7.9375 L -9.046875 -8.640625 L 0.234375 -3.5625 L 0.234375 -2.859375 Z M -5.296875 -2.625 C -5.296875 -2.988281 -5.421875 -3.296875 -5.671875 -3.546875 C -5.929688 -3.804688 -6.242188 -3.9375 -6.609375 -3.9375 C -6.960938 -3.9375 -7.265625 -3.804688 -7.515625 -3.546875 C -7.773438 -3.296875 -7.90625 -2.988281 -7.90625 -2.625 C -7.90625 -2.269531 -7.773438 -1.960938 -7.515625 -1.703125 C -7.265625 -1.453125 -6.960938 -1.328125 -6.609375 -1.328125 C -6.242188 -1.328125 -5.929688 -1.453125 -5.671875 -1.703125 C -5.421875 -1.960938 -5.296875 -2.269531 -5.296875 -2.625 Z M -8.8125 -2.625 C -8.8125 -3.238281 -8.59375 -3.757812 -8.15625 -4.1875 C -7.726562 -4.625 -7.210938 -4.84375 -6.609375 -4.84375 C -5.992188 -4.84375 -5.46875 -4.625 -5.03125 -4.1875 C -4.601562 -3.757812 -4.390625 -3.238281 -4.390625 -2.625 C -4.390625 -2.019531 -4.601562 -1.5 -5.03125 -1.0625 C -5.46875 -0.632812 -5.992188 -0.421875 -6.609375 -0.421875 C -7.210938 -0.421875 -7.726562 -0.632812 -8.15625 -1.0625 C -8.59375 -1.5 -8.8125 -2.019531 -8.8125 -2.625 Z M -0.90625 -8.859375 C -0.90625 -9.222656 -1.03125 -9.53125 -1.28125 -9.78125 C -1.539062 -10.039062 -1.847656 -10.171875 -2.203125 -10.171875 C -2.566406 -10.171875 -2.875 -10.039062 -3.125 -9.78125 C -3.382812 -9.53125 -3.515625 -9.222656 -3.515625 -8.859375 C -3.515625 -8.492188 -3.382812 -8.179688 -3.125 -7.921875 C -2.875 -7.671875 -2.566406 -7.546875 -2.203125 -7.546875 C -1.847656 -7.546875 -1.539062 -7.671875 -1.28125 -7.921875 C -1.03125 -8.179688 -0.90625 -8.492188 -0.90625 -8.859375 Z M -0.90625 -8.859375 "/>
</g>
<g id="glyph-2-2">
</g>
<g id="glyph-2-3">
<path d="M -3.3125 -1.5625 C -2.59375 -1.5625 -1.984375 -1.710938 -1.484375 -2.015625 C -0.992188 -2.328125 -0.75 -2.828125 -0.75 -3.515625 C -0.75 -4.035156 -0.976562 -4.46875 -1.4375 -4.8125 C -1.894531 -5.15625 -2.546875 -5.328125 -3.390625 -5.328125 C -4.253906 -5.328125 -4.890625 -5.148438 -5.296875 -4.796875 C -5.710938 -4.441406 -5.921875 -4.007812 -5.921875 -3.5 C -5.921875 -2.925781 -5.703125 -2.457031 -5.265625 -2.09375 C -4.828125 -1.738281 -4.175781 -1.5625 -3.3125 -1.5625 Z M -6.921875 -3.28125 C -6.921875 -3.800781 -6.8125 -4.238281 -6.59375 -4.59375 C -6.46875 -4.789062 -6.242188 -5.019531 -5.921875 -5.28125 L -9.359375 -5.28125 L -9.359375 -6.375 L 0 -6.375 L 0 -5.34375 L -0.953125 -5.34375 C -0.523438 -5.082031 -0.21875 -4.769531 -0.03125 -4.40625 C 0.144531 -4.039062 0.234375 -3.625 0.234375 -3.15625 C 0.234375 -2.394531 -0.0820312 -1.738281 -0.71875 -1.1875 C -1.351562 -0.632812 -2.195312 -0.359375 -3.25 -0.359375 C -4.238281 -0.359375 -5.097656 -0.609375 -5.828125 -1.109375 C -6.554688 -1.617188 -6.921875 -2.34375 -6.921875 -3.28125 Z M -6.921875 -3.28125 "/>
</g>
<g id="glyph-2-4">
<path d="M -6.796875 -1.984375 L -2.28125 -1.984375 C -1.9375 -1.984375 -1.65625 -2.035156 -1.4375 -2.140625 C -1.03125 -2.347656 -0.828125 -2.726562 -0.828125 -3.28125 C -0.828125 -4.070312 -1.179688 -4.613281 -1.890625 -4.90625 C -2.273438 -5.0625 -2.796875 -5.140625 -3.453125 -5.140625 L -6.796875 -5.140625 L -6.796875 -6.28125 L 0 -6.28125 L 0 -5.203125 L -1 -5.21875 C -0.738281 -5.070312 -0.519531 -4.890625 -0.34375 -4.671875 C 0.0078125 -4.234375 0.1875 -3.703125 0.1875 -3.078125 C 0.1875 -2.109375 -0.132812 -1.445312 -0.78125 -1.09375 C -1.132812 -0.90625 -1.597656 -0.8125 -2.171875 -0.8125 L -6.796875 -0.8125 Z M -6.96875 -3.546875 Z M -6.96875 -3.546875 "/>
</g>
<g id="glyph-2-5">
<path d="M -6.796875 -0.84375 L -6.796875 -1.921875 L -5.828125 -1.921875 C -6.234375 -2.242188 -6.519531 -2.582031 -6.6875 -2.9375 C -6.863281 -3.300781 -6.953125 -3.703125 -6.953125 -4.140625 C -6.953125 -5.109375 -6.613281 -5.757812 -5.9375 -6.09375 C -5.570312 -6.28125 -5.046875 -6.375 -4.359375 -6.375 L 0 -6.375 L 0 -5.21875 L -4.28125 -5.21875 C -4.695312 -5.21875 -5.03125 -5.15625 -5.28125 -5.03125 C -5.707031 -4.832031 -5.921875 -4.460938 -5.921875 -3.921875 C -5.921875 -3.648438 -5.894531 -3.429688 -5.84375 -3.265625 C -5.75 -2.953125 -5.5625 -2.675781 -5.28125 -2.4375 C -5.050781 -2.25 -4.816406 -2.125 -4.578125 -2.0625 C -4.347656 -2.007812 -4.007812 -1.984375 -3.5625 -1.984375 L 0 -1.984375 L 0 -0.84375 Z M -6.96875 -3.515625 Z M -6.96875 -3.515625 "/>
</g>
<g id="glyph-2-6">
<path d="M -6.765625 -0.84375 L -6.765625 -2 L 0 -2 L 0 -0.84375 Z M -9.328125 -0.84375 L -9.328125 -2 L -8.03125 -2 L -8.03125 -0.84375 Z M -9.328125 -0.84375 "/>
</g>
<g id="glyph-2-7">
<path d="M -6.796875 -1.390625 L -1.265625 -3.21875 L -6.796875 -5.109375 L -6.796875 -6.359375 L 0 -3.796875 L 0 -2.578125 L -6.796875 -0.0625 Z M -6.796875 -1.390625 "/>
</g>
<g id="glyph-2-8">
<path d="M -6.953125 -3.671875 C -6.953125 -4.148438 -6.835938 -4.613281 -6.609375 -5.0625 C -6.378906 -5.519531 -6.085938 -5.867188 -5.734375 -6.109375 C -5.390625 -6.335938 -4.988281 -6.488281 -4.53125 -6.5625 C -4.21875 -6.632812 -3.71875 -6.671875 -3.03125 -6.671875 L -3.03125 -1.6875 C -2.34375 -1.707031 -1.789062 -1.867188 -1.375 -2.171875 C -0.957031 -2.472656 -0.75 -2.945312 -0.75 -3.59375 C -0.75 -4.1875 -0.945312 -4.660156 -1.34375 -5.015625 C -1.570312 -5.210938 -1.835938 -5.359375 -2.140625 -5.453125 L -2.140625 -6.5625 C -1.890625 -6.539062 -1.609375 -6.445312 -1.296875 -6.28125 C -0.992188 -6.113281 -0.742188 -5.925781 -0.546875 -5.71875 C -0.203125 -5.363281 0.0234375 -4.929688 0.140625 -4.421875 C 0.203125 -4.148438 0.234375 -3.835938 0.234375 -3.484375 C 0.234375 -2.640625 -0.0703125 -1.921875 -0.6875 -1.328125 C -1.300781 -0.742188 -2.160156 -0.453125 -3.265625 -0.453125 C -4.359375 -0.453125 -5.242188 -0.75 -5.921875 -1.34375 C -6.609375 -1.9375 -6.953125 -2.710938 -6.953125 -3.671875 Z M -3.9375 -5.484375 C -4.4375 -5.441406 -4.832031 -5.335938 -5.125 -5.171875 C -5.675781 -4.859375 -5.953125 -4.332031 -5.953125 -3.59375 C -5.953125 -3.070312 -5.757812 -2.632812 -5.375 -2.28125 C -5 -1.925781 -4.519531 -1.738281 -3.9375 -1.71875 Z M -6.96875 -3.5625 Z M -6.96875 -3.5625 "/>
</g>
<g id="glyph-2-9">
<path d="M -1.8125 -1.71875 C -1.476562 -1.71875 -1.21875 -1.835938 -1.03125 -2.078125 C -0.84375 -2.316406 -0.75 -2.601562 -0.75 -2.9375 C -0.75 -3.332031 -0.835938 -3.71875 -1.015625 -4.09375 C -1.328125 -4.726562 -1.835938 -5.046875 -2.546875 -5.046875 L -3.453125 -5.046875 C -3.367188 -4.910156 -3.296875 -4.734375 -3.234375 -4.515625 C -3.179688 -4.296875 -3.140625 -4.078125 -3.109375 -3.859375 L -3.015625 -3.171875 C -2.960938 -2.753906 -2.878906 -2.441406 -2.765625 -2.234375 C -2.566406 -1.890625 -2.25 -1.71875 -1.8125 -1.71875 Z M -4.125 -4.484375 C -4.15625 -4.742188 -4.265625 -4.921875 -4.453125 -5.015625 C -4.554688 -5.054688 -4.703125 -5.078125 -4.890625 -5.078125 C -5.273438 -5.078125 -5.554688 -4.9375 -5.734375 -4.65625 C -5.910156 -4.382812 -6 -3.992188 -6 -3.484375 C -6 -2.878906 -5.835938 -2.453125 -5.515625 -2.203125 C -5.335938 -2.066406 -5.070312 -1.976562 -4.71875 -1.9375 L -4.71875 -0.875 C -5.5625 -0.894531 -6.144531 -1.164062 -6.46875 -1.6875 C -6.800781 -2.207031 -6.96875 -2.8125 -6.96875 -3.5 C -6.96875 -4.300781 -6.8125 -4.953125 -6.5 -5.453125 C -6.195312 -5.953125 -5.722656 -6.203125 -5.078125 -6.203125 L -1.171875 -6.203125 C -1.046875 -6.203125 -0.945312 -6.222656 -0.875 -6.265625 C -0.8125 -6.316406 -0.78125 -6.421875 -0.78125 -6.578125 C -0.78125 -6.628906 -0.78125 -6.6875 -0.78125 -6.75 C -0.789062 -6.8125 -0.800781 -6.878906 -0.8125 -6.953125 L 0.03125 -6.953125 C 0.0820312 -6.773438 0.113281 -6.640625 0.125 -6.546875 C 0.132812 -6.453125 0.140625 -6.320312 0.140625 -6.15625 C 0.140625 -5.769531 0.00390625 -5.488281 -0.265625 -5.3125 C -0.421875 -5.21875 -0.632812 -5.148438 -0.90625 -5.109375 C -0.59375 -4.878906 -0.320312 -4.546875 -0.09375 -4.109375 C 0.121094 -3.671875 0.234375 -3.191406 0.234375 -2.671875 C 0.234375 -2.035156 0.0390625 -1.515625 -0.34375 -1.109375 C -0.726562 -0.710938 -1.207031 -0.515625 -1.78125 -0.515625 C -2.414062 -0.515625 -2.90625 -0.710938 -3.25 -1.109375 C -3.59375 -1.503906 -3.804688 -2.019531 -3.890625 -2.65625 Z M -6.96875 -3.53125 Z M -6.96875 -3.53125 "/>
</g>
</g>
<clipPath id="clip-0">
<path clip-rule="nonzero" d="M 40.542969 149 L 194.867188 149 L 194.867188 151 L 40.542969 151 Z M 40.542969 149 "/>
</clipPath>
<clipPath id="clip-1">
<path clip-rule="nonzero" d="M 40.542969 112 L 194.867188 112 L 194.867188 114 L 40.542969 114 Z M 40.542969 112 "/>
</clipPath>
<clipPath id="clip-2">
<path clip-rule="nonzero" d="M 40.542969 74 L 194.867188 74 L 194.867188 76 L 40.542969 76 Z M 40.542969 74 "/>
</clipPath>
<clipPath id="clip-3">
<path clip-rule="nonzero" d="M 40.542969 37 L 194.867188 37 L 194.867188 39 L 40.542969 39 Z M 40.542969 37 "/>
</clipPath>
<clipPath id="clip-4">
<path clip-rule="nonzero" d="M 61 6.476562 L 62 6.476562 L 62 179.460938 L 61 179.460938 Z M 61 6.476562 "/>
</clipPath>
<clipPath id="clip-5">
<path clip-rule="nonzero" d="M 89 6.476562 L 90 6.476562 L 90 179.460938 L 89 179.460938 Z M 89 6.476562 "/>
</clipPath>
<clipPath id="clip-6">
<path clip-rule="nonzero" d="M 117 6.476562 L 119 6.476562 L 119 179.460938 L 117 179.460938 Z M 117 6.476562 "/>
</clipPath>
<clipPath id="clip-7">
<path clip-rule="nonzero" d="M 145 6.476562 L 147 6.476562 L 147 179.460938 L 145 179.460938 Z M 145 6.476562 "/>
</clipPath>
<clipPath id="clip-8">
<path clip-rule="nonzero" d="M 173 6.476562 L 175 6.476562 L 175 179.460938 L 173 179.460938 Z M 173 6.476562 "/>
</clipPath>
<clipPath id="clip-9">
<path clip-rule="nonzero" d="M 40.542969 168 L 194.867188 168 L 194.867188 170 L 40.542969 170 Z M 40.542969 168 "/>
</clipPath>
<clipPath id="clip-10">
<path clip-rule="nonzero" d="M 40.542969 130 L 194.867188 130 L 194.867188 133 L 40.542969 133 Z M 40.542969 130 "/>
</clipPath>
<clipPath id="clip-11">
<path clip-rule="nonzero" d="M 40.542969 93 L 194.867188 93 L 194.867188 95 L 40.542969 95 Z M 40.542969 93 "/>
</clipPath>
<clipPath id="clip-12">
<path clip-rule="nonzero" d="M 40.542969 55 L 194.867188 55 L 194.867188 58 L 40.542969 58 Z M 40.542969 55 "/>
</clipPath>
<clipPath id="clip-13">
<path clip-rule="nonzero" d="M 40.542969 18 L 194.867188 18 L 194.867188 20 L 40.542969 20 Z M 40.542969 18 "/>
</clipPath>
<clipPath id="clip-14">
<path clip-rule="nonzero" d="M 46 6.476562 L 49 6.476562 L 49 179.460938 L 46 179.460938 Z M 46 6.476562 "/>
</clipPath>
<clipPath id="clip-15">
<path clip-rule="nonzero" d="M 74 6.476562 L 77 6.476562 L 77 179.460938 L 74 179.460938 Z M 74 6.476562 "/>
</clipPath>
<clipPath id="clip-16">
<path clip-rule="nonzero" d="M 103 6.476562 L 105 6.476562 L 105 179.460938 L 103 179.460938 Z M 103 6.476562 "/>
</clipPath>
<clipPath id="clip-17">
<path clip-rule="nonzero" d="M 131 6.476562 L 133 6.476562 L 133 179.460938 L 131 179.460938 Z M 131 6.476562 "/>
</clipPath>
<clipPath id="clip-18">
<path clip-rule="nonzero" d="M 159 6.476562 L 161 6.476562 L 161 179.460938 L 159 179.460938 Z M 159 6.476562 "/>
</clipPath>
<clipPath id="clip-19">
<path clip-rule="nonzero" d="M 187 6.476562 L 189 6.476562 L 189 179.460938 L 187 179.460938 Z M 187 6.476562 "/>
</clipPath>
</defs>
<rect x="-36" y="-21.9" width="432" height="262.8" fill="rgb(100%, 100%, 100%)" fill-opacity="1"/>
<rect x="-36" y="-21.9" width="432" height="262.8" fill="rgb(100%, 100%, 100%)" fill-opacity="1"/>
<g clip-path="url(#clip-0)">
<path fill="none" stroke-width="0.630487" stroke-linecap="butt" stroke-linejoin="round" stroke="rgb(92.156863%, 92.156863%, 92.156863%)" stroke-opacity="1" stroke-miterlimit="10" d="M 40.542969 150.15625 L 194.867188 150.15625 "/>
</g>
<g clip-path="url(#clip-1)">
<path fill="none" stroke-width="0.630487" stroke-linecap="butt" stroke-linejoin="round" stroke="rgb(92.156863%, 92.156863%, 92.156863%)" stroke-opacity="1" stroke-miterlimit="10" d="M 40.542969 112.722656 L 194.867188 112.722656 "/>
</g>
<g clip-path="url(#clip-2)">
<path fill="none" stroke-width="0.630487" stroke-linecap="butt" stroke-linejoin="round" stroke="rgb(92.156863%, 92.156863%, 92.156863%)" stroke-opacity="1" stroke-miterlimit="10" d="M 40.542969 75.289062 L 194.867188 75.289062 "/>
</g>
<g clip-path="url(#clip-3)">
<path fill="none" stroke-width="0.630487" stroke-linecap="butt" stroke-linejoin="round" stroke="rgb(92.156863%, 92.156863%, 92.156863%)" stroke-opacity="1" stroke-miterlimit="10" d="M 40.542969 37.859375 L 194.867188 37.859375 "/>
</g>
<g clip-path="url(#clip-4)">
<path fill="none" stroke-width="0.630487" stroke-linecap="butt" stroke-linejoin="round" stroke="rgb(92.156863%, 92.156863%, 92.156863%)" stroke-opacity="1" stroke-miterlimit="10" d="M 61.585938 179.457031 L 61.585938 6.476562 "/>
</g>
<g clip-path="url(#clip-5)">
<path fill="none" stroke-width="0.630487" stroke-linecap="butt" stroke-linejoin="round" stroke="rgb(92.156863%, 92.156863%, 92.156863%)" stroke-opacity="1" stroke-miterlimit="10" d="M 89.644531 179.457031 L 89.644531 6.476562 "/>
</g>
<g clip-path="url(#clip-6)">
<path fill="none" stroke-width="0.630487" stroke-linecap="butt" stroke-linejoin="round" stroke="rgb(92.156863%, 92.156863%, 92.156863%)" stroke-opacity="1" stroke-miterlimit="10" d="M 117.703125 179.457031 L 117.703125 6.476562 "/>
</g>
<g clip-path="url(#clip-7)">
<path fill="none" stroke-width="0.630487" stroke-linecap="butt" stroke-linejoin="round" stroke="rgb(92.156863%, 92.156863%, 92.156863%)" stroke-opacity="1" stroke-miterlimit="10" d="M 145.761719 179.457031 L 145.761719 6.476562 "/>
</g>
<g clip-path="url(#clip-8)">
<path fill="none" stroke-width="0.630487" stroke-linecap="butt" stroke-linejoin="round" stroke="rgb(92.156863%, 92.156863%, 92.156863%)" stroke-opacity="1" stroke-miterlimit="10" d="M 173.820312 179.457031 L 173.820312 6.476562 "/>
</g>
<g clip-path="url(#clip-9)">
<path fill="none" stroke-width="1.260974" stroke-linecap="butt" stroke-linejoin="round" stroke="rgb(92.156863%, 92.156863%, 92.156863%)" stroke-opacity="1" stroke-miterlimit="10" d="M 40.542969 168.871094 L 194.867188 168.871094 "/>
</g>
<g clip-path="url(#clip-10)">
<path fill="none" stroke-width="1.260974" stroke-linecap="butt" stroke-linejoin="round" stroke="rgb(92.156863%, 92.156863%, 92.156863%)" stroke-opacity="1" stroke-miterlimit="10" d="M 40.542969 131.441406 L 194.867188 131.441406 "/>
</g>
<g clip-path="url(#clip-11)">
<path fill="none" stroke-width="1.260974" stroke-linecap="butt" stroke-linejoin="round" stroke="rgb(92.156863%, 92.156863%, 92.156863%)" stroke-opacity="1" stroke-miterlimit="10" d="M 40.542969 94.007812 L 194.867188 94.007812 "/>
</g>
<g clip-path="url(#clip-12)">
<path fill="none" stroke-width="1.260974" stroke-linecap="butt" stroke-linejoin="round" stroke="rgb(92.156863%, 92.156863%, 92.156863%)" stroke-opacity="1" stroke-miterlimit="10" d="M 40.542969 56.574219 L 194.867188 56.574219 "/>
</g>
<g clip-path="url(#clip-13)">
<path fill="none" stroke-width="1.260974" stroke-linecap="butt" stroke-linejoin="round" stroke="rgb(92.156863%, 92.156863%, 92.156863%)" stroke-opacity="1" stroke-miterlimit="10" d="M 40.542969 19.140625 L 194.867188 19.140625 "/>
</g>
<g clip-path="url(#clip-14)">
<path fill="none" stroke-width="1.260974" stroke-linecap="butt" stroke-linejoin="round" stroke="rgb(92.156863%, 92.156863%, 92.156863%)" stroke-opacity="1" stroke-miterlimit="10" d="M 47.554688 179.457031 L 47.554688 6.476562 "/>
</g>
<g clip-path="url(#clip-15)">
<path fill="none" stroke-width="1.260974" stroke-linecap="butt" stroke-linejoin="round" stroke="rgb(92.156863%, 92.156863%, 92.156863%)" stroke-opacity="1" stroke-miterlimit="10" d="M 75.617188 179.457031 L 75.617188 6.476562 "/>
</g>
<g clip-path="url(#clip-16)">
<path fill="none" stroke-width="1.260974" stroke-linecap="butt" stroke-linejoin="round" stroke="rgb(92.156863%, 92.156863%, 92.156863%)" stroke-opacity="1" stroke-miterlimit="10" d="M 103.675781 179.457031 L 103.675781 6.476562 "/>
</g>
<g clip-path="url(#clip-17)">
<path fill="none" stroke-width="1.260974" stroke-linecap="butt" stroke-linejoin="round" stroke="rgb(92.156863%, 92.156863%, 92.156863%)" stroke-opacity="1" stroke-miterlimit="10" d="M 131.734375 179.457031 L 131.734375 6.476562 "/>
</g>
<g clip-path="url(#clip-18)">
<path fill="none" stroke-width="1.260974" stroke-linecap="butt" stroke-linejoin="round" stroke="rgb(92.156863%, 92.156863%, 92.156863%)" stroke-opacity="1" stroke-miterlimit="10" d="M 159.792969 179.457031 L 159.792969 6.476562 "/>
</g>
<g clip-path="url(#clip-19)">
<path fill="none" stroke-width="1.260974" stroke-linecap="butt" stroke-linejoin="round" stroke="rgb(92.156863%, 92.156863%, 92.156863%)" stroke-opacity="1" stroke-miterlimit="10" d="M 187.851562 179.457031 L 187.851562 6.476562 "/>
</g>
<path fill="none" stroke-width="2.133957" stroke-linecap="butt" stroke-linejoin="round" stroke="rgb(17.254902%, 48.235294%, 71.372549%)" stroke-opacity="1" stroke-miterlimit="10" d="M 47.554688 56.34375 L 75.617188 52.175781 L 103.675781 49.261719 L 131.734375 44 L 159.792969 28.539062 L 187.851562 14.339844 "/>
<path fill="none" stroke-width="2.133957" stroke-linecap="butt" stroke-linejoin="round" stroke="rgb(67.058824%, 85.098039%, 91.372549%)" stroke-opacity="1" stroke-miterlimit="10" d="M 47.554688 108.148438 L 75.617188 106.121094 L 103.675781 102.839844 L 131.734375 99.335938 L 159.792969 89.769531 L 187.851562 77.613281 "/>
<path fill="none" stroke-width="2.133957" stroke-linecap="butt" stroke-linejoin="round" stroke="rgb(100%, 100%, 74.901961%)" stroke-opacity="1" stroke-miterlimit="10" d="M 47.554688 130.714844 L 75.617188 127.953125 L 103.675781 125.65625 L 131.734375 122.144531 L 159.792969 112.570312 L 187.851562 103.246094 "/>
<path fill="none" stroke-width="2.133957" stroke-linecap="butt" stroke-linejoin="round" stroke="rgb(99.215686%, 68.235294%, 38.039216%)" stroke-opacity="1" stroke-miterlimit="10" d="M 47.554688 149.019531 L 75.617188 145.988281 L 103.675781 144.484375 L 131.734375 141.929688 L 159.792969 134.285156 L 187.851562 124.15625 "/>
<path fill="none" stroke-width="2.133957" stroke-linecap="butt" stroke-linejoin="round" stroke="rgb(84.313725%, 9.803922%, 10.980392%)" stroke-opacity="1" stroke-miterlimit="10" d="M 47.554688 171.59375 L 75.617188 169.410156 L 103.675781 168.238281 L 131.734375 167.902344 L 159.792969 162.664062 L 187.851562 154.234375 "/>
<path fill-rule="nonzero" fill="rgb(17.254902%, 48.235294%, 71.372549%)" fill-opacity="1" stroke-width="0.837509" stroke-linecap="round" stroke-linejoin="round" stroke="rgb(17.254902%, 48.235294%, 71.372549%)" stroke-opacity="1" stroke-miterlimit="10" d="M 50.109375 56.34375 C 50.109375 59.746094 45.003906 59.746094 45.003906 56.34375 C 45.003906 52.9375 50.109375 52.9375 50.109375 56.34375 "/>
<path fill-rule="nonzero" fill="rgb(67.058824%, 85.098039%, 91.372549%)" fill-opacity="1" stroke-width="0.837509" stroke-linecap="round" stroke-linejoin="round" stroke="rgb(67.058824%, 85.098039%, 91.372549%)" stroke-opacity="1" stroke-miterlimit="10" d="M 50.109375 108.148438 C 50.109375 111.550781 45.003906 111.550781 45.003906 108.148438 C 45.003906 104.742188 50.109375 104.742188 50.109375 108.148438 "/>
<path fill-rule="nonzero" fill="rgb(100%, 100%, 74.901961%)" fill-opacity="1" stroke-width="0.837509" stroke-linecap="round" stroke-linejoin="round" stroke="rgb(100%, 100%, 74.901961%)" stroke-opacity="1" stroke-miterlimit="10" d="M 50.109375 130.714844 C 50.109375 134.117188 45.003906 134.117188 45.003906 130.714844 C 45.003906 127.3125 50.109375 127.3125 50.109375 130.714844 "/>
<path fill-rule="nonzero" fill="rgb(99.215686%, 68.235294%, 38.039216%)" fill-opacity="1" stroke-width="0.837509" stroke-linecap="round" stroke-linejoin="round" stroke="rgb(99.215686%, 68.235294%, 38.039216%)" stroke-opacity="1" stroke-miterlimit="10" d="M 50.109375 149.019531 C 50.109375 152.421875 45.003906 152.421875 45.003906 149.019531 C 45.003906 145.613281 50.109375 145.613281 50.109375 149.019531 "/>
<path fill-rule="nonzero" fill="rgb(84.313725%, 9.803922%, 10.980392%)" fill-opacity="1" stroke-width="0.837509" stroke-linecap="round" stroke-linejoin="round" stroke="rgb(84.313725%, 9.803922%, 10.980392%)" stroke-opacity="1" stroke-miterlimit="10" d="M 50.109375 171.59375 C 50.109375 175 45.003906 175 45.003906 171.59375 C 45.003906 168.191406 50.109375 168.191406 50.109375 171.59375 "/>
<path fill-rule="nonzero" fill="rgb(17.254902%, 48.235294%, 71.372549%)" fill-opacity="1" stroke-width="0.837509" stroke-linecap="round" stroke-linejoin="round" stroke="rgb(17.254902%, 48.235294%, 71.372549%)" stroke-opacity="1" stroke-miterlimit="10" d="M 78.167969 52.175781 C 78.167969 55.582031 73.0625 55.582031 73.0625 52.175781 C 73.0625 48.773438 78.167969 48.773438 78.167969 52.175781 "/>
<path fill-rule="nonzero" fill="rgb(67.058824%, 85.098039%, 91.372549%)" fill-opacity="1" stroke-width="0.837509" stroke-linecap="round" stroke-linejoin="round" stroke="rgb(67.058824%, 85.098039%, 91.372549%)" stroke-opacity="1" stroke-miterlimit="10" d="M 78.167969 106.121094 C 78.167969 109.527344 73.0625 109.527344 73.0625 106.121094 C 73.0625 102.71875 78.167969 102.71875 78.167969 106.121094 "/>
<path fill-rule="nonzero" fill="rgb(100%, 100%, 74.901961%)" fill-opacity="1" stroke-width="0.837509" stroke-linecap="round" stroke-linejoin="round" stroke="rgb(100%, 100%, 74.901961%)" stroke-opacity="1" stroke-miterlimit="10" d="M 78.167969 127.953125 C 78.167969 131.355469 73.0625 131.355469 73.0625 127.953125 C 73.0625 124.550781 78.167969 124.550781 78.167969 127.953125 "/>
<path fill-rule="nonzero" fill="rgb(99.215686%, 68.235294%, 38.039216%)" fill-opacity="1" stroke-width="0.837509" stroke-linecap="round" stroke-linejoin="round" stroke="rgb(99.215686%, 68.235294%, 38.039216%)" stroke-opacity="1" stroke-miterlimit="10" d="M 78.167969 145.988281 C 78.167969 149.394531 73.0625 149.394531 73.0625 145.988281 C 73.0625 142.585938 78.167969 142.585938 78.167969 145.988281 "/>
<path fill-rule="nonzero" fill="rgb(84.313725%, 9.803922%, 10.980392%)" fill-opacity="1" stroke-width="0.837509" stroke-linecap="round" stroke-linejoin="round" stroke="rgb(84.313725%, 9.803922%, 10.980392%)" stroke-opacity="1" stroke-miterlimit="10" d="M 78.167969 169.410156 C 78.167969 172.8125 73.0625 172.8125 73.0625 169.410156 C 73.0625 166.003906 78.167969 166.003906 78.167969 169.410156 "/>
<path fill-rule="nonzero" fill="rgb(17.254902%, 48.235294%, 71.372549%)" fill-opacity="1" stroke-width="0.837509" stroke-linecap="round" stroke-linejoin="round" stroke="rgb(17.254902%, 48.235294%, 71.372549%)" stroke-opacity="1" stroke-miterlimit="10" d="M 106.226562 49.261719 C 106.226562 52.664062 101.121094 52.664062 101.121094 49.261719 C 101.121094 45.859375 106.226562 45.859375 106.226562 49.261719 "/>
<path fill-rule="nonzero" fill="rgb(67.058824%, 85.098039%, 91.372549%)" fill-opacity="1" stroke-width="0.837509" stroke-linecap="round" stroke-linejoin="round" stroke="rgb(67.058824%, 85.098039%, 91.372549%)" stroke-opacity="1" stroke-miterlimit="10" d="M 106.226562 102.839844 C 106.226562 106.242188 101.121094 106.242188 101.121094 102.839844 C 101.121094 99.4375 106.226562 99.4375 106.226562 102.839844 "/>
<path fill-rule="nonzero" fill="rgb(100%, 100%, 74.901961%)" fill-opacity="1" stroke-width="0.837509" stroke-linecap="round" stroke-linejoin="round" stroke="rgb(100%, 100%, 74.901961%)" stroke-opacity="1" stroke-miterlimit="10" d="M 106.226562 125.65625 C 106.226562 129.058594 101.121094 129.058594 101.121094 125.65625 C 101.121094 122.253906 106.226562 122.253906 106.226562 125.65625 "/>
<path fill-rule="nonzero" fill="rgb(99.215686%, 68.235294%, 38.039216%)" fill-opacity="1" stroke-width="0.837509" stroke-linecap="round" stroke-linejoin="round" stroke="rgb(99.215686%, 68.235294%, 38.039216%)" stroke-opacity="1" stroke-miterlimit="10" d="M 106.226562 144.484375 C 106.226562 147.886719 101.121094 147.886719 101.121094 144.484375 C 101.121094 141.082031 106.226562 141.082031 106.226562 144.484375 "/>
<path fill-rule="nonzero" fill="rgb(84.313725%, 9.803922%, 10.980392%)" fill-opacity="1" stroke-width="0.837509" stroke-linecap="round" stroke-linejoin="round" stroke="rgb(84.313725%, 9.803922%, 10.980392%)" stroke-opacity="1" stroke-miterlimit="10" d="M 106.226562 168.238281 C 106.226562 171.640625 101.121094 171.640625 101.121094 168.238281 C 101.121094 164.835938 106.226562 164.835938 106.226562 168.238281 "/>
<path fill-rule="nonzero" fill="rgb(17.254902%, 48.235294%, 71.372549%)" fill-opacity="1" stroke-width="0.837509" stroke-linecap="round" stroke-linejoin="round" stroke="rgb(17.254902%, 48.235294%, 71.372549%)" stroke-opacity="1" stroke-miterlimit="10" d="M 134.285156 44 C 134.285156 47.40625 129.179688 47.40625 129.179688 44 C 129.179688 40.597656 134.285156 40.597656 134.285156 44 "/>
<path fill-rule="nonzero" fill="rgb(67.058824%, 85.098039%, 91.372549%)" fill-opacity="1" stroke-width="0.837509" stroke-linecap="round" stroke-linejoin="round" stroke="rgb(67.058824%, 85.098039%, 91.372549%)" stroke-opacity="1" stroke-miterlimit="10" d="M 134.285156 99.335938 C 134.285156 102.738281 129.179688 102.738281 129.179688 99.335938 C 129.179688 95.933594 134.285156 95.933594 134.285156 99.335938 "/>
<path fill-rule="nonzero" fill="rgb(100%, 100%, 74.901961%)" fill-opacity="1" stroke-width="0.837509" stroke-linecap="round" stroke-linejoin="round" stroke="rgb(100%, 100%, 74.901961%)" stroke-opacity="1" stroke-miterlimit="10" d="M 134.285156 122.144531 C 134.285156 125.546875 129.179688 125.546875 129.179688 122.144531 C 129.179688 118.742188 134.285156 118.742188 134.285156 122.144531 "/>
<path fill-rule="nonzero" fill="rgb(99.215686%, 68.235294%, 38.039216%)" fill-opacity="1" stroke-width="0.837509" stroke-linecap="round" stroke-linejoin="round" stroke="rgb(99.215686%, 68.235294%, 38.039216%)" stroke-opacity="1" stroke-miterlimit="10" d="M 134.285156 141.929688 C 134.285156 145.332031 129.179688 145.332031 129.179688 141.929688 C 129.179688 138.527344 134.285156 138.527344 134.285156 141.929688 "/>
<path fill-rule="nonzero" fill="rgb(84.313725%, 9.803922%, 10.980392%)" fill-opacity="1" stroke-width="0.837509" stroke-linecap="round" stroke-linejoin="round" stroke="rgb(84.313725%, 9.803922%, 10.980392%)" stroke-opacity="1" stroke-miterlimit="10" d="M 134.285156 167.902344 C 134.285156 171.308594 129.179688 171.308594 129.179688 167.902344 C 129.179688 164.5 134.285156 164.5 134.285156 167.902344 "/>
<path fill-rule="nonzero" fill="rgb(17.254902%, 48.235294%, 71.372549%)" fill-opacity="1" stroke-width="0.837509" stroke-linecap="round" stroke-linejoin="round" stroke="rgb(17.254902%, 48.235294%, 71.372549%)" stroke-opacity="1" stroke-miterlimit="10" d="M 162.34375 28.539062 C 162.34375 31.945312 157.238281 31.945312 157.238281 28.539062 C 157.238281 25.136719 162.34375 25.136719 162.34375 28.539062 "/>
<path fill-rule="nonzero" fill="rgb(67.058824%, 85.098039%, 91.372549%)" fill-opacity="1" stroke-width="0.837509" stroke-linecap="round" stroke-linejoin="round" stroke="rgb(67.058824%, 85.098039%, 91.372549%)" stroke-opacity="1" stroke-miterlimit="10" d="M 162.34375 89.769531 C 162.34375 93.171875 157.238281 93.171875 157.238281 89.769531 C 157.238281 86.367188 162.34375 86.367188 162.34375 89.769531 "/>
<path fill-rule="nonzero" fill="rgb(100%, 100%, 74.901961%)" fill-opacity="1" stroke-width="0.837509" stroke-linecap="round" stroke-linejoin="round" stroke="rgb(100%, 100%, 74.901961%)" stroke-opacity="1" stroke-miterlimit="10" d="M 162.34375 112.570312 C 162.34375 115.976562 157.238281 115.976562 157.238281 112.570312 C 157.238281 109.167969 162.34375 109.167969 162.34375 112.570312 "/>
<path fill-rule="nonzero" fill="rgb(99.215686%, 68.235294%, 38.039216%)" fill-opacity="1" stroke-width="0.837509" stroke-linecap="round" stroke-linejoin="round" stroke="rgb(99.215686%, 68.235294%, 38.039216%)" stroke-opacity="1" stroke-miterlimit="10" d="M 162.34375 134.285156 C 162.34375 137.6875 157.238281 137.6875 157.238281 134.285156 C 157.238281 130.878906 162.34375 130.878906 162.34375 134.285156 "/>
<path fill-rule="nonzero" fill="rgb(84.313725%, 9.803922%, 10.980392%)" fill-opacity="1" stroke-width="0.837509" stroke-linecap="round" stroke-linejoin="round" stroke="rgb(84.313725%, 9.803922%, 10.980392%)" stroke-opacity="1" stroke-miterlimit="10" d="M 162.34375 162.664062 C 162.34375 166.066406 157.238281 166.066406 157.238281 162.664062 C 157.238281 159.257812 162.34375 159.257812 162.34375 162.664062 "/>
<path fill-rule="nonzero" fill="rgb(17.254902%, 48.235294%, 71.372549%)" fill-opacity="1" stroke-width="0.837509" stroke-linecap="round" stroke-linejoin="round" stroke="rgb(17.254902%, 48.235294%, 71.372549%)" stroke-opacity="1" stroke-miterlimit="10" d="M 190.402344 14.339844 C 190.402344 17.742188 185.296875 17.742188 185.296875 14.339844 C 185.296875 10.933594 190.402344 10.933594 190.402344 14.339844 "/>
<path fill-rule="nonzero" fill="rgb(67.058824%, 85.098039%, 91.372549%)" fill-opacity="1" stroke-width="0.837509" stroke-linecap="round" stroke-linejoin="round" stroke="rgb(67.058824%, 85.098039%, 91.372549%)" stroke-opacity="1" stroke-miterlimit="10" d="M 190.402344 77.613281 C 190.402344 81.019531 185.296875 81.019531 185.296875 77.613281 C 185.296875 74.210938 190.402344 74.210938 190.402344 77.613281 "/>
<path fill-rule="nonzero" fill="rgb(100%, 100%, 74.901961%)" fill-opacity="1" stroke-width="0.837509" stroke-linecap="round" stroke-linejoin="round" stroke="rgb(100%, 100%, 74.901961%)" stroke-opacity="1" stroke-miterlimit="10" d="M 190.402344 103.246094 C 190.402344 106.648438 185.296875 106.648438 185.296875 103.246094 C 185.296875 99.839844 190.402344 99.839844 190.402344 103.246094 "/>
<path fill-rule="nonzero" fill="rgb(99.215686%, 68.235294%, 38.039216%)" fill-opacity="1" stroke-width="0.837509" stroke-linecap="round" stroke-linejoin="round" stroke="rgb(99.215686%, 68.235294%, 38.039216%)" stroke-opacity="1" stroke-miterlimit="10" d="M 190.402344 124.15625 C 190.402344 127.558594 185.296875 127.558594 185.296875 124.15625 C 185.296875 120.753906 190.402344 120.753906 190.402344 124.15625 "/>
<path fill-rule="nonzero" fill="rgb(84.313725%, 9.803922%, 10.980392%)" fill-opacity="1" stroke-width="0.837509" stroke-linecap="round" stroke-linejoin="round" stroke="rgb(84.313725%, 9.803922%, 10.980392%)" stroke-opacity="1" stroke-miterlimit="10" d="M 190.402344 154.234375 C 190.402344 157.636719 185.296875 157.636719 185.296875 154.234375 C 185.296875 150.832031 190.402344 150.832031 190.402344 154.234375 "/>
<g fill="rgb(30.196078%, 30.196078%, 30.196078%)" fill-opacity="1">
<use xlink:href="#glyph-0-1" x="22.714844" y="171.878906"/>
<use xlink:href="#glyph-0-2" x="28.714844" y="171.878906"/>
</g>
<g fill="rgb(30.196078%, 30.196078%, 30.196078%)" fill-opacity="1">
<use xlink:href="#glyph-0-3" x="22.714844" y="134.449219"/>
<use xlink:href="#glyph-0-2" x="28.714844" y="134.449219"/>
</g>
<g fill="rgb(30.196078%, 30.196078%, 30.196078%)" fill-opacity="1">
<use xlink:href="#glyph-0-4" x="22.714844" y="97.015625"/>
<use xlink:href="#glyph-0-2" x="28.714844" y="97.015625"/>
</g>
<g fill="rgb(30.196078%, 30.196078%, 30.196078%)" fill-opacity="1">
<use xlink:href="#glyph-0-5" x="22.714844" y="59.582031"/>
<use xlink:href="#glyph-0-2" x="28.714844" y="59.582031"/>
</g>
<g fill="rgb(30.196078%, 30.196078%, 30.196078%)" fill-opacity="1">
<use xlink:href="#glyph-0-6" x="22.714844" y="22.148438"/>
<use xlink:href="#glyph-0-2" x="28.714844" y="22.148438"/>
</g>
<g fill="rgb(30.196078%, 30.196078%, 30.196078%)" fill-opacity="1">
<use xlink:href="#glyph-0-1" x="35.554688" y="192.292969"/>
<use xlink:href="#glyph-0-2" x="41.554688" y="192.292969"/>
<use xlink:href="#glyph-0-7" x="47.554688" y="192.292969"/>
<use xlink:href="#glyph-0-8" x="53.554688" y="192.292969"/>
</g>
<g fill="rgb(30.196078%, 30.196078%, 30.196078%)" fill-opacity="1">
<use xlink:href="#glyph-0-1" x="63.617188" y="192.292969"/>
<use xlink:href="#glyph-0-2" x="69.617188" y="192.292969"/>
<use xlink:href="#glyph-0-7" x="75.617188" y="192.292969"/>
<use xlink:href="#glyph-0-9" x="81.617188" y="192.292969"/>
</g>
<g fill="rgb(30.196078%, 30.196078%, 30.196078%)" fill-opacity="1">
<use xlink:href="#glyph-0-1" x="91.675781" y="192.292969"/>
<use xlink:href="#glyph-0-2" x="97.675781" y="192.292969"/>
<use xlink:href="#glyph-0-1" x="103.675781" y="192.292969"/>
<use xlink:href="#glyph-0-2" x="109.675781" y="192.292969"/>
</g>
<g fill="rgb(30.196078%, 30.196078%, 30.196078%)" fill-opacity="1">
<use xlink:href="#glyph-0-1" x="119.734375" y="192.292969"/>
<use xlink:href="#glyph-0-2" x="125.734375" y="192.292969"/>
<use xlink:href="#glyph-0-1" x="131.734375" y="192.292969"/>
<use xlink:href="#glyph-0-7" x="137.734375" y="192.292969"/>
</g>
<g fill="rgb(30.196078%, 30.196078%, 30.196078%)" fill-opacity="1">
<use xlink:href="#glyph-0-1" x="147.792969" y="192.292969"/>
<use xlink:href="#glyph-0-2" x="153.792969" y="192.292969"/>
<use xlink:href="#glyph-0-1" x="159.792969" y="192.292969"/>
<use xlink:href="#glyph-0-1" x="165.792969" y="192.292969"/>
</g>
<g fill="rgb(30.196078%, 30.196078%, 30.196078%)" fill-opacity="1">
<use xlink:href="#glyph-0-1" x="175.851562" y="192.292969"/>
<use xlink:href="#glyph-0-2" x="181.851562" y="192.292969"/>
<use xlink:href="#glyph-0-1" x="187.851562" y="192.292969"/>
<use xlink:href="#glyph-0-3" x="193.851562" y="192.292969"/>
</g>
<g fill="rgb(0%, 0%, 0%)" fill-opacity="1">
<use xlink:href="#glyph-1-1" x="99.203125" y="208.53418"/>
<use xlink:href="#glyph-1-2" x="108.203125" y="208.53418"/>
<use xlink:href="#glyph-1-2" x="115.203125" y="208.53418"/>
<use xlink:href="#glyph-1-3" x="122.203125" y="208.53418"/>
<use xlink:href="#glyph-1-4" x="129.203125" y="208.53418"/>
</g>
<g fill="rgb(0%, 0%, 0%)" fill-opacity="1">
<use xlink:href="#glyph-2-1" x="15.487305" y="148.46875"/>
<use xlink:href="#glyph-2-2" x="15.487305" y="136.46875"/>
<use xlink:href="#glyph-2-3" x="15.487305" y="132.46875"/>
<use xlink:href="#glyph-2-4" x="15.487305" y="125.46875"/>
<use xlink:href="#glyph-2-2" x="15.487305" y="118.46875"/>
<use xlink:href="#glyph-2-5" x="15.487305" y="114.46875"/>
<use xlink:href="#glyph-2-6" x="15.487305" y="107.46875"/>
<use xlink:href="#glyph-2-7" x="15.487305" y="104.46875"/>
<use xlink:href="#glyph-2-8" x="15.487305" y="97.46875"/>
<use xlink:href="#glyph-2-9" x="15.487305" y="90.46875"/>
<use xlink:href="#glyph-2-4" x="15.487305" y="83.46875"/>
<use xlink:href="#glyph-2-2" x="15.487305" y="76.46875"/>
<use xlink:href="#glyph-2-3" x="15.487305" y="72.46875"/>
<use xlink:href="#glyph-2-8" x="15.487305" y="65.46875"/>
<use xlink:href="#glyph-2-2" x="15.487305" y="58.46875"/>
<use xlink:href="#glyph-2-7" x="15.487305" y="54.46875"/>
<use xlink:href="#glyph-2-6" x="15.487305" y="47.46875"/>
<use xlink:href="#glyph-2-8" x="15.487305" y="44.46875"/>
</g>
<g fill="rgb(0%, 0%, 0%)" fill-opacity="1">
<use xlink:href="#glyph-1-5" x="214.292969" y="50.538086"/>
<use xlink:href="#glyph-1-6" x="224.292969" y="50.538086"/>
<use xlink:href="#glyph-1-7" x="231.292969" y="50.538086"/>
<use xlink:href="#glyph-1-2" x="234.292969" y="50.538086"/>
<use xlink:href="#glyph-1-8" x="241.292969" y="50.538086"/>
<use xlink:href="#glyph-1-7" x="245.292969" y="50.538086"/>
<use xlink:href="#glyph-1-9" x="248.292969" y="50.538086"/>
<use xlink:href="#glyph-1-4" x="251.292969" y="50.538086"/>
</g>
<path fill="none" stroke-width="2.133957" stroke-linecap="butt" stroke-linejoin="round" stroke="rgb(17.254902%, 48.235294%, 71.372549%)" stroke-opacity="1" stroke-miterlimit="10" d="M 216.019531 68.144531 L 229.84375 68.144531 "/>
<path fill-rule="nonzero" fill="rgb(17.254902%, 48.235294%, 71.372549%)" fill-opacity="1" stroke-width="0.837509" stroke-linecap="round" stroke-linejoin="round" stroke="rgb(17.254902%, 48.235294%, 71.372549%)" stroke-opacity="1" stroke-miterlimit="10" d="M 225.484375 68.144531 C 225.484375 71.546875 220.378906 71.546875 220.378906 68.144531 C 220.378906 64.742188 225.484375 64.742188 225.484375 68.144531 "/>
<path fill="none" stroke-width="2.133957" stroke-linecap="butt" stroke-linejoin="round" stroke="rgb(67.058824%, 85.098039%, 91.372549%)" stroke-opacity="1" stroke-miterlimit="10" d="M 216.019531 85.425781 L 229.84375 85.425781 "/>
<path fill-rule="nonzero" fill="rgb(67.058824%, 85.098039%, 91.372549%)" fill-opacity="1" stroke-width="0.837509" stroke-linecap="round" stroke-linejoin="round" stroke="rgb(67.058824%, 85.098039%, 91.372549%)" stroke-opacity="1" stroke-miterlimit="10" d="M 225.484375 85.425781 C 225.484375 88.828125 220.378906 88.828125 220.378906 85.425781 C 220.378906 82.019531 225.484375 82.019531 225.484375 85.425781 "/>
<path fill="none" stroke-width="2.133957" stroke-linecap="butt" stroke-linejoin="round" stroke="rgb(100%, 100%, 74.901961%)" stroke-opacity="1" stroke-miterlimit="10" d="M 216.019531 102.703125 L 229.84375 102.703125 "/>
<path fill-rule="nonzero" fill="rgb(100%, 100%, 74.901961%)" fill-opacity="1" stroke-width="0.837509" stroke-linecap="round" stroke-linejoin="round" stroke="rgb(100%, 100%, 74.901961%)" stroke-opacity="1" stroke-miterlimit="10" d="M 225.484375 102.703125 C 225.484375 106.109375 220.378906 106.109375 220.378906 102.703125 C 220.378906 99.300781 225.484375 99.300781 225.484375 102.703125 "/>
<path fill="none" stroke-width="2.133957" stroke-linecap="butt" stroke-linejoin="round" stroke="rgb(99.215686%, 68.235294%, 38.039216%)" stroke-opacity="1" stroke-miterlimit="10" d="M 216.019531 119.984375 L 229.84375 119.984375 "/>
<path fill-rule="nonzero" fill="rgb(99.215686%, 68.235294%, 38.039216%)" fill-opacity="1" stroke-width="0.837509" stroke-linecap="round" stroke-linejoin="round" stroke="rgb(99.215686%, 68.235294%, 38.039216%)" stroke-opacity="1" stroke-miterlimit="10" d="M 225.484375 119.984375 C 225.484375 123.386719 220.378906 123.386719 220.378906 119.984375 C 220.378906 116.582031 225.484375 116.582031 225.484375 119.984375 "/>
<path fill="none" stroke-width="2.133957" stroke-linecap="butt" stroke-linejoin="round" stroke="rgb(84.313725%, 9.803922%, 10.980392%)" stroke-opacity="1" stroke-miterlimit="10" d="M 216.019531 137.265625 L 229.84375 137.265625 "/>
<path fill-rule="nonzero" fill="rgb(84.313725%, 9.803922%, 10.980392%)" fill-opacity="1" stroke-width="0.837509" stroke-linecap="round" stroke-linejoin="round" stroke="rgb(84.313725%, 9.803922%, 10.980392%)" stroke-opacity="1" stroke-miterlimit="10" d="M 225.484375 137.265625 C 225.484375 140.667969 220.378906 140.667969 220.378906 137.265625 C 220.378906 133.859375 225.484375 133.859375 225.484375 137.265625 "/>
<g fill="rgb(0%, 0%, 0%)" fill-opacity="1">
<use xlink:href="#glyph-0-10" x="238.046875" y="71.152344"/>
<use xlink:href="#glyph-0-7" x="246.046875" y="71.152344"/>
<use xlink:href="#glyph-0-11" x="252.046875" y="71.152344"/>
<use xlink:href="#glyph-0-12" x="255.046875" y="71.152344"/>
<use xlink:href="#glyph-0-1" x="258.046875" y="71.152344"/>
<use xlink:href="#glyph-0-2" x="264.046875" y="71.152344"/>
<use xlink:href="#glyph-0-13" x="270.046875" y="71.152344"/>
<use xlink:href="#glyph-0-11" x="279.046875" y="71.152344"/>
<use xlink:href="#glyph-0-14" x="282.046875" y="71.152344"/>
<use xlink:href="#glyph-0-15" x="284.046875" y="71.152344"/>
<use xlink:href="#glyph-0-16" x="290.046875" y="71.152344"/>
<use xlink:href="#glyph-0-11" x="295.046875" y="71.152344"/>
<use xlink:href="#glyph-0-17" x="298.046875" y="71.152344"/>
<use xlink:href="#glyph-0-11" x="304.046875" y="71.152344"/>
<use xlink:href="#glyph-0-18" x="307.046875" y="71.152344"/>
<use xlink:href="#glyph-0-19" x="313.046875" y="71.152344"/>
<use xlink:href="#glyph-0-20" x="319.046875" y="71.152344"/>
<use xlink:href="#glyph-0-21" x="325.046875" y="71.152344"/>
<use xlink:href="#glyph-0-22" x="330.046875" y="71.152344"/>
<use xlink:href="#glyph-0-15" x="333.046875" y="71.152344"/>
<use xlink:href="#glyph-0-16" x="339.046875" y="71.152344"/>
<use xlink:href="#glyph-0-23" x="344.046875" y="71.152344"/>
</g>
<g fill="rgb(0%, 0%, 0%)" fill-opacity="1">
<use xlink:href="#glyph-0-10" x="238.046875" y="88.433594"/>
<use xlink:href="#glyph-0-1" x="246.046875" y="88.433594"/>
</g>
<g fill="rgb(0%, 0%, 0%)" fill-opacity="1">
<use xlink:href="#glyph-0-10" x="238.046875" y="105.710938"/>
<use xlink:href="#glyph-0-3" x="246.046875" y="105.710938"/>
</g>
<g fill="rgb(0%, 0%, 0%)" fill-opacity="1">
<use xlink:href="#glyph-0-10" x="238.046875" y="122.992188"/>
<use xlink:href="#glyph-0-4" x="246.046875" y="122.992188"/>
</g>
<g fill="rgb(0%, 0%, 0%)" fill-opacity="1">
<use xlink:href="#glyph-0-10" x="238.046875" y="140.273438"/>
<use xlink:href="#glyph-0-5" x="246.046875" y="140.273438"/>
<use xlink:href="#glyph-0-11" x="252.046875" y="140.273438"/>
<use xlink:href="#glyph-0-12" x="255.046875" y="140.273438"/>
<use xlink:href="#glyph-0-1" x="258.046875" y="140.273438"/>
<use xlink:href="#glyph-0-2" x="264.046875" y="140.273438"/>
<use xlink:href="#glyph-0-13" x="270.046875" y="140.273438"/>
<use xlink:href="#glyph-0-11" x="279.046875" y="140.273438"/>
<use xlink:href="#glyph-0-14" x="282.046875" y="140.273438"/>
<use xlink:href="#glyph-0-15" x="284.046875" y="140.273438"/>
<use xlink:href="#glyph-0-16" x="290.046875" y="140.273438"/>
<use xlink:href="#glyph-0-11" x="295.046875" y="140.273438"/>
<use xlink:href="#glyph-0-17" x="298.046875" y="140.273438"/>
<use xlink:href="#glyph-0-11" x="304.046875" y="140.273438"/>
<use xlink:href="#glyph-0-22" x="307.046875" y="140.273438"/>
<use xlink:href="#glyph-0-24" x="310.046875" y="140.273438"/>
<use xlink:href="#glyph-0-25" x="312.046875" y="140.273438"/>
<use xlink:href="#glyph-0-26" x="317.046875" y="140.273438"/>
<use xlink:href="#glyph-0-15" x="323.046875" y="140.273438"/>
<use xlink:href="#glyph-0-16" x="329.046875" y="140.273438"/>
<use xlink:href="#glyph-0-23" x="334.046875" y="140.273438"/>
</g>
</svg>
